<?xml version="1.0" encoding="utf-8" standalone="no"?>
<!DOCTYPE svg PUBLIC "-//W3C//DTD SVG 1.1//EN"
  "http://www.w3.org/Graphics/SVG/1.1/DTD/svg11.dtd">
<svg xmlns:xlink="http://www.w3.org/1999/xlink" width="324pt" height="180pt" viewBox="0 0 324 180" xmlns="http://www.w3.org/2000/svg" version="1.1">
 <metadata>
  <rdf:RDF xmlns:dc="http://purl.org/dc/elements/1.1/" xmlns:cc="http://creativecommons.org/ns#" xmlns:rdf="http://www.w3.org/1999/02/22-rdf-syntax-ns#">
   <cc:Work>
    <dc:type rdf:resource="http://purl.org/dc/dcmitype/StillImage"/>
    <dc:date>2024-08-14T14:40:13.664469</dc:date>
    <dc:format>image/svg+xml</dc:format>
    <dc:creator>
     <cc:Agent>
      <dc:title>Matplotlib v3.5.2, https://matplotlib.org/</dc:title>
     </cc:Agent>
    </dc:creator>
   </cc:Work>
  </rdf:RDF>
 </metadata>
 <defs>
  <style type="text/css">*{stroke-linejoin: round; stroke-linecap: butt}</style>
 </defs>
 <g id="figure_1">
  <g id="patch_1">
   <path d="M 0 180 
L 324 180 
L 324 0 
L 0 0 
z
" style="fill: #ffffff"/>
  </g>
  <g id="axes_1">
   <g id="patch_2">
    <path d="M 40.5 157.5 
L 291.6 157.5 
L 291.6 21.6 
L 40.5 21.6 
z
" style="fill: #ffffff"/>
   </g>
   <g id="matplotlib.axis_1">
    <g id="xtick_1">
     <g id="line2d_1">
      <path d="M 100.285714 157.5 
L 100.285714 21.6 
" clip-path="url(#p25b8b8e4d7)" style="fill: none; stroke: #b0b0b0; stroke-width: 0.8; stroke-linecap: square"/>
     </g>
     <g id="line2d_2">
      <defs>
       <path id="m56340fd3eb" d="M 0 0 
L 0 3.5 
" style="stroke: #000000; stroke-width: 0.8"/>
      </defs>
      <g>
       <use xlink:href="#m56340fd3eb" x="100.285714" y="157.5" style="stroke: #000000; stroke-width: 0.8"/>
      </g>
     </g>
     <g id="text_1">
      <!-- $\mathdefault{-20}$ -->
      <g transform="translate(89.663613 172.605484)scale(0.12 -0.12)">
       <defs>
        <path id="CMSY10-0" d="M 4218 1472 
C 4326 1472 4442 1472 4442 1600 
C 4442 1728 4326 1728 4218 1728 
L 755 1728 
C 646 1728 531 1728 531 1600 
C 531 1472 646 1472 755 1472 
L 4218 1472 
z
" transform="scale(0.015625)"/>
        <path id="NimbusRomNo9L-Regu-32" d="M 3040 879 
L 2957 912 
C 2720 544 2637 486 2349 486 
L 819 486 
L 1894 1621 
C 2464 2221 2714 2711 2714 3214 
C 2714 3858 2195 4352 1530 4352 
C 1178 4352 845 4211 608 3955 
C 403 3736 307 3530 198 3072 
L 333 3039 
C 589 3671 819 3878 1261 3878 
C 1798 3878 2163 3510 2163 2969 
C 2163 2466 1869 1866 1331 1292 
L 192 76 
L 192 0 
L 2688 0 
L 3040 879 
z
" transform="scale(0.015625)"/>
        <path id="NimbusRomNo9L-Regu-30" d="M 1626 4352 
C 1274 4352 1005 4243 768 4019 
C 397 3661 154 2924 154 2176 
C 154 1478 365 729 666 371 
C 902 89 1229 -64 1600 -64 
C 1926 -64 2202 44 2432 268 
C 2803 620 3046 1363 3046 2137 
C 3046 3449 2464 4352 1626 4352 
z
M 1606 4185 
C 2144 4185 2432 3462 2432 2124 
C 2432 787 2150 102 1600 102 
C 1050 102 768 787 768 2118 
C 768 3475 1056 4185 1606 4185 
z
" transform="scale(0.015625)"/>
       </defs>
       <use xlink:href="#CMSY10-0" transform="scale(0.996264)"/>
       <use xlink:href="#NimbusRomNo9L-Regu-32" transform="translate(77.408707 0)scale(0.996264)"/>
       <use xlink:href="#NimbusRomNo9L-Regu-30" transform="translate(127.221908 0)scale(0.996264)"/>
      </g>
     </g>
    </g>
    <g id="xtick_2">
     <g id="line2d_3">
      <path d="M 172.028571 157.5 
L 172.028571 21.6 
" clip-path="url(#p25b8b8e4d7)" style="fill: none; stroke: #b0b0b0; stroke-width: 0.8; stroke-linecap: square"/>
     </g>
     <g id="line2d_4">
      <g>
       <use xlink:href="#m56340fd3eb" x="172.028571" y="157.5" style="stroke: #000000; stroke-width: 0.8"/>
      </g>
     </g>
     <g id="text_2">
      <!-- $\mathdefault{-10}$ -->
      <g transform="translate(161.40647 172.605484)scale(0.12 -0.12)">
       <defs>
        <path id="NimbusRomNo9L-Regu-31" d="M 1862 4352 
L 710 3776 
L 710 3686 
C 787 3718 858 3743 883 3756 
C 998 3801 1107 3826 1171 3826 
C 1306 3826 1363 3731 1363 3525 
L 1363 599 
C 1363 386 1312 238 1210 179 
C 1114 121 1024 102 755 96 
L 755 0 
L 2522 0 
L 2522 96 
C 2016 102 1914 167 1914 477 
L 1914 4339 
L 1862 4352 
z
" transform="scale(0.015625)"/>
       </defs>
       <use xlink:href="#CMSY10-0" transform="scale(0.996264)"/>
       <use xlink:href="#NimbusRomNo9L-Regu-31" transform="translate(77.408707 0)scale(0.996264)"/>
       <use xlink:href="#NimbusRomNo9L-Regu-30" transform="translate(127.221908 0)scale(0.996264)"/>
      </g>
     </g>
    </g>
    <g id="xtick_3">
     <g id="line2d_5">
      <path d="M 243.771429 157.5 
L 243.771429 21.6 
" clip-path="url(#p25b8b8e4d7)" style="fill: none; stroke: #b0b0b0; stroke-width: 0.8; stroke-linecap: square"/>
     </g>
     <g id="line2d_6">
      <g>
       <use xlink:href="#m56340fd3eb" x="243.771429" y="157.5" style="stroke: #000000; stroke-width: 0.8"/>
      </g>
     </g>
     <g id="text_3">
      <!-- $\mathdefault{0}$ -->
      <g transform="translate(240.782637 172.605484)scale(0.12 -0.12)">
       <use xlink:href="#NimbusRomNo9L-Regu-30" transform="scale(0.996264)"/>
      </g>
     </g>
    </g>
    <g id="xtick_4">
     <g id="line2d_7">
      <path d="M 42.891429 157.5 
L 42.891429 21.6 
" clip-path="url(#p25b8b8e4d7)" style="fill: none; stroke: #b0b0b0; stroke-opacity: 0.3; stroke-width: 0.8; stroke-linecap: square"/>
     </g>
     <g id="line2d_8">
      <defs>
       <path id="m2dd1605b0b" d="M 0 0 
L 0 2 
" style="stroke: #000000; stroke-width: 0.6"/>
      </defs>
      <g>
       <use xlink:href="#m2dd1605b0b" x="42.891429" y="157.5" style="stroke: #000000; stroke-width: 0.6"/>
      </g>
     </g>
    </g>
    <g id="xtick_5">
     <g id="line2d_9">
      <path d="M 57.24 157.5 
L 57.24 21.6 
" clip-path="url(#p25b8b8e4d7)" style="fill: none; stroke: #b0b0b0; stroke-opacity: 0.3; stroke-width: 0.8; stroke-linecap: square"/>
     </g>
     <g id="line2d_10">
      <g>
       <use xlink:href="#m2dd1605b0b" x="57.24" y="157.5" style="stroke: #000000; stroke-width: 0.6"/>
      </g>
     </g>
    </g>
    <g id="xtick_6">
     <g id="line2d_11">
      <path d="M 71.588571 157.5 
L 71.588571 21.6 
" clip-path="url(#p25b8b8e4d7)" style="fill: none; stroke: #b0b0b0; stroke-opacity: 0.3; stroke-width: 0.8; stroke-linecap: square"/>
     </g>
     <g id="line2d_12">
      <g>
       <use xlink:href="#m2dd1605b0b" x="71.588571" y="157.5" style="stroke: #000000; stroke-width: 0.6"/>
      </g>
     </g>
    </g>
    <g id="xtick_7">
     <g id="line2d_13">
      <path d="M 85.937143 157.5 
L 85.937143 21.6 
" clip-path="url(#p25b8b8e4d7)" style="fill: none; stroke: #b0b0b0; stroke-opacity: 0.3; stroke-width: 0.8; stroke-linecap: square"/>
     </g>
     <g id="line2d_14">
      <g>
       <use xlink:href="#m2dd1605b0b" x="85.937143" y="157.5" style="stroke: #000000; stroke-width: 0.6"/>
      </g>
     </g>
    </g>
    <g id="xtick_8">
     <g id="line2d_15">
      <path d="M 114.634286 157.5 
L 114.634286 21.6 
" clip-path="url(#p25b8b8e4d7)" style="fill: none; stroke: #b0b0b0; stroke-opacity: 0.3; stroke-width: 0.8; stroke-linecap: square"/>
     </g>
     <g id="line2d_16">
      <g>
       <use xlink:href="#m2dd1605b0b" x="114.634286" y="157.5" style="stroke: #000000; stroke-width: 0.6"/>
      </g>
     </g>
    </g>
    <g id="xtick_9">
     <g id="line2d_17">
      <path d="M 128.982857 157.5 
L 128.982857 21.6 
" clip-path="url(#p25b8b8e4d7)" style="fill: none; stroke: #b0b0b0; stroke-opacity: 0.3; stroke-width: 0.8; stroke-linecap: square"/>
     </g>
     <g id="line2d_18">
      <g>
       <use xlink:href="#m2dd1605b0b" x="128.982857" y="157.5" style="stroke: #000000; stroke-width: 0.6"/>
      </g>
     </g>
    </g>
    <g id="xtick_10">
     <g id="line2d_19">
      <path d="M 143.331429 157.5 
L 143.331429 21.6 
" clip-path="url(#p25b8b8e4d7)" style="fill: none; stroke: #b0b0b0; stroke-opacity: 0.3; stroke-width: 0.8; stroke-linecap: square"/>
     </g>
     <g id="line2d_20">
      <g>
       <use xlink:href="#m2dd1605b0b" x="143.331429" y="157.5" style="stroke: #000000; stroke-width: 0.6"/>
      </g>
     </g>
    </g>
    <g id="xtick_11">
     <g id="line2d_21">
      <path d="M 157.68 157.5 
L 157.68 21.6 
" clip-path="url(#p25b8b8e4d7)" style="fill: none; stroke: #b0b0b0; stroke-opacity: 0.3; stroke-width: 0.8; stroke-linecap: square"/>
     </g>
     <g id="line2d_22">
      <g>
       <use xlink:href="#m2dd1605b0b" x="157.68" y="157.5" style="stroke: #000000; stroke-width: 0.6"/>
      </g>
     </g>
    </g>
    <g id="xtick_12">
     <g id="line2d_23">
      <path d="M 186.377143 157.5 
L 186.377143 21.6 
" clip-path="url(#p25b8b8e4d7)" style="fill: none; stroke: #b0b0b0; stroke-opacity: 0.3; stroke-width: 0.8; stroke-linecap: square"/>
     </g>
     <g id="line2d_24">
      <g>
       <use xlink:href="#m2dd1605b0b" x="186.377143" y="157.5" style="stroke: #000000; stroke-width: 0.6"/>
      </g>
     </g>
    </g>
    <g id="xtick_13">
     <g id="line2d_25">
      <path d="M 200.725714 157.5 
L 200.725714 21.6 
" clip-path="url(#p25b8b8e4d7)" style="fill: none; stroke: #b0b0b0; stroke-opacity: 0.3; stroke-width: 0.8; stroke-linecap: square"/>
     </g>
     <g id="line2d_26">
      <g>
       <use xlink:href="#m2dd1605b0b" x="200.725714" y="157.5" style="stroke: #000000; stroke-width: 0.6"/>
      </g>
     </g>
    </g>
    <g id="xtick_14">
     <g id="line2d_27">
      <path d="M 215.074286 157.5 
L 215.074286 21.6 
" clip-path="url(#p25b8b8e4d7)" style="fill: none; stroke: #b0b0b0; stroke-opacity: 0.3; stroke-width: 0.8; stroke-linecap: square"/>
     </g>
     <g id="line2d_28">
      <g>
       <use xlink:href="#m2dd1605b0b" x="215.074286" y="157.5" style="stroke: #000000; stroke-width: 0.6"/>
      </g>
     </g>
    </g>
    <g id="xtick_15">
     <g id="line2d_29">
      <path d="M 229.422857 157.5 
L 229.422857 21.6 
" clip-path="url(#p25b8b8e4d7)" style="fill: none; stroke: #b0b0b0; stroke-opacity: 0.3; stroke-width: 0.8; stroke-linecap: square"/>
     </g>
     <g id="line2d_30">
      <g>
       <use xlink:href="#m2dd1605b0b" x="229.422857" y="157.5" style="stroke: #000000; stroke-width: 0.6"/>
      </g>
     </g>
    </g>
    <g id="xtick_16">
     <g id="line2d_31">
      <path d="M 258.12 157.5 
L 258.12 21.6 
" clip-path="url(#p25b8b8e4d7)" style="fill: none; stroke: #b0b0b0; stroke-opacity: 0.3; stroke-width: 0.8; stroke-linecap: square"/>
     </g>
     <g id="line2d_32">
      <g>
       <use xlink:href="#m2dd1605b0b" x="258.12" y="157.5" style="stroke: #000000; stroke-width: 0.6"/>
      </g>
     </g>
    </g>
    <g id="xtick_17">
     <g id="line2d_33">
      <path d="M 272.468571 157.5 
L 272.468571 21.6 
" clip-path="url(#p25b8b8e4d7)" style="fill: none; stroke: #b0b0b0; stroke-opacity: 0.3; stroke-width: 0.8; stroke-linecap: square"/>
     </g>
     <g id="line2d_34">
      <g>
       <use xlink:href="#m2dd1605b0b" x="272.468571" y="157.5" style="stroke: #000000; stroke-width: 0.6"/>
      </g>
     </g>
    </g>
    <g id="xtick_18">
     <g id="line2d_35">
      <path d="M 286.817143 157.5 
L 286.817143 21.6 
" clip-path="url(#p25b8b8e4d7)" style="fill: none; stroke: #b0b0b0; stroke-opacity: 0.3; stroke-width: 0.8; stroke-linecap: square"/>
     </g>
     <g id="line2d_36">
      <g>
       <use xlink:href="#m2dd1605b0b" x="286.817143" y="157.5" style="stroke: #000000; stroke-width: 0.6"/>
      </g>
     </g>
    </g>
    <g id="text_4">
     <!-- $z/R_t$ -->
     <g transform="translate(155.949495 188.160055)scale(0.12 -0.12)">
      <defs>
       <path id="NimbusRomNo9L-ReguItal-7a" d="M 518 1991 
C 653 2310 736 2368 1037 2368 
L 1971 2368 
L -13 -7 
L 45 -64 
C 147 19 230 51 339 51 
C 493 51 704 -32 1005 -225 
C 1325 -429 1542 -512 1722 -512 
C 2042 -512 2323 -278 2323 -13 
C 2323 121 2234 217 2099 217 
C 1971 198 1882 115 1882 0 
C 1882 -57 1901 -120 1939 -189 
C 1958 -227 1971 -265 1971 -284 
C 1971 -340 1901 -378 1798 -378 
C 1638 -378 1562 -328 1350 -63 
C 1069 301 947 385 576 469 
L 2432 2681 
L 2432 2752 
L 614 2752 
L 416 2013 
L 518 1991 
z
" transform="scale(0.015625)"/>
       <path id="CMMI10-3d" d="M 2810 4557 
C 2842 4640 2842 4665 2842 4672 
C 2842 4742 2784 4800 2714 4800 
C 2669 4800 2624 4780 2605 4742 
L 384 -1357 
C 352 -1440 352 -1466 352 -1472 
C 352 -1543 410 -1600 480 -1600 
C 563 -1600 582 -1556 621 -1447 
L 2810 4557 
z
" transform="scale(0.015625)"/>
       <path id="NimbusRomNo9L-ReguItal-52" d="M 3629 102 
C 3347 121 3219 229 3098 561 
L 2502 2121 
C 2995 2229 3206 2318 3437 2522 
C 3648 2707 3763 2955 3763 3242 
C 3763 3834 3290 4160 2432 4160 
L 845 4160 
L 845 4057 
C 1114 4019 1146 4012 1210 3967 
C 1261 3936 1299 3859 1299 3789 
C 1299 3713 1267 3560 1222 3388 
L 435 573 
C 320 198 275 159 -83 102 
L -83 0 
L 1478 0 
L 1478 102 
C 1088 153 1043 185 1043 395 
C 1043 459 1062 541 1120 764 
L 1478 2095 
L 1894 2063 
L 2682 0 
L 3629 0 
L 3629 102 
z
M 1971 3789 
C 2010 3923 2093 3967 2298 3967 
C 2829 3967 3091 3726 3091 3254 
C 3091 2624 2682 2299 1882 2299 
C 1779 2299 1709 2305 1555 2331 
L 1971 3789 
z
" transform="scale(0.015625)"/>
       <path id="NimbusRomNo9L-ReguItal-74" d="M 1894 2752 
L 1382 2752 
L 1562 3411 
C 1568 3424 1568 3436 1568 3443 
C 1568 3488 1549 3507 1517 3507 
C 1478 3507 1459 3500 1421 3449 
C 1171 3123 774 2803 570 2745 
C 410 2694 365 2655 365 2585 
C 365 2579 365 2566 371 2547 
L 845 2547 
L 384 782 
C 371 724 365 705 346 647 
C 288 454 237 230 237 179 
C 237 38 371 -64 544 -64 
C 838 -64 1050 115 1453 711 
L 1370 756 
C 1056 352 954 249 851 249 
C 794 249 755 300 755 377 
C 755 384 755 390 762 410 
L 1325 2547 
L 1862 2547 
L 1894 2752 
z
" transform="scale(0.015625)"/>
      </defs>
      <use xlink:href="#NimbusRomNo9L-ReguItal-7a" transform="scale(0.996264)"/>
      <use xlink:href="#CMMI10-3d" transform="translate(38.753706 0)scale(0.996264)"/>
      <use xlink:href="#NimbusRomNo9L-ReguItal-52" transform="translate(88.566907 0)scale(0.996264)"/>
      <use xlink:href="#NimbusRomNo9L-ReguItal-74" transform="translate(147.595458 -14.943915)scale(0.737241)"/>
     </g>
    </g>
   </g>
   <g id="matplotlib.axis_2">
    <g id="ytick_1">
     <g id="line2d_37">
      <path d="M 40.5 157.5 
L 291.6 157.5 
" clip-path="url(#p25b8b8e4d7)" style="fill: none; stroke: #b0b0b0; stroke-width: 0.8; stroke-linecap: square"/>
     </g>
     <g id="line2d_38">
      <defs>
       <path id="m65798af2ad" d="M 0 0 
L -3.5 0 
" style="stroke: #000000; stroke-width: 0.8"/>
      </defs>
      <g>
       <use xlink:href="#m65798af2ad" x="40.5" y="157.5" style="stroke: #000000; stroke-width: 0.8"/>
      </g>
     </g>
     <g id="text_5">
      <!-- 0.00 -->
      <g transform="translate(12.578456 161.552742)scale(0.12 -0.12)">
       <defs>
        <path id="NimbusRomNo9L-Regu-2e" d="M 800 646 
C 608 646 448 480 448 281 
C 448 96 608 -64 794 -64 
C 992 -64 1158 96 1158 281 
C 1158 480 992 646 800 646 
z
" transform="scale(0.015625)"/>
       </defs>
       <use xlink:href="#NimbusRomNo9L-Regu-30" transform="scale(0.996264)"/>
       <use xlink:href="#NimbusRomNo9L-Regu-2e" transform="translate(49.8132 0)scale(0.996264)"/>
       <use xlink:href="#NimbusRomNo9L-Regu-30" transform="translate(74.719801 0)scale(0.996264)"/>
       <use xlink:href="#NimbusRomNo9L-Regu-30" transform="translate(124.533001 0)scale(0.996264)"/>
      </g>
     </g>
    </g>
    <g id="ytick_2">
     <g id="line2d_39">
      <path d="M 40.5 112.2 
L 291.6 112.2 
" clip-path="url(#p25b8b8e4d7)" style="fill: none; stroke: #b0b0b0; stroke-width: 0.8; stroke-linecap: square"/>
     </g>
     <g id="line2d_40">
      <g>
       <use xlink:href="#m65798af2ad" x="40.5" y="112.2" style="stroke: #000000; stroke-width: 0.8"/>
      </g>
     </g>
     <g id="text_6">
      <!-- 0.50 -->
      <g transform="translate(12.578456 116.252742)scale(0.12 -0.12)">
       <defs>
        <path id="NimbusRomNo9L-Regu-35" d="M 1158 3718 
L 2413 3718 
C 2515 3718 2541 3731 2560 3775 
L 2803 4345 
L 2746 4390 
C 2650 4256 2586 4224 2451 4224 
L 1114 4224 
L 416 2717 
C 410 2705 410 2698 410 2686 
C 410 2654 435 2635 486 2635 
C 691 2635 947 2591 1210 2508 
C 1946 2274 2285 1882 2285 1255 
C 2285 647 1894 172 1395 172 
C 1267 172 1158 217 966 356 
C 762 502 614 565 480 565 
C 294 565 205 489 205 331 
C 205 89 506 -64 986 -64 
C 1523 -64 1984 108 2304 432 
C 2598 717 2733 1078 2733 1559 
C 2733 2015 2611 2306 2291 2622 
C 2010 2901 1645 3047 890 3180 
L 1158 3718 
z
" transform="scale(0.015625)"/>
       </defs>
       <use xlink:href="#NimbusRomNo9L-Regu-30" transform="scale(0.996264)"/>
       <use xlink:href="#NimbusRomNo9L-Regu-2e" transform="translate(49.8132 0)scale(0.996264)"/>
       <use xlink:href="#NimbusRomNo9L-Regu-35" transform="translate(74.719801 0)scale(0.996264)"/>
       <use xlink:href="#NimbusRomNo9L-Regu-30" transform="translate(124.533001 0)scale(0.996264)"/>
      </g>
     </g>
    </g>
    <g id="ytick_3">
     <g id="line2d_41">
      <path d="M 40.5 66.9 
L 291.6 66.9 
" clip-path="url(#p25b8b8e4d7)" style="fill: none; stroke: #b0b0b0; stroke-width: 0.8; stroke-linecap: square"/>
     </g>
     <g id="line2d_42">
      <g>
       <use xlink:href="#m65798af2ad" x="40.5" y="66.9" style="stroke: #000000; stroke-width: 0.8"/>
      </g>
     </g>
     <g id="text_7">
      <!-- 1.00 -->
      <g transform="translate(12.578456 70.952742)scale(0.12 -0.12)">
       <use xlink:href="#NimbusRomNo9L-Regu-31" transform="scale(0.996264)"/>
       <use xlink:href="#NimbusRomNo9L-Regu-2e" transform="translate(49.8132 0)scale(0.996264)"/>
       <use xlink:href="#NimbusRomNo9L-Regu-30" transform="translate(74.719801 0)scale(0.996264)"/>
       <use xlink:href="#NimbusRomNo9L-Regu-30" transform="translate(124.533001 0)scale(0.996264)"/>
      </g>
     </g>
    </g>
    <g id="ytick_4">
     <g id="line2d_43">
      <path d="M 40.5 21.6 
L 291.6 21.6 
" clip-path="url(#p25b8b8e4d7)" style="fill: none; stroke: #b0b0b0; stroke-width: 0.8; stroke-linecap: square"/>
     </g>
     <g id="line2d_44">
      <g>
       <use xlink:href="#m65798af2ad" x="40.5" y="21.6" style="stroke: #000000; stroke-width: 0.8"/>
      </g>
     </g>
     <g id="text_8">
      <!-- 1.50 -->
      <g transform="translate(12.578456 25.652742)scale(0.12 -0.12)">
       <use xlink:href="#NimbusRomNo9L-Regu-31" transform="scale(0.996264)"/>
       <use xlink:href="#NimbusRomNo9L-Regu-2e" transform="translate(49.8132 0)scale(0.996264)"/>
       <use xlink:href="#NimbusRomNo9L-Regu-35" transform="translate(74.719801 0)scale(0.996264)"/>
       <use xlink:href="#NimbusRomNo9L-Regu-30" transform="translate(124.533001 0)scale(0.996264)"/>
      </g>
     </g>
    </g>
    <g id="ytick_5">
     <g id="line2d_45">
      <path d="M 40.5 148.44 
L 291.6 148.44 
" clip-path="url(#p25b8b8e4d7)" style="fill: none; stroke: #b0b0b0; stroke-opacity: 0.3; stroke-width: 0.8; stroke-linecap: square"/>
     </g>
     <g id="line2d_46">
      <defs>
       <path id="maff9589c83" d="M 0 0 
L -2 0 
" style="stroke: #000000; stroke-width: 0.6"/>
      </defs>
      <g>
       <use xlink:href="#maff9589c83" x="40.5" y="148.44" style="stroke: #000000; stroke-width: 0.6"/>
      </g>
     </g>
    </g>
    <g id="ytick_6">
     <g id="line2d_47">
      <path d="M 40.5 139.38 
L 291.6 139.38 
" clip-path="url(#p25b8b8e4d7)" style="fill: none; stroke: #b0b0b0; stroke-opacity: 0.3; stroke-width: 0.8; stroke-linecap: square"/>
     </g>
     <g id="line2d_48">
      <g>
       <use xlink:href="#maff9589c83" x="40.5" y="139.38" style="stroke: #000000; stroke-width: 0.6"/>
      </g>
     </g>
    </g>
    <g id="ytick_7">
     <g id="line2d_49">
      <path d="M 40.5 130.32 
L 291.6 130.32 
" clip-path="url(#p25b8b8e4d7)" style="fill: none; stroke: #b0b0b0; stroke-opacity: 0.3; stroke-width: 0.8; stroke-linecap: square"/>
     </g>
     <g id="line2d_50">
      <g>
       <use xlink:href="#maff9589c83" x="40.5" y="130.32" style="stroke: #000000; stroke-width: 0.6"/>
      </g>
     </g>
    </g>
    <g id="ytick_8">
     <g id="line2d_51">
      <path d="M 40.5 121.26 
L 291.6 121.26 
" clip-path="url(#p25b8b8e4d7)" style="fill: none; stroke: #b0b0b0; stroke-opacity: 0.3; stroke-width: 0.8; stroke-linecap: square"/>
     </g>
     <g id="line2d_52">
      <g>
       <use xlink:href="#maff9589c83" x="40.5" y="121.26" style="stroke: #000000; stroke-width: 0.6"/>
      </g>
     </g>
    </g>
    <g id="ytick_9">
     <g id="line2d_53">
      <path d="M 40.5 103.14 
L 291.6 103.14 
" clip-path="url(#p25b8b8e4d7)" style="fill: none; stroke: #b0b0b0; stroke-opacity: 0.3; stroke-width: 0.8; stroke-linecap: square"/>
     </g>
     <g id="line2d_54">
      <g>
       <use xlink:href="#maff9589c83" x="40.5" y="103.14" style="stroke: #000000; stroke-width: 0.6"/>
      </g>
     </g>
    </g>
    <g id="ytick_10">
     <g id="line2d_55">
      <path d="M 40.5 94.08 
L 291.6 94.08 
" clip-path="url(#p25b8b8e4d7)" style="fill: none; stroke: #b0b0b0; stroke-opacity: 0.3; stroke-width: 0.8; stroke-linecap: square"/>
     </g>
     <g id="line2d_56">
      <g>
       <use xlink:href="#maff9589c83" x="40.5" y="94.08" style="stroke: #000000; stroke-width: 0.6"/>
      </g>
     </g>
    </g>
    <g id="ytick_11">
     <g id="line2d_57">
      <path d="M 40.5 85.02 
L 291.6 85.02 
" clip-path="url(#p25b8b8e4d7)" style="fill: none; stroke: #b0b0b0; stroke-opacity: 0.3; stroke-width: 0.8; stroke-linecap: square"/>
     </g>
     <g id="line2d_58">
      <g>
       <use xlink:href="#maff9589c83" x="40.5" y="85.02" style="stroke: #000000; stroke-width: 0.6"/>
      </g>
     </g>
    </g>
    <g id="ytick_12">
     <g id="line2d_59">
      <path d="M 40.5 75.96 
L 291.6 75.96 
" clip-path="url(#p25b8b8e4d7)" style="fill: none; stroke: #b0b0b0; stroke-opacity: 0.3; stroke-width: 0.8; stroke-linecap: square"/>
     </g>
     <g id="line2d_60">
      <g>
       <use xlink:href="#maff9589c83" x="40.5" y="75.96" style="stroke: #000000; stroke-width: 0.6"/>
      </g>
     </g>
    </g>
    <g id="ytick_13">
     <g id="line2d_61">
      <path d="M 40.5 57.84 
L 291.6 57.84 
" clip-path="url(#p25b8b8e4d7)" style="fill: none; stroke: #b0b0b0; stroke-opacity: 0.3; stroke-width: 0.8; stroke-linecap: square"/>
     </g>
     <g id="line2d_62">
      <g>
       <use xlink:href="#maff9589c83" x="40.5" y="57.84" style="stroke: #000000; stroke-width: 0.6"/>
      </g>
     </g>
    </g>
    <g id="ytick_14">
     <g id="line2d_63">
      <path d="M 40.5 48.78 
L 291.6 48.78 
" clip-path="url(#p25b8b8e4d7)" style="fill: none; stroke: #b0b0b0; stroke-opacity: 0.3; stroke-width: 0.8; stroke-linecap: square"/>
     </g>
     <g id="line2d_64">
      <g>
       <use xlink:href="#maff9589c83" x="40.5" y="48.78" style="stroke: #000000; stroke-width: 0.6"/>
      </g>
     </g>
    </g>
    <g id="ytick_15">
     <g id="line2d_65">
      <path d="M 40.5 39.72 
L 291.6 39.72 
" clip-path="url(#p25b8b8e4d7)" style="fill: none; stroke: #b0b0b0; stroke-opacity: 0.3; stroke-width: 0.8; stroke-linecap: square"/>
     </g>
     <g id="line2d_66">
      <g>
       <use xlink:href="#maff9589c83" x="40.5" y="39.72" style="stroke: #000000; stroke-width: 0.6"/>
      </g>
     </g>
    </g>
    <g id="ytick_16">
     <g id="line2d_67">
      <path d="M 40.5 30.66 
L 291.6 30.66 
" clip-path="url(#p25b8b8e4d7)" style="fill: none; stroke: #b0b0b0; stroke-opacity: 0.3; stroke-width: 0.8; stroke-linecap: square"/>
     </g>
     <g id="line2d_68">
      <g>
       <use xlink:href="#maff9589c83" x="40.5" y="30.66" style="stroke: #000000; stroke-width: 0.6"/>
      </g>
     </g>
    </g>
    <g id="text_9">
     <!-- $U$ [\%] -->
     <g transform="translate(5.990261 104.876399)rotate(-90)scale(0.12 -0.12)">
      <defs>
       <path id="NimbusRomNo9L-ReguItal-55" d="M 4896 4160 
L 3622 4160 
L 3622 4057 
C 3827 4038 3891 4025 3968 3974 
C 4032 3936 4077 3846 4077 3763 
C 4077 3661 3910 3009 3603 1929 
C 3578 1846 3552 1738 3520 1616 
C 3405 1201 3309 945 3168 728 
C 2918 332 2573 134 2125 134 
C 1594 134 1229 441 1229 888 
C 1229 1105 1427 1878 1856 3354 
C 1869 3399 1882 3444 1888 3476 
C 2022 3923 2125 4012 2560 4057 
L 2560 4160 
L 813 4160 
L 813 4057 
C 1242 4019 1312 3980 1312 3795 
C 1312 3719 1293 3616 1267 3508 
L 928 2281 
C 736 1591 653 1182 653 926 
C 653 313 1242 -128 2048 -128 
C 2886 -128 3418 326 3699 1284 
L 4230 3105 
C 4474 3936 4499 3968 4896 4057 
L 4896 4160 
z
" transform="scale(0.015625)"/>
       <path id="NimbusRomNo9L-Regu-5b" d="M 1914 -832 
L 1363 -832 
C 1152 -832 1050 -724 1050 -501 
L 1050 3783 
C 1050 3981 1133 4063 1338 4063 
L 1914 4063 
L 1914 4224 
L 563 4224 
L 563 -993 
L 1914 -993 
L 1914 -832 
z
" transform="scale(0.015625)"/>
       <path id="NimbusRomNo9L-Regu-25" d="M 4282 2380 
C 3558 2380 2874 1630 2874 827 
C 2874 326 3181 0 3642 0 
C 3930 0 4166 102 4390 326 
C 4730 673 4941 1193 4941 1694 
C 4941 2131 4698 2380 4282 2380 
z
M 4326 2176 
C 4570 2176 4774 1944 4774 1662 
C 4774 1296 4614 859 4371 558 
C 4166 301 3981 192 3750 192 
C 3520 192 3360 358 3360 602 
C 3360 943 3539 1469 3776 1803 
C 3949 2060 4128 2176 4326 2176 
z
M 4058 4352 
L 3808 4352 
C 3462 4017 3206 3904 2810 3904 
C 2554 3904 2406 3950 2253 4084 
C 2086 4191 2003 4224 1805 4224 
C 1075 4224 390 3487 390 2671 
C 390 2221 730 1856 1146 1856 
C 1421 1856 1709 1984 1920 2208 
C 2253 2549 2458 3056 2458 3525 
C 2458 3615 2445 3692 2413 3807 
C 2528 3763 2643 3743 2829 3743 
C 3110 3743 3277 3788 3533 3930 
L 1286 -64 
L 1594 -64 
L 4058 4352 
z
M 2240 3862 
C 2278 3733 2298 3636 2298 3546 
C 2298 2816 1773 2073 1254 2073 
C 1030 2073 877 2235 877 2467 
C 877 2738 1005 3177 1178 3500 
C 1363 3814 1606 4031 1805 4031 
C 1837 4031 1850 4025 1888 3993 
C 1978 3910 2054 3878 2240 3827 
L 2240 3862 
z
" transform="scale(0.015625)"/>
       <path id="NimbusRomNo9L-Regu-5d" d="M 218 -832 
L 218 -993 
L 1568 -993 
L 1568 4224 
L 218 4224 
L 218 4063 
L 768 4063 
C 979 4063 1082 3955 1082 3732 
L 1082 -552 
C 1082 -750 992 -832 794 -832 
L 218 -832 
z
" transform="scale(0.015625)"/>
      </defs>
      <use xlink:href="#NimbusRomNo9L-ReguItal-55" transform="scale(0.996264)"/>
      <use xlink:href="#NimbusRomNo9L-Regu-5b" transform="translate(106.10122 0)scale(0.996264)"/>
      <use xlink:href="#NimbusRomNo9L-Regu-25" transform="translate(139.27645 0)scale(0.996264)"/>
      <use xlink:href="#NimbusRomNo9L-Regu-5d" transform="translate(222.26488 0)scale(0.996264)"/>
     </g>
    </g>
   </g>
   <g id="line2d_69">
    <path d="M 243.771429 157.5 
L 243.771429 21.6 
" clip-path="url(#p25b8b8e4d7)" style="fill: none; stroke-dasharray: 2,3.3; stroke-dashoffset: 0; stroke: #000000; stroke-width: 2"/>
   </g>
   <g id="line2d_70">
    <path d="M 243.771429 157.5 
L 243.771429 21.6 
" clip-path="url(#p25b8b8e4d7)" style="fill: none; stroke-dasharray: 2,3.3; stroke-dashoffset: 0; stroke: #000000; stroke-width: 2"/>
   </g>
   <g id="line2d_71">
    <path d="M 243.771429 157.5 
L 243.771429 21.6 
" clip-path="url(#p25b8b8e4d7)" style="fill: none; stroke-dasharray: 2,3.3; stroke-dashoffset: 0; stroke: #000000; stroke-width: 2"/>
   </g>
   <g id="line2d_72">
    <path d="M 243.771429 157.5 
L 243.771429 21.6 
" clip-path="url(#p25b8b8e4d7)" style="fill: none; stroke-dasharray: 2,3.3; stroke-dashoffset: 0; stroke: #000000; stroke-width: 2"/>
   </g>
   <g id="line2d_73">
    <path d="M 243.771429 157.5 
L 243.771429 21.6 
" clip-path="url(#p25b8b8e4d7)" style="fill: none; stroke-dasharray: 2,3.3; stroke-dashoffset: 0; stroke: #000000; stroke-width: 2"/>
   </g>
   <g id="line2d_74">
    <path d="M 243.771429 157.5 
L 243.771429 21.6 
" clip-path="url(#p25b8b8e4d7)" style="fill: none; stroke-dasharray: 2,3.3; stroke-dashoffset: 0; stroke: #000000; stroke-width: 2"/>
   </g>
   <g id="line2d_75">
    <path d="M 243.771429 157.5 
L 243.771429 21.6 
" clip-path="url(#p25b8b8e4d7)" style="fill: none; stroke-dasharray: 2,3.3; stroke-dashoffset: 0; stroke: #000000; stroke-width: 2"/>
   </g>
   <g id="line2d_76">
    <path d="M 243.771429 157.5 
L 243.771429 21.6 
" clip-path="url(#p25b8b8e4d7)" style="fill: none; stroke-dasharray: 2,3.3; stroke-dashoffset: 0; stroke: #000000; stroke-width: 2"/>
   </g>
   <g id="patch_3">
    <path d="M 40.5 157.5 
L 40.5 21.6 
" style="fill: none; stroke: #000000; stroke-width: 0.75; stroke-linejoin: miter; stroke-linecap: square"/>
   </g>
   <g id="patch_4">
    <path d="M 291.6 157.5 
L 291.6 21.6 
" style="fill: none; stroke: #000000; stroke-width: 0.75; stroke-linejoin: miter; stroke-linecap: square"/>
   </g>
   <g id="patch_5">
    <path d="M 40.5 157.5 
L 291.6 157.5 
" style="fill: none; stroke: #000000; stroke-width: 0.75; stroke-linejoin: miter; stroke-linecap: square"/>
   </g>
   <g id="patch_6">
    <path d="M 40.5 21.6 
L 291.6 21.6 
" style="fill: none; stroke: #000000; stroke-width: 0.75; stroke-linejoin: miter; stroke-linecap: square"/>
   </g>
   <g id="line2d_77">
    <path d="M 306.005966 157.153546 
L 290.021657 156.95794 
L 277.323171 156.525144 
L 271.985503 156.142812 
L 267.228951 155.648136 
L 262.988949 154.873506 
L 259.2081 153.813486 
L 255.836186 152.162754 
L 252.837334 149.908626 
L 250.154151 146.61894 
L 247.772289 142.5963 
L 245.641526 137.2056 
L 243.747514 129.57708 
L 241.38 110.6145 
L 238.940743 81.74028 
L 236.573229 76.52172 
L 234.205714 72.77994 
L 231.766457 70.90452 
L 229.398943 69.94416 
L 227.031429 69.33714 
L 222.224657 68.4855 
L 217.417886 67.99626 
L 210.2436 67.60668 
L 198.334286 67.33488 
L 179.178943 67.04721 
L 174.372171 67.145612 
L 167.197886 66.9655 
L 157.656086 66.999186 
L 150.4818 66.760821 
L 148.114286 66.765073 
L 143.307514 67.038585 
L 138.500743 67.000733 
L 136.133229 66.845989 
L 133.765714 66.562206 
L 132.115629 66.135975 
L 131.326457 66.053784 
L 129.748114 66.32627 
L 127.3806 66.794986 
L 122.573829 66.7463 
L 120.206314 66.688179 
L 117.767057 66.278798 
L 116.977886 66.22879 
L 115.399543 66.472532 
L 114.610371 66.651507 
L 102.629314 66.913182 
L 93.087514 66.944584 
L 83.545714 67.017244 
L 66.757886 67.19898 
L 50.0418 67.55232 
L 40.5 67.93284 
L 33.325714 68.3949 
L 28.518943 68.8479 
L 26.151429 69.21936 
L 23.712171 69.44586 
L 21.344657 70.10724 
L 18.977143 70.14348 
L 16.537886 71.60214 
L 14.170371 70.36092 
L 11.802857 74.7369 
L 9.3636 66.5376 
L 6.996086 80.19102 
L 4.628571 73.70406 
L 4.628571 73.70406 
" clip-path="url(#p25b8b8e4d7)" style="fill: none; stroke: #0000ff; stroke-width: 2; stroke-linecap: square"/>
   </g>
   <g id="line2d_78">
    <path d="M 306.005966 157.767451 
L 290.021657 157.928991 
L 277.323171 158.271912 
L 262.988949 158.82729 
L 259.2081 158.808264 
L 255.836186 158.309058 
L 252.837334 157.2976 
L 250.154151 155.267616 
L 247.772289 152.58042 
L 245.641526 148.455402 
L 243.747514 143.52042 
L 241.38 129.47742 
L 238.940743 99.29856 
L 236.573229 93.33708 
L 234.205714 90.37446 
L 231.766457 89.56812 
L 229.398943 89.74932 
L 224.592171 90.62814 
L 219.857143 91.2261 
L 215.050371 91.55226 
L 207.876086 91.75158 
L 186.353229 91.80594 
L 152.849314 91.73427 
L 148.114286 91.622937 
L 143.307514 91.633684 
L 140.94 91.438392 
L 133.765714 90.336953 
L 132.976543 90.104505 
L 130.537286 89.89828 
L 129.748114 89.823303 
L 128.241514 89.447092 
L 126.591429 89.400631 
L 124.941343 89.652114 
L 122.573829 89.582097 
L 118.627971 88.898466 
L 116.977886 89.029502 
L 116.188714 89.320766 
L 114.610371 90.325063 
L 112.242857 90.60964 
L 107.436086 91.619048 
L 105.068571 91.922447 
L 102.629314 92.044332 
L 97.894286 91.884107 
L 93.087514 91.761423 
L 85.913229 92.236009 
L 83.545714 92.139693 
L 81.106457 91.87077 
L 78.738943 92.198223 
L 73.932171 92.1774 
L 52.409314 92.60322 
L 40.5 93.04716 
L 33.325714 93.42768 
L 28.518943 93.79008 
L 23.712171 94.33368 
L 21.344657 94.97694 
L 18.977143 95.3031 
L 16.537886 96.97014 
L 14.170371 96.3903 
L 11.802857 101.97126 
L 9.3636 90.51036 
L 6.996086 106.00296 
L 4.628571 97.01544 
L 4.628571 97.01544 
" clip-path="url(#p25b8b8e4d7)" style="fill: none; stroke-dasharray: 7.4,3.2; stroke-dashoffset: 0; stroke: #0000ff; stroke-width: 2"/>
   </g>
   <g id="line2d_79">
    <path d="M 306.005966 157.20247 
L 283.306526 156.823943 
L 277.323171 156.646276 
L 267.228951 155.888226 
L 262.988949 155.178828 
L 259.2081 154.30635 
L 255.836186 152.774304 
L 252.837334 150.72765 
L 250.154151 147.28032 
L 247.772289 143.07648 
L 245.641526 139.94172 
L 243.747514 137.59518 
L 241.38 123.8874 
L 238.940743 91.9962 
L 236.573229 89.62248 
L 234.205714 87.8739 
L 231.766457 87.27594 
L 222.224657 85.72668 
L 217.417886 85.26462 
L 212.682857 85.00188 
L 203.069314 84.7482 
L 179.178943 84.472847 
L 172.004657 84.445418 
L 140.94 83.919097 
L 133.765714 83.515425 
L 131.326457 83.082154 
L 128.958943 82.913087 
L 121.784657 82.957641 
L 118.627971 83.090402 
L 115.399543 83.493982 
L 114.610371 83.619618 
L 109.8036 83.826847 
L 102.629314 84.137421 
L 95.455029 84.182498 
L 81.106457 84.240924 
L 66.757886 84.33144 
L 38.060743 84.6576 
L 28.518943 85.01094 
L 23.712171 85.32804 
L 18.977143 85.80822 
L 14.170371 86.49678 
L 11.802857 87.1944 
L 9.3636 87.5568 
L 6.996086 89.53188 
L 4.628571 86.99508 
L 4.628571 86.99508 
" clip-path="url(#p25b8b8e4d7)" style="fill: none; stroke: #ffa500; stroke-width: 2; stroke-linecap: square"/>
   </g>
   <g id="line2d_80">
    <path d="M 306.005966 157.706659 
L 297.554657 157.712095 
L 277.323171 158.139998 
L 271.985503 158.281153 
L 267.228951 158.526498 
L 259.2081 158.575422 
L 255.836186 157.967949 
L 252.837334 156.897057 
L 250.154151 154.407822 
L 243.747514 146.32902 
L 241.38 132.11388 
L 238.940743 100.70286 
L 236.573229 96.1185 
L 234.205714 93.3099 
L 231.766457 92.53074 
L 229.398943 92.55792 
L 222.224657 93.22836 
L 215.050371 93.5364 
L 205.508571 93.59076 
L 145.675029 93.342339 
L 140.94 93.006327 
L 133.765714 92.234062 
L 132.115629 91.836806 
L 129.748114 91.49316 
L 126.591429 91.265689 
L 121.784657 91.178895 
L 118.627971 91.32187 
L 116.188714 91.608621 
L 114.610371 92.020108 
L 112.242857 92.157319 
L 105.068571 92.987557 
L 100.2618 93.272232 
L 83.545714 93.469259 
L 81.106457 93.403018 
L 76.371429 93.47298 
L 23.712171 93.8988 
L 18.977143 94.28838 
L 16.537886 94.75044 
L 14.170371 95.3484 
L 11.802857 96.58962 
L 9.3636 97.73118 
L 6.996086 100.45824 
L 4.628571 98.22042 
L 4.628571 98.22042 
" clip-path="url(#p25b8b8e4d7)" style="fill: none; stroke-dasharray: 7.4,3.2; stroke-dashoffset: 0; stroke: #ffa500; stroke-width: 2"/>
   </g>
   <g id="line2d_81">
    <path d="M 306.005966 157.072187 
L 290.021657 156.844328 
L 277.323171 156.359346 
L 271.985503 155.945304 
L 267.228951 155.38902 
L 262.988949 154.543722 
L 259.2081 153.328776 
L 255.836186 151.331952 
L 252.837334 148.24974 
L 250.154151 143.74692 
L 247.772289 137.85792 
L 245.641526 135.23052 
L 243.747514 130.70052 
L 241.38 110.09808 
L 238.940743 78.61458 
L 236.573229 74.04834 
L 234.205714 72.12762 
L 231.766457 71.5206 
L 224.592171 70.4334 
L 219.857143 69.76296 
L 215.050371 69.35526 
L 207.876086 69.02004 
L 195.895029 68.74824 
L 162.462857 68.458317 
L 157.656086 68.429188 
L 148.114286 68.144133 
L 140.94 68.470616 
L 136.133229 68.260062 
L 133.765714 67.963144 
L 132.115629 67.467954 
L 131.326457 67.345904 
L 129.748114 67.576465 
L 127.3806 68.091128 
L 120.206314 67.943783 
L 117.767057 67.493109 
L 116.977886 67.441604 
L 115.399543 67.715455 
L 114.610371 67.924324 
L 102.629314 68.310979 
L 93.087514 68.323253 
L 83.545714 68.408147 
L 73.932171 68.49456 
L 57.216086 68.712 
L 42.867514 69.12876 
L 35.693229 69.51834 
L 28.518943 70.1163 
L 26.151429 70.48776 
L 23.712171 70.7052 
L 21.344657 71.34846 
L 18.977143 71.35752 
L 16.537886 72.76182 
L 14.170371 71.45718 
L 11.802857 75.7788 
L 9.3636 67.50702 
L 6.996086 81.1242 
L 4.628571 74.4651 
L 4.628571 74.4651 
" clip-path="url(#p25b8b8e4d7)" style="fill: none; stroke: #000000; stroke-width: 2; stroke-linecap: square"/>
   </g>
   <g id="line2d_82">
    <path d="M 306.005966 157.739818 
L 290.021657 157.9077 
L 277.323171 158.287586 
L 262.988949 158.906112 
L 259.2081 158.803734 
L 255.836186 158.005186 
L 252.837334 156.209856 
L 250.154151 153.012582 
L 247.772289 148.712706 
L 245.641526 145.91226 
L 243.747514 142.2792 
L 241.38 122.17506 
L 238.940743 84.03246 
L 236.573229 74.25672 
L 234.205714 70.18878 
L 231.766457 68.92038 
L 229.398943 68.79354 
L 222.224657 69.38244 
L 215.050371 69.63612 
L 205.508571 69.63612 
L 176.811429 69.496189 
L 172.004657 69.455059 
L 167.197886 69.348652 
L 155.288571 69.43159 
L 148.114286 69.317839 
L 143.307514 69.367747 
L 140.94 69.166823 
L 136.133229 68.395358 
L 133.765714 67.968875 
L 132.976543 67.690603 
L 130.537286 67.374821 
L 129.748114 67.281477 
L 128.241514 66.893252 
L 126.591429 66.848523 
L 124.941343 67.08627 
L 122.573829 66.993326 
L 118.627971 66.41658 
L 116.977886 66.582791 
L 116.188714 66.884797 
L 114.610371 67.909774 
L 112.242857 68.20137 
L 107.436086 69.239612 
L 105.068571 69.552393 
L 102.629314 69.676304 
L 97.894286 69.497638 
L 93.087514 69.351538 
L 85.913229 69.837312 
L 83.545714 69.738421 
L 81.106457 69.457886 
L 78.738943 69.804109 
L 73.932171 69.79014 
L 54.848571 70.18878 
L 42.867514 70.6146 
L 30.886457 71.30316 
L 26.151429 71.75616 
L 23.712171 71.99172 
L 21.344657 72.61686 
L 18.977143 72.96114 
L 16.537886 74.6916 
L 14.170371 74.29296 
L 11.802857 80.23632 
L 9.3636 69.3915 
L 6.996086 85.49112 
L 4.628571 76.58514 
L 4.628571 76.58514 
" clip-path="url(#p25b8b8e4d7)" style="fill: none; stroke-dasharray: 7.4,3.2; stroke-dashoffset: 0; stroke: #000000; stroke-width: 2"/>
   </g>
   <g id="line2d_83">
    <path d="M 306.005966 156.976513 
L 290.021657 156.692029 
L 277.323171 156.101136 
L 271.985503 155.584716 
L 267.228951 154.898874 
L 262.988949 153.82164 
L 259.2081 152.209866 
L 255.836186 149.59062 
L 252.837334 145.12404 
L 250.154151 138.64614 
L 247.772289 130.82736 
L 245.641526 126.81378 
L 243.747514 122.80926 
L 241.38 95.7561 
L 238.940743 60.8298 
L 236.573229 57.2964 
L 234.205714 55.4844 
L 231.766457 54.669 
L 219.857143 51.5886 
L 217.417886 51.1356 
L 210.2436 50.4108 
L 205.508571 50.139 
L 191.16 49.686 
L 181.546457 49.630628 
L 179.178943 49.470098 
L 176.811429 49.594437 
L 172.004657 49.474901 
L 167.197886 49.336876 
L 157.656086 49.42431 
L 148.114286 49.11121 
L 140.94 49.500125 
L 136.133229 49.387519 
L 133.765714 49.119104 
L 132.115629 48.605284 
L 131.326457 48.451135 
L 130.537286 48.482092 
L 126.591429 49.175772 
L 124.941343 49.167096 
L 123.363 49.090523 
L 120.995486 49.07033 
L 119.417143 48.80202 
L 117.767057 48.513551 
L 116.977886 48.459382 
L 115.399543 48.710754 
L 114.610371 48.896997 
L 102.629314 49.190007 
L 93.087514 49.233844 
L 85.913229 49.329455 
L 78.738943 49.328912 
L 73.932171 49.4142 
L 66.757886 49.5048 
L 59.5836 49.686 
L 54.848571 49.7766 
L 38.060743 50.5014 
L 28.518943 51.3168 
L 26.151429 51.7698 
L 23.712171 52.0416 
L 21.344657 52.6758 
L 18.977143 52.7664 
L 16.537886 54.1254 
L 14.170371 52.9476 
L 11.802857 57.1152 
L 9.3636 49.3236 
L 6.996086 62.5512 
L 4.628571 56.5716 
L 4.628571 56.5716 
" clip-path="url(#p25b8b8e4d7)" style="fill: none; stroke: #ff0000; stroke-width: 2; stroke-linecap: square"/>
   </g>
   <g id="line2d_84">
    <path d="M 306.005966 157.754314 
L 297.554657 157.788017 
L 283.306526 158.113634 
L 262.988949 159.07644 
L 259.2081 158.883462 
L 255.836186 157.733476 
L 252.837334 155.098194 
L 250.154151 150.565476 
L 245.641526 139.5159 
L 243.747514 135.79224 
L 241.38 107.1264 
L 238.940743 61.3734 
L 236.573229 49.5954 
L 234.205714 44.25 
L 231.766457 42.6192 
L 229.398943 42.5286 
L 224.592171 42.9816 
L 215.050371 42.891 
L 193.527514 42.1662 
L 181.546457 42.10712 
L 179.178943 41.887561 
L 174.372171 42.071914 
L 164.830371 41.884513 
L 155.288571 41.937187 
L 148.114286 41.870607 
L 143.307514 41.988473 
L 140.94 41.838524 
L 136.133229 41.202532 
L 133.765714 40.838567 
L 132.976543 40.604162 
L 128.958943 39.911853 
L 128.241514 39.729921 
L 126.591429 39.680299 
L 124.941343 39.928953 
L 122.573829 39.780075 
L 118.627971 39.082467 
L 116.977886 39.21045 
L 116.188714 39.484945 
L 114.610371 40.431967 
L 112.242857 40.701678 
L 107.436086 41.668742 
L 105.068571 41.965799 
L 102.629314 42.090276 
L 97.894286 41.945719 
L 93.087514 41.825339 
L 83.545714 42.213141 
L 81.106457 41.953142 
L 78.738943 42.238927 
L 64.390371 42.438 
L 42.867514 43.344 
L 28.518943 44.5218 
L 23.712171 45.0654 
L 21.344657 45.6996 
L 18.977143 46.1526 
L 16.537886 47.9646 
L 14.170371 47.7834 
L 11.802857 53.763 
L 9.3636 44.0688 
L 6.996086 60.7392 
L 4.628571 52.857 
L 4.628571 52.857 
" clip-path="url(#p25b8b8e4d7)" style="fill: none; stroke-dasharray: 7.4,3.2; stroke-dashoffset: 0; stroke: #ff0000; stroke-width: 2"/>
   </g>
   <g id="legend_1">
    <g id="patch_7">
     <path d="M 47.5 152.5 
L 305.644215 152.5 
Q 307.644215 152.5 307.644215 150.5 
L 307.644215 94.872684 
Q 307.644215 92.872684 305.644215 92.872684 
L 47.5 92.872684 
Q 45.5 92.872684 45.5 94.872684 
L 45.5 150.5 
Q 45.5 152.5 47.5 152.5 
z
" style="fill: #ffffff; opacity: 0.8; stroke: #cccccc; stroke-linejoin: miter"/>
    </g>
    <g id="line2d_85">
     <path d="M 49.5 100.372684 
L 59.5 100.372684 
L 69.5 100.372684 
" style="fill: none; stroke: #0000ff; stroke-width: 2; stroke-linecap: square"/>
    </g>
    <g id="text_10">
     <!-- $U_B$, EP, EL, SG -->
     <g transform="translate(77.5 103.872684)scale(0.1 -0.1)">
      <defs>
       <path id="NimbusRomNo9L-ReguItal-42" d="M -51 0 
L 1754 0 
C 2758 0 3450 523 3450 1274 
C 3450 1510 3373 1732 3232 1872 
C 3104 2019 2976 2095 2643 2235 
C 3098 2344 3283 2420 3488 2598 
C 3667 2751 3763 2968 3763 3222 
C 3763 3827 3309 4160 2483 4160 
L 832 4160 
L 832 4057 
C 1229 4025 1325 3974 1325 3795 
C 1325 3700 1299 3541 1254 3388 
L 467 574 
C 352 204 307 166 -51 102 
L -51 0 
z
M 1523 2108 
C 1939 2108 2208 2083 2336 2032 
C 2598 1923 2758 1643 2758 1299 
C 2758 612 2285 192 1504 192 
C 1235 192 1094 287 1094 459 
C 1094 535 1171 841 1318 1350 
C 1402 1637 1440 1783 1523 2108 
z
M 2003 3789 
C 2042 3929 2118 3967 2368 3967 
C 2880 3967 3117 3751 3117 3280 
C 3117 2917 2963 2637 2688 2484 
C 2470 2356 2163 2312 1587 2312 
L 2003 3789 
z
" transform="scale(0.015625)"/>
       <path id="NimbusRomNo9L-Regu-2c" d="M 531 -890 
C 960 -679 1248 -289 1248 96 
C 1248 416 1024 665 736 665 
C 512 665 358 518 358 300 
C 358 57 506 -64 736 -64 
C 774 -64 819 -58 858 -52 
C 902 0 902 0 909 0 
C 960 0 998 -39 998 -90 
C 998 -295 819 -532 474 -769 
L 531 -890 
z
" transform="scale(0.015625)"/>
       <path id="NimbusRomNo9L-Regu-45" d="M 3821 1087 
L 3642 1087 
C 3322 391 3046 236 2131 236 
L 1958 236 
C 1645 236 1376 269 1331 314 
C 1299 333 1286 404 1286 513 
L 1286 2105 
L 2272 2105 
C 2797 2105 2893 2021 2976 1487 
L 3123 1487 
L 3123 2966 
L 2976 2966 
C 2931 2708 2906 2613 2835 2525 
C 2752 2418 2573 2368 2272 2368 
L 1286 2368 
L 1286 3766 
C 1286 3942 1325 3980 1498 3980 
L 2362 3980 
C 3085 3980 3226 3886 3334 3319 
L 3494 3319 
L 3475 4224 
L 77 4224 
L 77 4102 
C 550 4064 634 3975 634 3528 
L 634 695 
C 634 249 544 153 77 121 
L 77 0 
L 3533 0 
L 3821 1087 
z
" transform="scale(0.015625)"/>
       <path id="NimbusRomNo9L-Regu-50" d="M 1293 1875 
C 1459 1862 1568 1855 1734 1855 
C 2234 1855 2579 1919 2854 2073 
C 3238 2276 3469 2661 3469 3077 
C 3469 3343 3379 3583 3206 3766 
C 2950 4044 2394 4224 1792 4224 
L 102 4224 
L 102 4102 
C 576 4051 640 3987 640 3528 
L 640 765 
C 640 230 589 166 102 121 
L 102 0 
L 1894 0 
L 1894 121 
C 1389 140 1293 230 1293 695 
L 1293 1875 
z
M 1293 3772 
C 1293 3942 1338 3987 1510 3987 
C 2374 3987 2771 3690 2771 3040 
C 2771 2427 2394 2112 1658 2112 
C 1530 2112 1440 2118 1293 2130 
L 1293 3772 
z
" transform="scale(0.015625)"/>
       <path id="NimbusRomNo9L-Regu-4c" d="M 3667 1110 
C 3558 868 3469 721 3373 613 
C 3149 364 2797 249 2266 249 
L 1837 249 
C 1370 249 1286 287 1286 511 
L 1286 3528 
C 1286 3981 1376 4070 1882 4102 
L 1882 4224 
L 77 4224 
L 77 4102 
C 550 4064 634 3974 634 3528 
L 634 696 
C 634 249 544 153 77 121 
L 77 0 
L 3520 0 
L 3827 1113 
L 3667 1110 
z
" transform="scale(0.015625)"/>
       <path id="NimbusRomNo9L-Regu-53" d="M 2861 4313 
L 2726 4313 
C 2701 4166 2630 4095 2522 4095 
C 2458 4095 2349 4121 2240 4172 
C 2003 4300 1766 4352 1562 4352 
C 1286 4352 1005 4243 794 4057 
C 570 3859 454 3590 454 3257 
C 454 2745 736 2387 1453 2009 
C 1914 1766 2246 1504 2406 1260 
C 2464 1177 2496 1043 2496 889 
C 2496 460 2176 166 1709 166 
C 1139 166 736 518 416 1299 
L 269 1299 
L 461 -58 
L 602 -58 
C 608 38 685 128 781 128 
C 851 128 960 102 1082 57 
C 1325 -13 1581 -64 1837 -64 
C 2573 -64 3142 441 3142 1100 
C 3142 1625 2790 2041 1946 2496 
C 1274 2867 1005 3148 1005 3494 
C 1005 3846 1274 4089 1670 4089 
C 1958 4089 2227 3968 2451 3737 
C 2650 3533 2739 3366 2842 2988 
L 3002 2988 
L 2861 4313 
z
" transform="scale(0.015625)"/>
       <path id="NimbusRomNo9L-Regu-47" d="M 4538 2291 
L 2906 2291 
L 2906 2176 
C 3181 2156 3258 2137 3334 2086 
C 3430 2028 3469 1881 3469 1606 
L 3469 569 
C 3469 364 3078 192 2618 192 
C 1574 192 934 921 934 2112 
C 934 2713 1114 3296 1395 3609 
C 1677 3923 2074 4095 2509 4095 
C 2867 4095 3181 3974 3430 3744 
C 3622 3565 3725 3392 3885 3001 
L 4032 3001 
L 3981 4352 
L 3840 4352 
C 3802 4230 3686 4140 3552 4140 
C 3488 4140 3386 4159 3270 4204 
C 2982 4300 2688 4352 2400 4352 
C 1120 4352 205 3411 205 2105 
C 205 1478 378 998 736 620 
C 1165 179 1779 -64 2483 -64 
C 3034 -64 3834 160 4090 384 
L 4090 1683 
C 4090 2060 4166 2144 4538 2176 
L 4538 2291 
z
" transform="scale(0.015625)"/>
      </defs>
      <use xlink:href="#NimbusRomNo9L-ReguItal-55" transform="scale(0.996264)"/>
      <use xlink:href="#NimbusRomNo9L-ReguItal-42" transform="translate(69.43937 -14.943915)scale(0.737241)"/>
      <use xlink:href="#NimbusRomNo9L-Regu-2c" transform="translate(114.982846 0)scale(0.996264)"/>
      <use xlink:href="#NimbusRomNo9L-Regu-45" transform="translate(164.796047 0)scale(0.996264)"/>
      <use xlink:href="#NimbusRomNo9L-Regu-50" transform="translate(225.667677 0)scale(0.996264)"/>
      <use xlink:href="#NimbusRomNo9L-Regu-2c" transform="translate(270.000909 0)scale(0.996264)"/>
      <use xlink:href="#NimbusRomNo9L-Regu-45" transform="translate(319.81411 0)scale(0.996264)"/>
      <use xlink:href="#NimbusRomNo9L-Regu-4c" transform="translate(380.68574 0)scale(0.996264)"/>
      <use xlink:href="#NimbusRomNo9L-Regu-2c" transform="translate(441.557371 0)scale(0.996264)"/>
      <use xlink:href="#NimbusRomNo9L-Regu-53" transform="translate(491.370571 0)scale(0.996264)"/>
      <use xlink:href="#NimbusRomNo9L-Regu-47" transform="translate(546.762248 0)scale(0.996264)"/>
     </g>
    </g>
    <g id="line2d_86">
     <path d="M 49.5 114.529513 
L 59.5 114.529513 
L 69.5 114.529513 
" style="fill: none; stroke-dasharray: 7.4,3.2; stroke-dashoffset: 0; stroke: #0000ff; stroke-width: 2"/>
    </g>
    <g id="text_11">
     <!-- $U_A$, EP, EL, SG -->
     <g transform="translate(77.5 118.029513)scale(0.1 -0.1)">
      <defs>
       <path id="NimbusRomNo9L-ReguItal-41" d="M 3610 102 
C 3245 134 3206 185 3123 647 
L 2522 4288 
L 2355 4288 
L 499 1066 
C -7 223 -71 153 -327 102 
L -327 0 
L 870 0 
L 870 102 
C 544 134 493 166 493 324 
C 493 444 512 501 621 717 
L 986 1433 
L 2394 1433 
L 2522 603 
C 2528 546 2534 489 2534 438 
C 2534 197 2445 140 2035 102 
L 2035 0 
L 3610 0 
L 3610 102 
z
M 1120 1664 
L 2080 3345 
L 2362 1664 
L 1120 1664 
z
" transform="scale(0.015625)"/>
      </defs>
      <use xlink:href="#NimbusRomNo9L-ReguItal-55" transform="scale(0.996264)"/>
      <use xlink:href="#NimbusRomNo9L-ReguItal-41" transform="translate(69.43937 -15.270966)scale(0.737241)"/>
      <use xlink:href="#NimbusRomNo9L-Regu-2c" transform="translate(114.982846 0)scale(0.996264)"/>
      <use xlink:href="#NimbusRomNo9L-Regu-45" transform="translate(164.796047 0)scale(0.996264)"/>
      <use xlink:href="#NimbusRomNo9L-Regu-50" transform="translate(225.667677 0)scale(0.996264)"/>
      <use xlink:href="#NimbusRomNo9L-Regu-2c" transform="translate(270.000909 0)scale(0.996264)"/>
      <use xlink:href="#NimbusRomNo9L-Regu-45" transform="translate(319.81411 0)scale(0.996264)"/>
      <use xlink:href="#NimbusRomNo9L-Regu-4c" transform="translate(380.68574 0)scale(0.996264)"/>
      <use xlink:href="#NimbusRomNo9L-Regu-2c" transform="translate(441.557371 0)scale(0.996264)"/>
      <use xlink:href="#NimbusRomNo9L-Regu-53" transform="translate(491.370571 0)scale(0.996264)"/>
      <use xlink:href="#NimbusRomNo9L-Regu-47" transform="translate(546.762248 0)scale(0.996264)"/>
     </g>
    </g>
    <g id="line2d_87">
     <path d="M 49.5 128.686342 
L 59.5 128.686342 
L 69.5 128.686342 
" style="fill: none; stroke: #ffa500; stroke-width: 2; stroke-linecap: square"/>
    </g>
    <g id="text_12">
     <!-- $U_B$, VP, EL, SG, LT -->
     <g transform="translate(77.5 132.186342)scale(0.1 -0.1)">
      <defs>
       <path id="NimbusRomNo9L-Regu-56" d="M 4461 4224 
L 3149 4224 
L 3149 4102 
C 3501 4083 3616 4013 3616 3835 
C 3616 3733 3571 3561 3494 3370 
L 2554 1032 
L 1587 3185 
C 1376 3650 1325 3796 1325 3892 
C 1325 4013 1414 4077 1619 4089 
C 1645 4089 1715 4095 1805 4102 
L 1805 4224 
L 102 4224 
L 102 4102 
C 416 4089 506 4000 781 3433 
L 2355 -64 
L 2451 -64 
L 3872 3510 
C 4083 4013 4154 4083 4461 4102 
L 4461 4224 
z
" transform="scale(0.015625)"/>
       <path id="NimbusRomNo9L-Regu-54" d="M 1626 3955 
L 1626 765 
C 1626 223 1555 153 1024 121 
L 1024 0 
L 2893 0 
L 2893 121 
C 2368 147 2278 230 2278 695 
L 2278 3955 
L 2624 3955 
C 3354 3955 3494 3840 3642 3138 
L 3795 3138 
L 3757 4224 
L 147 4224 
L 109 3138 
L 262 3138 
C 416 3834 563 3955 1280 3955 
L 1626 3955 
z
" transform="scale(0.015625)"/>
      </defs>
      <use xlink:href="#NimbusRomNo9L-ReguItal-55" transform="scale(0.996264)"/>
      <use xlink:href="#NimbusRomNo9L-ReguItal-42" transform="translate(69.43937 -14.943915)scale(0.737241)"/>
      <use xlink:href="#NimbusRomNo9L-Regu-2c" transform="translate(114.982846 0)scale(0.996264)"/>
      <use xlink:href="#NimbusRomNo9L-Regu-56" transform="translate(164.796047 0)scale(0.996264)"/>
      <use xlink:href="#NimbusRomNo9L-Regu-50" transform="translate(236.726032 0)scale(0.996264)"/>
      <use xlink:href="#NimbusRomNo9L-Regu-2c" transform="translate(281.059263 0)scale(0.996264)"/>
      <use xlink:href="#NimbusRomNo9L-Regu-45" transform="translate(330.872464 0)scale(0.996264)"/>
      <use xlink:href="#NimbusRomNo9L-Regu-4c" transform="translate(391.744094 0)scale(0.996264)"/>
      <use xlink:href="#NimbusRomNo9L-Regu-2c" transform="translate(452.615725 0)scale(0.996264)"/>
      <use xlink:href="#NimbusRomNo9L-Regu-53" transform="translate(502.428926 0)scale(0.996264)"/>
      <use xlink:href="#NimbusRomNo9L-Regu-47" transform="translate(557.820603 0)scale(0.996264)"/>
      <use xlink:href="#NimbusRomNo9L-Regu-2c" transform="translate(629.750587 0)scale(0.996264)"/>
      <use xlink:href="#NimbusRomNo9L-Regu-4c" transform="translate(679.563788 0)scale(0.996264)"/>
      <use xlink:href="#NimbusRomNo9L-Regu-54" transform="translate(731.270538 0)scale(0.996264)"/>
     </g>
    </g>
    <g id="line2d_88">
     <path d="M 49.5 142.843171 
L 59.5 142.843171 
L 69.5 142.843171 
" style="fill: none; stroke-dasharray: 7.4,3.2; stroke-dashoffset: 0; stroke: #ffa500; stroke-width: 2"/>
    </g>
    <g id="text_13">
     <!-- $U_A$, VP, EL, SG, LT -->
     <g transform="translate(77.5 146.343171)scale(0.1 -0.1)">
      <use xlink:href="#NimbusRomNo9L-ReguItal-55" transform="scale(0.996264)"/>
      <use xlink:href="#NimbusRomNo9L-ReguItal-41" transform="translate(69.43937 -15.270966)scale(0.737241)"/>
      <use xlink:href="#NimbusRomNo9L-Regu-2c" transform="translate(114.982846 0)scale(0.996264)"/>
      <use xlink:href="#NimbusRomNo9L-Regu-56" transform="translate(164.796047 0)scale(0.996264)"/>
      <use xlink:href="#NimbusRomNo9L-Regu-50" transform="translate(236.726032 0)scale(0.996264)"/>
      <use xlink:href="#NimbusRomNo9L-Regu-2c" transform="translate(281.059263 0)scale(0.996264)"/>
      <use xlink:href="#NimbusRomNo9L-Regu-45" transform="translate(330.872464 0)scale(0.996264)"/>
      <use xlink:href="#NimbusRomNo9L-Regu-4c" transform="translate(391.744094 0)scale(0.996264)"/>
      <use xlink:href="#NimbusRomNo9L-Regu-2c" transform="translate(452.615725 0)scale(0.996264)"/>
      <use xlink:href="#NimbusRomNo9L-Regu-53" transform="translate(502.428926 0)scale(0.996264)"/>
      <use xlink:href="#NimbusRomNo9L-Regu-47" transform="translate(557.820603 0)scale(0.996264)"/>
      <use xlink:href="#NimbusRomNo9L-Regu-2c" transform="translate(629.750587 0)scale(0.996264)"/>
      <use xlink:href="#NimbusRomNo9L-Regu-4c" transform="translate(679.563788 0)scale(0.996264)"/>
      <use xlink:href="#NimbusRomNo9L-Regu-54" transform="translate(731.270538 0)scale(0.996264)"/>
     </g>
    </g>
    <g id="line2d_89">
     <path d="M 177.162447 100.372684 
L 187.162447 100.372684 
L 197.162447 100.372684 
" style="fill: none; stroke: #000000; stroke-width: 2; stroke-linecap: square"/>
    </g>
    <g id="text_14">
     <!-- $U_B$, EPVP, EL, SG, LT -->
     <g transform="translate(205.162447 103.872684)scale(0.1 -0.1)">
      <use xlink:href="#NimbusRomNo9L-ReguItal-55" transform="scale(0.996264)"/>
      <use xlink:href="#NimbusRomNo9L-ReguItal-42" transform="translate(69.43937 -14.943915)scale(0.737241)"/>
      <use xlink:href="#NimbusRomNo9L-Regu-2c" transform="translate(114.982846 0)scale(0.996264)"/>
      <use xlink:href="#NimbusRomNo9L-Regu-45" transform="translate(164.796047 0)scale(0.996264)"/>
      <use xlink:href="#NimbusRomNo9L-Regu-50" transform="translate(225.667677 0)scale(0.996264)"/>
      <use xlink:href="#NimbusRomNo9L-Regu-56" transform="translate(281.059354 0)scale(0.996264)"/>
      <use xlink:href="#NimbusRomNo9L-Regu-50" transform="translate(352.989339 0)scale(0.996264)"/>
      <use xlink:href="#NimbusRomNo9L-Regu-2c" transform="translate(397.322571 0)scale(0.996264)"/>
      <use xlink:href="#NimbusRomNo9L-Regu-45" transform="translate(447.135771 0)scale(0.996264)"/>
      <use xlink:href="#NimbusRomNo9L-Regu-4c" transform="translate(508.007402 0)scale(0.996264)"/>
      <use xlink:href="#NimbusRomNo9L-Regu-2c" transform="translate(568.879033 0)scale(0.996264)"/>
      <use xlink:href="#NimbusRomNo9L-Regu-53" transform="translate(618.692233 0)scale(0.996264)"/>
      <use xlink:href="#NimbusRomNo9L-Regu-47" transform="translate(674.08391 0)scale(0.996264)"/>
      <use xlink:href="#NimbusRomNo9L-Regu-2c" transform="translate(746.013895 0)scale(0.996264)"/>
      <use xlink:href="#NimbusRomNo9L-Regu-4c" transform="translate(795.827096 0)scale(0.996264)"/>
      <use xlink:href="#NimbusRomNo9L-Regu-54" transform="translate(847.533845 0)scale(0.996264)"/>
     </g>
    </g>
    <g id="line2d_90">
     <path d="M 177.162447 114.529513 
L 187.162447 114.529513 
L 197.162447 114.529513 
" style="fill: none; stroke-dasharray: 7.4,3.2; stroke-dashoffset: 0; stroke: #000000; stroke-width: 2"/>
    </g>
    <g id="text_15">
     <!-- $U_A$, EPVP, EL, SG, LT -->
     <g transform="translate(205.162447 118.029513)scale(0.1 -0.1)">
      <use xlink:href="#NimbusRomNo9L-ReguItal-55" transform="scale(0.996264)"/>
      <use xlink:href="#NimbusRomNo9L-ReguItal-41" transform="translate(69.43937 -15.270966)scale(0.737241)"/>
      <use xlink:href="#NimbusRomNo9L-Regu-2c" transform="translate(114.982846 0)scale(0.996264)"/>
      <use xlink:href="#NimbusRomNo9L-Regu-45" transform="translate(164.796047 0)scale(0.996264)"/>
      <use xlink:href="#NimbusRomNo9L-Regu-50" transform="translate(225.667677 0)scale(0.996264)"/>
      <use xlink:href="#NimbusRomNo9L-Regu-56" transform="translate(281.059354 0)scale(0.996264)"/>
      <use xlink:href="#NimbusRomNo9L-Regu-50" transform="translate(352.989339 0)scale(0.996264)"/>
      <use xlink:href="#NimbusRomNo9L-Regu-2c" transform="translate(397.322571 0)scale(0.996264)"/>
      <use xlink:href="#NimbusRomNo9L-Regu-45" transform="translate(447.135771 0)scale(0.996264)"/>
      <use xlink:href="#NimbusRomNo9L-Regu-4c" transform="translate(508.007402 0)scale(0.996264)"/>
      <use xlink:href="#NimbusRomNo9L-Regu-2c" transform="translate(568.879033 0)scale(0.996264)"/>
      <use xlink:href="#NimbusRomNo9L-Regu-53" transform="translate(618.692233 0)scale(0.996264)"/>
      <use xlink:href="#NimbusRomNo9L-Regu-47" transform="translate(674.08391 0)scale(0.996264)"/>
      <use xlink:href="#NimbusRomNo9L-Regu-2c" transform="translate(746.013895 0)scale(0.996264)"/>
      <use xlink:href="#NimbusRomNo9L-Regu-4c" transform="translate(795.827096 0)scale(0.996264)"/>
      <use xlink:href="#NimbusRomNo9L-Regu-54" transform="translate(847.533845 0)scale(0.996264)"/>
     </g>
    </g>
    <g id="line2d_91">
     <path d="M 177.162447 128.686342 
L 187.162447 128.686342 
L 197.162447 128.686342 
" style="fill: none; stroke: #ff0000; stroke-width: 2; stroke-linecap: square"/>
    </g>
    <g id="text_16">
     <!-- $U_B$, EPVP, VEL, SG, LT -->
     <g transform="translate(205.162447 132.186342)scale(0.1 -0.1)">
      <use xlink:href="#NimbusRomNo9L-ReguItal-55" transform="scale(0.996264)"/>
      <use xlink:href="#NimbusRomNo9L-ReguItal-42" transform="translate(69.43937 -14.943915)scale(0.737241)"/>
      <use xlink:href="#NimbusRomNo9L-Regu-2c" transform="translate(114.982846 0)scale(0.996264)"/>
      <use xlink:href="#NimbusRomNo9L-Regu-45" transform="translate(164.796047 0)scale(0.996264)"/>
      <use xlink:href="#NimbusRomNo9L-Regu-50" transform="translate(225.667677 0)scale(0.996264)"/>
      <use xlink:href="#NimbusRomNo9L-Regu-56" transform="translate(281.059354 0)scale(0.996264)"/>
      <use xlink:href="#NimbusRomNo9L-Regu-50" transform="translate(352.989339 0)scale(0.996264)"/>
      <use xlink:href="#NimbusRomNo9L-Regu-2c" transform="translate(397.322571 0)scale(0.996264)"/>
      <use xlink:href="#NimbusRomNo9L-Regu-56" transform="translate(447.135771 0)scale(0.996264)"/>
      <use xlink:href="#NimbusRomNo9L-Regu-45" transform="translate(519.065756 0)scale(0.996264)"/>
      <use xlink:href="#NimbusRomNo9L-Regu-4c" transform="translate(579.937387 0)scale(0.996264)"/>
      <use xlink:href="#NimbusRomNo9L-Regu-2c" transform="translate(640.809018 0)scale(0.996264)"/>
      <use xlink:href="#NimbusRomNo9L-Regu-53" transform="translate(690.622218 0)scale(0.996264)"/>
      <use xlink:href="#NimbusRomNo9L-Regu-47" transform="translate(746.013895 0)scale(0.996264)"/>
      <use xlink:href="#NimbusRomNo9L-Regu-2c" transform="translate(817.94388 0)scale(0.996264)"/>
      <use xlink:href="#NimbusRomNo9L-Regu-4c" transform="translate(867.75708 0)scale(0.996264)"/>
      <use xlink:href="#NimbusRomNo9L-Regu-54" transform="translate(919.46383 0)scale(0.996264)"/>
     </g>
    </g>
    <g id="line2d_92">
     <path d="M 177.162447 142.843171 
L 187.162447 142.843171 
L 197.162447 142.843171 
" style="fill: none; stroke-dasharray: 7.4,3.2; stroke-dashoffset: 0; stroke: #ff0000; stroke-width: 2"/>
    </g>
    <g id="text_17">
     <!-- $U_A$, EPVP, VEL, SG, LT -->
     <g transform="translate(205.162447 146.343171)scale(0.1 -0.1)">
      <use xlink:href="#NimbusRomNo9L-ReguItal-55" transform="scale(0.996264)"/>
      <use xlink:href="#NimbusRomNo9L-ReguItal-41" transform="translate(69.43937 -15.270966)scale(0.737241)"/>
      <use xlink:href="#NimbusRomNo9L-Regu-2c" transform="translate(114.982846 0)scale(0.996264)"/>
      <use xlink:href="#NimbusRomNo9L-Regu-45" transform="translate(164.796047 0)scale(0.996264)"/>
      <use xlink:href="#NimbusRomNo9L-Regu-50" transform="translate(225.667677 0)scale(0.996264)"/>
      <use xlink:href="#NimbusRomNo9L-Regu-56" transform="translate(281.059354 0)scale(0.996264)"/>
      <use xlink:href="#NimbusRomNo9L-Regu-50" transform="translate(352.989339 0)scale(0.996264)"/>
      <use xlink:href="#NimbusRomNo9L-Regu-2c" transform="translate(397.322571 0)scale(0.996264)"/>
      <use xlink:href="#NimbusRomNo9L-Regu-56" transform="translate(447.135771 0)scale(0.996264)"/>
      <use xlink:href="#NimbusRomNo9L-Regu-45" transform="translate(519.065756 0)scale(0.996264)"/>
      <use xlink:href="#NimbusRomNo9L-Regu-4c" transform="translate(579.937387 0)scale(0.996264)"/>
      <use xlink:href="#NimbusRomNo9L-Regu-2c" transform="translate(640.809018 0)scale(0.996264)"/>
      <use xlink:href="#NimbusRomNo9L-Regu-53" transform="translate(690.622218 0)scale(0.996264)"/>
      <use xlink:href="#NimbusRomNo9L-Regu-47" transform="translate(746.013895 0)scale(0.996264)"/>
      <use xlink:href="#NimbusRomNo9L-Regu-2c" transform="translate(817.94388 0)scale(0.996264)"/>
      <use xlink:href="#NimbusRomNo9L-Regu-4c" transform="translate(867.75708 0)scale(0.996264)"/>
      <use xlink:href="#NimbusRomNo9L-Regu-54" transform="translate(919.46383 0)scale(0.996264)"/>
     </g>
    </g>
   </g>
  </g>
 </g>
 <defs>
  <clipPath id="p25b8b8e4d7">
   <rect x="40.5" y="21.6" width="251.1" height="135.9"/>
  </clipPath>
 </defs>
</svg>
