<?xml version="1.0" encoding="utf-8" standalone="no"?>
<!DOCTYPE svg PUBLIC "-//W3C//DTD SVG 1.1//EN"
  "http://www.w3.org/Graphics/SVG/1.1/DTD/svg11.dtd">
<svg xmlns:xlink="http://www.w3.org/1999/xlink" width="324pt" height="180pt" viewBox="0 0 324 180" xmlns="http://www.w3.org/2000/svg" version="1.1">
 <metadata>
  <rdf:RDF xmlns:dc="http://purl.org/dc/elements/1.1/" xmlns:cc="http://creativecommons.org/ns#" xmlns:rdf="http://www.w3.org/1999/02/22-rdf-syntax-ns#">
   <cc:Work>
    <dc:type rdf:resource="http://purl.org/dc/dcmitype/StillImage"/>
    <dc:date>2024-08-14T17:51:13.118951</dc:date>
    <dc:format>image/svg+xml</dc:format>
    <dc:creator>
     <cc:Agent>
      <dc:title>Matplotlib v3.5.2, https://matplotlib.org/</dc:title>
     </cc:Agent>
    </dc:creator>
   </cc:Work>
  </rdf:RDF>
 </metadata>
 <defs>
  <style type="text/css">*{stroke-linejoin: round; stroke-linecap: butt}</style>
 </defs>
 <g id="figure_1">
  <g id="patch_1">
   <path d="M 0 180 
L 324 180 
L 324 0 
L 0 0 
z
" style="fill: #ffffff"/>
  </g>
  <g id="axes_1">
   <g id="patch_2">
    <path d="M 40.5 157.5 
L 291.6 157.5 
L 291.6 21.6 
L 40.5 21.6 
z
" style="fill: #ffffff"/>
   </g>
   <g id="matplotlib.axis_1">
    <g id="xtick_1">
     <g id="line2d_1">
      <path d="M 100.285714 157.5 
L 100.285714 21.6 
" clip-path="url(#p2746945ad8)" style="fill: none; stroke: #b0b0b0; stroke-width: 0.8; stroke-linecap: square"/>
     </g>
     <g id="line2d_2">
      <defs>
       <path id="m96d74367d3" d="M 0 0 
L 0 3.5 
" style="stroke: #000000; stroke-width: 0.8"/>
      </defs>
      <g>
       <use xlink:href="#m96d74367d3" x="100.285714" y="157.5" style="stroke: #000000; stroke-width: 0.8"/>
      </g>
     </g>
     <g id="text_1">
      <!-- $\mathdefault{-20}$ -->
      <g transform="translate(89.663613 172.605484)scale(0.12 -0.12)">
       <defs>
        <path id="CMSY10-0" d="M 4218 1472 
C 4326 1472 4442 1472 4442 1600 
C 4442 1728 4326 1728 4218 1728 
L 755 1728 
C 646 1728 531 1728 531 1600 
C 531 1472 646 1472 755 1472 
L 4218 1472 
z
" transform="scale(0.015625)"/>
        <path id="NimbusRomNo9L-Regu-32" d="M 3040 879 
L 2957 912 
C 2720 544 2637 486 2349 486 
L 819 486 
L 1894 1621 
C 2464 2221 2714 2711 2714 3214 
C 2714 3858 2195 4352 1530 4352 
C 1178 4352 845 4211 608 3955 
C 403 3736 307 3530 198 3072 
L 333 3039 
C 589 3671 819 3878 1261 3878 
C 1798 3878 2163 3510 2163 2969 
C 2163 2466 1869 1866 1331 1292 
L 192 76 
L 192 0 
L 2688 0 
L 3040 879 
z
" transform="scale(0.015625)"/>
        <path id="NimbusRomNo9L-Regu-30" d="M 1626 4352 
C 1274 4352 1005 4243 768 4019 
C 397 3661 154 2924 154 2176 
C 154 1478 365 729 666 371 
C 902 89 1229 -64 1600 -64 
C 1926 -64 2202 44 2432 268 
C 2803 620 3046 1363 3046 2137 
C 3046 3449 2464 4352 1626 4352 
z
M 1606 4185 
C 2144 4185 2432 3462 2432 2124 
C 2432 787 2150 102 1600 102 
C 1050 102 768 787 768 2118 
C 768 3475 1056 4185 1606 4185 
z
" transform="scale(0.015625)"/>
       </defs>
       <use xlink:href="#CMSY10-0" transform="scale(0.996264)"/>
       <use xlink:href="#NimbusRomNo9L-Regu-32" transform="translate(77.408707 0)scale(0.996264)"/>
       <use xlink:href="#NimbusRomNo9L-Regu-30" transform="translate(127.221908 0)scale(0.996264)"/>
      </g>
     </g>
    </g>
    <g id="xtick_2">
     <g id="line2d_3">
      <path d="M 172.028571 157.5 
L 172.028571 21.6 
" clip-path="url(#p2746945ad8)" style="fill: none; stroke: #b0b0b0; stroke-width: 0.8; stroke-linecap: square"/>
     </g>
     <g id="line2d_4">
      <g>
       <use xlink:href="#m96d74367d3" x="172.028571" y="157.5" style="stroke: #000000; stroke-width: 0.8"/>
      </g>
     </g>
     <g id="text_2">
      <!-- $\mathdefault{-10}$ -->
      <g transform="translate(161.40647 172.605484)scale(0.12 -0.12)">
       <defs>
        <path id="NimbusRomNo9L-Regu-31" d="M 1862 4352 
L 710 3776 
L 710 3686 
C 787 3718 858 3743 883 3756 
C 998 3801 1107 3826 1171 3826 
C 1306 3826 1363 3731 1363 3525 
L 1363 599 
C 1363 386 1312 238 1210 179 
C 1114 121 1024 102 755 96 
L 755 0 
L 2522 0 
L 2522 96 
C 2016 102 1914 167 1914 477 
L 1914 4339 
L 1862 4352 
z
" transform="scale(0.015625)"/>
       </defs>
       <use xlink:href="#CMSY10-0" transform="scale(0.996264)"/>
       <use xlink:href="#NimbusRomNo9L-Regu-31" transform="translate(77.408707 0)scale(0.996264)"/>
       <use xlink:href="#NimbusRomNo9L-Regu-30" transform="translate(127.221908 0)scale(0.996264)"/>
      </g>
     </g>
    </g>
    <g id="xtick_3">
     <g id="line2d_5">
      <path d="M 243.771429 157.5 
L 243.771429 21.6 
" clip-path="url(#p2746945ad8)" style="fill: none; stroke: #b0b0b0; stroke-width: 0.8; stroke-linecap: square"/>
     </g>
     <g id="line2d_6">
      <g>
       <use xlink:href="#m96d74367d3" x="243.771429" y="157.5" style="stroke: #000000; stroke-width: 0.8"/>
      </g>
     </g>
     <g id="text_3">
      <!-- $\mathdefault{0}$ -->
      <g transform="translate(240.782637 172.605484)scale(0.12 -0.12)">
       <use xlink:href="#NimbusRomNo9L-Regu-30" transform="scale(0.996264)"/>
      </g>
     </g>
    </g>
    <g id="xtick_4">
     <g id="line2d_7">
      <path d="M 42.891429 157.5 
L 42.891429 21.6 
" clip-path="url(#p2746945ad8)" style="fill: none; stroke: #b0b0b0; stroke-opacity: 0.3; stroke-width: 0.8; stroke-linecap: square"/>
     </g>
     <g id="line2d_8">
      <defs>
       <path id="m270e35d89f" d="M 0 0 
L 0 2 
" style="stroke: #000000; stroke-width: 0.6"/>
      </defs>
      <g>
       <use xlink:href="#m270e35d89f" x="42.891429" y="157.5" style="stroke: #000000; stroke-width: 0.6"/>
      </g>
     </g>
    </g>
    <g id="xtick_5">
     <g id="line2d_9">
      <path d="M 57.24 157.5 
L 57.24 21.6 
" clip-path="url(#p2746945ad8)" style="fill: none; stroke: #b0b0b0; stroke-opacity: 0.3; stroke-width: 0.8; stroke-linecap: square"/>
     </g>
     <g id="line2d_10">
      <g>
       <use xlink:href="#m270e35d89f" x="57.24" y="157.5" style="stroke: #000000; stroke-width: 0.6"/>
      </g>
     </g>
    </g>
    <g id="xtick_6">
     <g id="line2d_11">
      <path d="M 71.588571 157.5 
L 71.588571 21.6 
" clip-path="url(#p2746945ad8)" style="fill: none; stroke: #b0b0b0; stroke-opacity: 0.3; stroke-width: 0.8; stroke-linecap: square"/>
     </g>
     <g id="line2d_12">
      <g>
       <use xlink:href="#m270e35d89f" x="71.588571" y="157.5" style="stroke: #000000; stroke-width: 0.6"/>
      </g>
     </g>
    </g>
    <g id="xtick_7">
     <g id="line2d_13">
      <path d="M 85.937143 157.5 
L 85.937143 21.6 
" clip-path="url(#p2746945ad8)" style="fill: none; stroke: #b0b0b0; stroke-opacity: 0.3; stroke-width: 0.8; stroke-linecap: square"/>
     </g>
     <g id="line2d_14">
      <g>
       <use xlink:href="#m270e35d89f" x="85.937143" y="157.5" style="stroke: #000000; stroke-width: 0.6"/>
      </g>
     </g>
    </g>
    <g id="xtick_8">
     <g id="line2d_15">
      <path d="M 114.634286 157.5 
L 114.634286 21.6 
" clip-path="url(#p2746945ad8)" style="fill: none; stroke: #b0b0b0; stroke-opacity: 0.3; stroke-width: 0.8; stroke-linecap: square"/>
     </g>
     <g id="line2d_16">
      <g>
       <use xlink:href="#m270e35d89f" x="114.634286" y="157.5" style="stroke: #000000; stroke-width: 0.6"/>
      </g>
     </g>
    </g>
    <g id="xtick_9">
     <g id="line2d_17">
      <path d="M 128.982857 157.5 
L 128.982857 21.6 
" clip-path="url(#p2746945ad8)" style="fill: none; stroke: #b0b0b0; stroke-opacity: 0.3; stroke-width: 0.8; stroke-linecap: square"/>
     </g>
     <g id="line2d_18">
      <g>
       <use xlink:href="#m270e35d89f" x="128.982857" y="157.5" style="stroke: #000000; stroke-width: 0.6"/>
      </g>
     </g>
    </g>
    <g id="xtick_10">
     <g id="line2d_19">
      <path d="M 143.331429 157.5 
L 143.331429 21.6 
" clip-path="url(#p2746945ad8)" style="fill: none; stroke: #b0b0b0; stroke-opacity: 0.3; stroke-width: 0.8; stroke-linecap: square"/>
     </g>
     <g id="line2d_20">
      <g>
       <use xlink:href="#m270e35d89f" x="143.331429" y="157.5" style="stroke: #000000; stroke-width: 0.6"/>
      </g>
     </g>
    </g>
    <g id="xtick_11">
     <g id="line2d_21">
      <path d="M 157.68 157.5 
L 157.68 21.6 
" clip-path="url(#p2746945ad8)" style="fill: none; stroke: #b0b0b0; stroke-opacity: 0.3; stroke-width: 0.8; stroke-linecap: square"/>
     </g>
     <g id="line2d_22">
      <g>
       <use xlink:href="#m270e35d89f" x="157.68" y="157.5" style="stroke: #000000; stroke-width: 0.6"/>
      </g>
     </g>
    </g>
    <g id="xtick_12">
     <g id="line2d_23">
      <path d="M 186.377143 157.5 
L 186.377143 21.6 
" clip-path="url(#p2746945ad8)" style="fill: none; stroke: #b0b0b0; stroke-opacity: 0.3; stroke-width: 0.8; stroke-linecap: square"/>
     </g>
     <g id="line2d_24">
      <g>
       <use xlink:href="#m270e35d89f" x="186.377143" y="157.5" style="stroke: #000000; stroke-width: 0.6"/>
      </g>
     </g>
    </g>
    <g id="xtick_13">
     <g id="line2d_25">
      <path d="M 200.725714 157.5 
L 200.725714 21.6 
" clip-path="url(#p2746945ad8)" style="fill: none; stroke: #b0b0b0; stroke-opacity: 0.3; stroke-width: 0.8; stroke-linecap: square"/>
     </g>
     <g id="line2d_26">
      <g>
       <use xlink:href="#m270e35d89f" x="200.725714" y="157.5" style="stroke: #000000; stroke-width: 0.6"/>
      </g>
     </g>
    </g>
    <g id="xtick_14">
     <g id="line2d_27">
      <path d="M 215.074286 157.5 
L 215.074286 21.6 
" clip-path="url(#p2746945ad8)" style="fill: none; stroke: #b0b0b0; stroke-opacity: 0.3; stroke-width: 0.8; stroke-linecap: square"/>
     </g>
     <g id="line2d_28">
      <g>
       <use xlink:href="#m270e35d89f" x="215.074286" y="157.5" style="stroke: #000000; stroke-width: 0.6"/>
      </g>
     </g>
    </g>
    <g id="xtick_15">
     <g id="line2d_29">
      <path d="M 229.422857 157.5 
L 229.422857 21.6 
" clip-path="url(#p2746945ad8)" style="fill: none; stroke: #b0b0b0; stroke-opacity: 0.3; stroke-width: 0.8; stroke-linecap: square"/>
     </g>
     <g id="line2d_30">
      <g>
       <use xlink:href="#m270e35d89f" x="229.422857" y="157.5" style="stroke: #000000; stroke-width: 0.6"/>
      </g>
     </g>
    </g>
    <g id="xtick_16">
     <g id="line2d_31">
      <path d="M 258.12 157.5 
L 258.12 21.6 
" clip-path="url(#p2746945ad8)" style="fill: none; stroke: #b0b0b0; stroke-opacity: 0.3; stroke-width: 0.8; stroke-linecap: square"/>
     </g>
     <g id="line2d_32">
      <g>
       <use xlink:href="#m270e35d89f" x="258.12" y="157.5" style="stroke: #000000; stroke-width: 0.6"/>
      </g>
     </g>
    </g>
    <g id="xtick_17">
     <g id="line2d_33">
      <path d="M 272.468571 157.5 
L 272.468571 21.6 
" clip-path="url(#p2746945ad8)" style="fill: none; stroke: #b0b0b0; stroke-opacity: 0.3; stroke-width: 0.8; stroke-linecap: square"/>
     </g>
     <g id="line2d_34">
      <g>
       <use xlink:href="#m270e35d89f" x="272.468571" y="157.5" style="stroke: #000000; stroke-width: 0.6"/>
      </g>
     </g>
    </g>
    <g id="xtick_18">
     <g id="line2d_35">
      <path d="M 286.817143 157.5 
L 286.817143 21.6 
" clip-path="url(#p2746945ad8)" style="fill: none; stroke: #b0b0b0; stroke-opacity: 0.3; stroke-width: 0.8; stroke-linecap: square"/>
     </g>
     <g id="line2d_36">
      <g>
       <use xlink:href="#m270e35d89f" x="286.817143" y="157.5" style="stroke: #000000; stroke-width: 0.6"/>
      </g>
     </g>
    </g>
    <g id="text_4">
     <!-- $z/R_t$ -->
     <g transform="translate(155.949495 188.160055)scale(0.12 -0.12)">
      <defs>
       <path id="NimbusRomNo9L-ReguItal-7a" d="M 518 1991 
C 653 2310 736 2368 1037 2368 
L 1971 2368 
L -13 -7 
L 45 -64 
C 147 19 230 51 339 51 
C 493 51 704 -32 1005 -225 
C 1325 -429 1542 -512 1722 -512 
C 2042 -512 2323 -278 2323 -13 
C 2323 121 2234 217 2099 217 
C 1971 198 1882 115 1882 0 
C 1882 -57 1901 -120 1939 -189 
C 1958 -227 1971 -265 1971 -284 
C 1971 -340 1901 -378 1798 -378 
C 1638 -378 1562 -328 1350 -63 
C 1069 301 947 385 576 469 
L 2432 2681 
L 2432 2752 
L 614 2752 
L 416 2013 
L 518 1991 
z
" transform="scale(0.015625)"/>
       <path id="CMMI10-3d" d="M 2810 4557 
C 2842 4640 2842 4665 2842 4672 
C 2842 4742 2784 4800 2714 4800 
C 2669 4800 2624 4780 2605 4742 
L 384 -1357 
C 352 -1440 352 -1466 352 -1472 
C 352 -1543 410 -1600 480 -1600 
C 563 -1600 582 -1556 621 -1447 
L 2810 4557 
z
" transform="scale(0.015625)"/>
       <path id="NimbusRomNo9L-ReguItal-52" d="M 3629 102 
C 3347 121 3219 229 3098 561 
L 2502 2121 
C 2995 2229 3206 2318 3437 2522 
C 3648 2707 3763 2955 3763 3242 
C 3763 3834 3290 4160 2432 4160 
L 845 4160 
L 845 4057 
C 1114 4019 1146 4012 1210 3967 
C 1261 3936 1299 3859 1299 3789 
C 1299 3713 1267 3560 1222 3388 
L 435 573 
C 320 198 275 159 -83 102 
L -83 0 
L 1478 0 
L 1478 102 
C 1088 153 1043 185 1043 395 
C 1043 459 1062 541 1120 764 
L 1478 2095 
L 1894 2063 
L 2682 0 
L 3629 0 
L 3629 102 
z
M 1971 3789 
C 2010 3923 2093 3967 2298 3967 
C 2829 3967 3091 3726 3091 3254 
C 3091 2624 2682 2299 1882 2299 
C 1779 2299 1709 2305 1555 2331 
L 1971 3789 
z
" transform="scale(0.015625)"/>
       <path id="NimbusRomNo9L-ReguItal-74" d="M 1894 2752 
L 1382 2752 
L 1562 3411 
C 1568 3424 1568 3436 1568 3443 
C 1568 3488 1549 3507 1517 3507 
C 1478 3507 1459 3500 1421 3449 
C 1171 3123 774 2803 570 2745 
C 410 2694 365 2655 365 2585 
C 365 2579 365 2566 371 2547 
L 845 2547 
L 384 782 
C 371 724 365 705 346 647 
C 288 454 237 230 237 179 
C 237 38 371 -64 544 -64 
C 838 -64 1050 115 1453 711 
L 1370 756 
C 1056 352 954 249 851 249 
C 794 249 755 300 755 377 
C 755 384 755 390 762 410 
L 1325 2547 
L 1862 2547 
L 1894 2752 
z
" transform="scale(0.015625)"/>
      </defs>
      <use xlink:href="#NimbusRomNo9L-ReguItal-7a" transform="scale(0.996264)"/>
      <use xlink:href="#CMMI10-3d" transform="translate(38.753706 0)scale(0.996264)"/>
      <use xlink:href="#NimbusRomNo9L-ReguItal-52" transform="translate(88.566907 0)scale(0.996264)"/>
      <use xlink:href="#NimbusRomNo9L-ReguItal-74" transform="translate(147.595458 -14.943915)scale(0.737241)"/>
     </g>
    </g>
   </g>
   <g id="matplotlib.axis_2">
    <g id="ytick_1">
     <g id="line2d_37">
      <path d="M 40.5 157.5 
L 291.6 157.5 
" clip-path="url(#p2746945ad8)" style="fill: none; stroke: #b0b0b0; stroke-width: 0.8; stroke-linecap: square"/>
     </g>
     <g id="line2d_38">
      <defs>
       <path id="mdfad28b2e6" d="M 0 0 
L -3.5 0 
" style="stroke: #000000; stroke-width: 0.8"/>
      </defs>
      <g>
       <use xlink:href="#mdfad28b2e6" x="40.5" y="157.5" style="stroke: #000000; stroke-width: 0.8"/>
      </g>
     </g>
     <g id="text_5">
      <!-- 0.00 -->
      <g transform="translate(12.578456 161.552742)scale(0.12 -0.12)">
       <defs>
        <path id="NimbusRomNo9L-Regu-2e" d="M 800 646 
C 608 646 448 480 448 281 
C 448 96 608 -64 794 -64 
C 992 -64 1158 96 1158 281 
C 1158 480 992 646 800 646 
z
" transform="scale(0.015625)"/>
       </defs>
       <use xlink:href="#NimbusRomNo9L-Regu-30" transform="scale(0.996264)"/>
       <use xlink:href="#NimbusRomNo9L-Regu-2e" transform="translate(49.8132 0)scale(0.996264)"/>
       <use xlink:href="#NimbusRomNo9L-Regu-30" transform="translate(74.719801 0)scale(0.996264)"/>
       <use xlink:href="#NimbusRomNo9L-Regu-30" transform="translate(124.533001 0)scale(0.996264)"/>
      </g>
     </g>
    </g>
    <g id="ytick_2">
     <g id="line2d_39">
      <path d="M 40.5 112.2 
L 291.6 112.2 
" clip-path="url(#p2746945ad8)" style="fill: none; stroke: #b0b0b0; stroke-width: 0.8; stroke-linecap: square"/>
     </g>
     <g id="line2d_40">
      <g>
       <use xlink:href="#mdfad28b2e6" x="40.5" y="112.2" style="stroke: #000000; stroke-width: 0.8"/>
      </g>
     </g>
     <g id="text_6">
      <!-- 0.50 -->
      <g transform="translate(12.578456 116.252742)scale(0.12 -0.12)">
       <defs>
        <path id="NimbusRomNo9L-Regu-35" d="M 1158 3718 
L 2413 3718 
C 2515 3718 2541 3731 2560 3775 
L 2803 4345 
L 2746 4390 
C 2650 4256 2586 4224 2451 4224 
L 1114 4224 
L 416 2717 
C 410 2705 410 2698 410 2686 
C 410 2654 435 2635 486 2635 
C 691 2635 947 2591 1210 2508 
C 1946 2274 2285 1882 2285 1255 
C 2285 647 1894 172 1395 172 
C 1267 172 1158 217 966 356 
C 762 502 614 565 480 565 
C 294 565 205 489 205 331 
C 205 89 506 -64 986 -64 
C 1523 -64 1984 108 2304 432 
C 2598 717 2733 1078 2733 1559 
C 2733 2015 2611 2306 2291 2622 
C 2010 2901 1645 3047 890 3180 
L 1158 3718 
z
" transform="scale(0.015625)"/>
       </defs>
       <use xlink:href="#NimbusRomNo9L-Regu-30" transform="scale(0.996264)"/>
       <use xlink:href="#NimbusRomNo9L-Regu-2e" transform="translate(49.8132 0)scale(0.996264)"/>
       <use xlink:href="#NimbusRomNo9L-Regu-35" transform="translate(74.719801 0)scale(0.996264)"/>
       <use xlink:href="#NimbusRomNo9L-Regu-30" transform="translate(124.533001 0)scale(0.996264)"/>
      </g>
     </g>
    </g>
    <g id="ytick_3">
     <g id="line2d_41">
      <path d="M 40.5 66.9 
L 291.6 66.9 
" clip-path="url(#p2746945ad8)" style="fill: none; stroke: #b0b0b0; stroke-width: 0.8; stroke-linecap: square"/>
     </g>
     <g id="line2d_42">
      <g>
       <use xlink:href="#mdfad28b2e6" x="40.5" y="66.9" style="stroke: #000000; stroke-width: 0.8"/>
      </g>
     </g>
     <g id="text_7">
      <!-- 1.00 -->
      <g transform="translate(12.578456 70.952742)scale(0.12 -0.12)">
       <use xlink:href="#NimbusRomNo9L-Regu-31" transform="scale(0.996264)"/>
       <use xlink:href="#NimbusRomNo9L-Regu-2e" transform="translate(49.8132 0)scale(0.996264)"/>
       <use xlink:href="#NimbusRomNo9L-Regu-30" transform="translate(74.719801 0)scale(0.996264)"/>
       <use xlink:href="#NimbusRomNo9L-Regu-30" transform="translate(124.533001 0)scale(0.996264)"/>
      </g>
     </g>
    </g>
    <g id="ytick_4">
     <g id="line2d_43">
      <path d="M 40.5 21.6 
L 291.6 21.6 
" clip-path="url(#p2746945ad8)" style="fill: none; stroke: #b0b0b0; stroke-width: 0.8; stroke-linecap: square"/>
     </g>
     <g id="line2d_44">
      <g>
       <use xlink:href="#mdfad28b2e6" x="40.5" y="21.6" style="stroke: #000000; stroke-width: 0.8"/>
      </g>
     </g>
     <g id="text_8">
      <!-- 1.50 -->
      <g transform="translate(12.578456 25.652742)scale(0.12 -0.12)">
       <use xlink:href="#NimbusRomNo9L-Regu-31" transform="scale(0.996264)"/>
       <use xlink:href="#NimbusRomNo9L-Regu-2e" transform="translate(49.8132 0)scale(0.996264)"/>
       <use xlink:href="#NimbusRomNo9L-Regu-35" transform="translate(74.719801 0)scale(0.996264)"/>
       <use xlink:href="#NimbusRomNo9L-Regu-30" transform="translate(124.533001 0)scale(0.996264)"/>
      </g>
     </g>
    </g>
    <g id="ytick_5">
     <g id="line2d_45">
      <path d="M 40.5 148.44 
L 291.6 148.44 
" clip-path="url(#p2746945ad8)" style="fill: none; stroke: #b0b0b0; stroke-opacity: 0.3; stroke-width: 0.8; stroke-linecap: square"/>
     </g>
     <g id="line2d_46">
      <defs>
       <path id="m2b8393e3b4" d="M 0 0 
L -2 0 
" style="stroke: #000000; stroke-width: 0.6"/>
      </defs>
      <g>
       <use xlink:href="#m2b8393e3b4" x="40.5" y="148.44" style="stroke: #000000; stroke-width: 0.6"/>
      </g>
     </g>
    </g>
    <g id="ytick_6">
     <g id="line2d_47">
      <path d="M 40.5 139.38 
L 291.6 139.38 
" clip-path="url(#p2746945ad8)" style="fill: none; stroke: #b0b0b0; stroke-opacity: 0.3; stroke-width: 0.8; stroke-linecap: square"/>
     </g>
     <g id="line2d_48">
      <g>
       <use xlink:href="#m2b8393e3b4" x="40.5" y="139.38" style="stroke: #000000; stroke-width: 0.6"/>
      </g>
     </g>
    </g>
    <g id="ytick_7">
     <g id="line2d_49">
      <path d="M 40.5 130.32 
L 291.6 130.32 
" clip-path="url(#p2746945ad8)" style="fill: none; stroke: #b0b0b0; stroke-opacity: 0.3; stroke-width: 0.8; stroke-linecap: square"/>
     </g>
     <g id="line2d_50">
      <g>
       <use xlink:href="#m2b8393e3b4" x="40.5" y="130.32" style="stroke: #000000; stroke-width: 0.6"/>
      </g>
     </g>
    </g>
    <g id="ytick_8">
     <g id="line2d_51">
      <path d="M 40.5 121.26 
L 291.6 121.26 
" clip-path="url(#p2746945ad8)" style="fill: none; stroke: #b0b0b0; stroke-opacity: 0.3; stroke-width: 0.8; stroke-linecap: square"/>
     </g>
     <g id="line2d_52">
      <g>
       <use xlink:href="#m2b8393e3b4" x="40.5" y="121.26" style="stroke: #000000; stroke-width: 0.6"/>
      </g>
     </g>
    </g>
    <g id="ytick_9">
     <g id="line2d_53">
      <path d="M 40.5 103.14 
L 291.6 103.14 
" clip-path="url(#p2746945ad8)" style="fill: none; stroke: #b0b0b0; stroke-opacity: 0.3; stroke-width: 0.8; stroke-linecap: square"/>
     </g>
     <g id="line2d_54">
      <g>
       <use xlink:href="#m2b8393e3b4" x="40.5" y="103.14" style="stroke: #000000; stroke-width: 0.6"/>
      </g>
     </g>
    </g>
    <g id="ytick_10">
     <g id="line2d_55">
      <path d="M 40.5 94.08 
L 291.6 94.08 
" clip-path="url(#p2746945ad8)" style="fill: none; stroke: #b0b0b0; stroke-opacity: 0.3; stroke-width: 0.8; stroke-linecap: square"/>
     </g>
     <g id="line2d_56">
      <g>
       <use xlink:href="#m2b8393e3b4" x="40.5" y="94.08" style="stroke: #000000; stroke-width: 0.6"/>
      </g>
     </g>
    </g>
    <g id="ytick_11">
     <g id="line2d_57">
      <path d="M 40.5 85.02 
L 291.6 85.02 
" clip-path="url(#p2746945ad8)" style="fill: none; stroke: #b0b0b0; stroke-opacity: 0.3; stroke-width: 0.8; stroke-linecap: square"/>
     </g>
     <g id="line2d_58">
      <g>
       <use xlink:href="#m2b8393e3b4" x="40.5" y="85.02" style="stroke: #000000; stroke-width: 0.6"/>
      </g>
     </g>
    </g>
    <g id="ytick_12">
     <g id="line2d_59">
      <path d="M 40.5 75.96 
L 291.6 75.96 
" clip-path="url(#p2746945ad8)" style="fill: none; stroke: #b0b0b0; stroke-opacity: 0.3; stroke-width: 0.8; stroke-linecap: square"/>
     </g>
     <g id="line2d_60">
      <g>
       <use xlink:href="#m2b8393e3b4" x="40.5" y="75.96" style="stroke: #000000; stroke-width: 0.6"/>
      </g>
     </g>
    </g>
    <g id="ytick_13">
     <g id="line2d_61">
      <path d="M 40.5 57.84 
L 291.6 57.84 
" clip-path="url(#p2746945ad8)" style="fill: none; stroke: #b0b0b0; stroke-opacity: 0.3; stroke-width: 0.8; stroke-linecap: square"/>
     </g>
     <g id="line2d_62">
      <g>
       <use xlink:href="#m2b8393e3b4" x="40.5" y="57.84" style="stroke: #000000; stroke-width: 0.6"/>
      </g>
     </g>
    </g>
    <g id="ytick_14">
     <g id="line2d_63">
      <path d="M 40.5 48.78 
L 291.6 48.78 
" clip-path="url(#p2746945ad8)" style="fill: none; stroke: #b0b0b0; stroke-opacity: 0.3; stroke-width: 0.8; stroke-linecap: square"/>
     </g>
     <g id="line2d_64">
      <g>
       <use xlink:href="#m2b8393e3b4" x="40.5" y="48.78" style="stroke: #000000; stroke-width: 0.6"/>
      </g>
     </g>
    </g>
    <g id="ytick_15">
     <g id="line2d_65">
      <path d="M 40.5 39.72 
L 291.6 39.72 
" clip-path="url(#p2746945ad8)" style="fill: none; stroke: #b0b0b0; stroke-opacity: 0.3; stroke-width: 0.8; stroke-linecap: square"/>
     </g>
     <g id="line2d_66">
      <g>
       <use xlink:href="#m2b8393e3b4" x="40.5" y="39.72" style="stroke: #000000; stroke-width: 0.6"/>
      </g>
     </g>
    </g>
    <g id="ytick_16">
     <g id="line2d_67">
      <path d="M 40.5 30.66 
L 291.6 30.66 
" clip-path="url(#p2746945ad8)" style="fill: none; stroke: #b0b0b0; stroke-opacity: 0.3; stroke-width: 0.8; stroke-linecap: square"/>
     </g>
     <g id="line2d_68">
      <g>
       <use xlink:href="#m2b8393e3b4" x="40.5" y="30.66" style="stroke: #000000; stroke-width: 0.6"/>
      </g>
     </g>
    </g>
    <g id="text_9">
     <!-- $U_B/U_A$ -->
     <g transform="translate(5.589664 106.30013)rotate(-90)scale(0.12 -0.12)">
      <defs>
       <path id="NimbusRomNo9L-ReguItal-55" d="M 4896 4160 
L 3622 4160 
L 3622 4057 
C 3827 4038 3891 4025 3968 3974 
C 4032 3936 4077 3846 4077 3763 
C 4077 3661 3910 3009 3603 1929 
C 3578 1846 3552 1738 3520 1616 
C 3405 1201 3309 945 3168 728 
C 2918 332 2573 134 2125 134 
C 1594 134 1229 441 1229 888 
C 1229 1105 1427 1878 1856 3354 
C 1869 3399 1882 3444 1888 3476 
C 2022 3923 2125 4012 2560 4057 
L 2560 4160 
L 813 4160 
L 813 4057 
C 1242 4019 1312 3980 1312 3795 
C 1312 3719 1293 3616 1267 3508 
L 928 2281 
C 736 1591 653 1182 653 926 
C 653 313 1242 -128 2048 -128 
C 2886 -128 3418 326 3699 1284 
L 4230 3105 
C 4474 3936 4499 3968 4896 4057 
L 4896 4160 
z
" transform="scale(0.015625)"/>
       <path id="NimbusRomNo9L-ReguItal-42" d="M -51 0 
L 1754 0 
C 2758 0 3450 523 3450 1274 
C 3450 1510 3373 1732 3232 1872 
C 3104 2019 2976 2095 2643 2235 
C 3098 2344 3283 2420 3488 2598 
C 3667 2751 3763 2968 3763 3222 
C 3763 3827 3309 4160 2483 4160 
L 832 4160 
L 832 4057 
C 1229 4025 1325 3974 1325 3795 
C 1325 3700 1299 3541 1254 3388 
L 467 574 
C 352 204 307 166 -51 102 
L -51 0 
z
M 1523 2108 
C 1939 2108 2208 2083 2336 2032 
C 2598 1923 2758 1643 2758 1299 
C 2758 612 2285 192 1504 192 
C 1235 192 1094 287 1094 459 
C 1094 535 1171 841 1318 1350 
C 1402 1637 1440 1783 1523 2108 
z
M 2003 3789 
C 2042 3929 2118 3967 2368 3967 
C 2880 3967 3117 3751 3117 3280 
C 3117 2917 2963 2637 2688 2484 
C 2470 2356 2163 2312 1587 2312 
L 2003 3789 
z
" transform="scale(0.015625)"/>
       <path id="NimbusRomNo9L-ReguItal-41" d="M 3610 102 
C 3245 134 3206 185 3123 647 
L 2522 4288 
L 2355 4288 
L 499 1066 
C -7 223 -71 153 -327 102 
L -327 0 
L 870 0 
L 870 102 
C 544 134 493 166 493 324 
C 493 444 512 501 621 717 
L 986 1433 
L 2394 1433 
L 2522 603 
C 2528 546 2534 489 2534 438 
C 2534 197 2445 140 2035 102 
L 2035 0 
L 3610 0 
L 3610 102 
z
M 1120 1664 
L 2080 3345 
L 2362 1664 
L 1120 1664 
z
" transform="scale(0.015625)"/>
      </defs>
      <use xlink:href="#NimbusRomNo9L-ReguItal-55" transform="scale(0.996264)"/>
      <use xlink:href="#NimbusRomNo9L-ReguItal-42" transform="translate(69.43937 -14.943915)scale(0.737241)"/>
      <use xlink:href="#CMMI10-3d" transform="translate(114.982846 0)scale(0.996264)"/>
      <use xlink:href="#NimbusRomNo9L-ReguItal-55" transform="translate(159.814696 0)scale(0.996264)"/>
      <use xlink:href="#NimbusRomNo9L-ReguItal-41" transform="translate(229.254067 -15.270966)scale(0.737241)"/>
     </g>
    </g>
   </g>
   <g id="line2d_69">
    <path d="M 243.771429 157.5 
L 243.771429 21.6 
" clip-path="url(#p2746945ad8)" style="fill: none; stroke-dasharray: 2,3.3; stroke-dashoffset: 0; stroke: #000000; stroke-width: 2"/>
   </g>
   <g id="line2d_70">
    <path d="M 243.771429 157.5 
L 243.771429 21.6 
" clip-path="url(#p2746945ad8)" style="fill: none; stroke-dasharray: 2,3.3; stroke-dashoffset: 0; stroke: #000000; stroke-width: 2"/>
   </g>
   <g id="line2d_71">
    <path d="M 243.771429 157.5 
L 243.771429 21.6 
" clip-path="url(#p2746945ad8)" style="fill: none; stroke-dasharray: 2,3.3; stroke-dashoffset: 0; stroke: #000000; stroke-width: 2"/>
   </g>
   <g id="line2d_72">
    <path d="M 243.771429 157.5 
L 243.771429 21.6 
" clip-path="url(#p2746945ad8)" style="fill: none; stroke-dasharray: 2,3.3; stroke-dashoffset: 0; stroke: #000000; stroke-width: 2"/>
   </g>
   <g id="patch_3">
    <path d="M 40.5 157.5 
L 40.5 21.6 
" style="fill: none; stroke: #000000; stroke-width: 0.75; stroke-linejoin: miter; stroke-linecap: square"/>
   </g>
   <g id="patch_4">
    <path d="M 291.6 157.5 
L 291.6 21.6 
" style="fill: none; stroke: #000000; stroke-width: 0.75; stroke-linejoin: miter; stroke-linecap: square"/>
   </g>
   <g id="patch_5">
    <path d="M 40.5 157.5 
L 291.6 157.5 
" style="fill: none; stroke: #000000; stroke-width: 0.75; stroke-linejoin: miter; stroke-linecap: square"/>
   </g>
   <g id="patch_6">
    <path d="M 40.5 21.6 
L 291.6 21.6 
" style="fill: none; stroke: #000000; stroke-width: 0.75; stroke-linejoin: miter; stroke-linecap: square"/>
   </g>
   <g id="line2d_73">
    <path d="M 257.624136 181 
L 252.837334 155.084433 
L 250.154151 138.91229 
L 245.641526 117.12233 
L 243.747514 112.141207 
L 241.38 103.350087 
L 238.940743 87.897704 
L 236.573229 85.713336 
L 234.205714 85.715656 
L 231.766457 86.426679 
L 227.031429 88.351279 
L 224.592171 89.158804 
L 222.224657 89.78745 
L 219.857143 90.257812 
L 215.050371 90.865929 
L 210.2436 91.189055 
L 203.069314 91.411113 
L 188.720743 91.575203 
L 152.849314 91.792567 
L 145.675029 91.652402 
L 140.94 91.311577 
L 133.765714 90.586435 
L 132.115629 90.561287 
L 130.537286 90.457119 
L 129.748114 90.249173 
L 128.169771 89.5962 
L 127.3806 89.467667 
L 125.802257 89.634462 
L 124.152171 89.813084 
L 122.573829 89.697123 
L 120.206314 89.312961 
L 118.627971 89.279911 
L 116.977886 89.533035 
L 115.399543 90.08775 
L 114.610371 90.508803 
L 112.242857 90.740234 
L 107.436086 91.616582 
L 105.068571 91.90539 
L 102.629314 92.034808 
L 97.894286 91.892044 
L 93.087514 91.729057 
L 88.280743 92.013918 
L 85.913229 92.147547 
L 83.545714 92.055002 
L 81.106457 91.776739 
L 78.738943 92.075102 
L 73.932171 92.026812 
L 26.151429 92.413793 
L 21.344657 92.682397 
L 18.977143 92.993777 
L 16.537886 93.656671 
L 14.170371 93.963194 
L 11.802857 96.713202 
L 9.3636 90.777251 
L 6.996086 97.149549 
L 4.628571 92.104217 
L 4.628571 92.104217 
" clip-path="url(#p2746945ad8)" style="fill: none; stroke: #0000ff; stroke-linecap: square"/>
   </g>
   <g id="line2d_74">
    <path d="M 258.110835 181 
L 255.836186 166.471415 
L 252.837334 149.433873 
L 250.154151 130.087074 
L 247.772289 118.898254 
L 245.641526 111.395913 
L 243.747514 106.653482 
L 241.38 89.073801 
L 238.940743 78.942407 
L 236.573229 75.570609 
L 234.205714 73.97352 
L 231.766457 73.679512 
L 229.398943 74.176828 
L 224.592171 75.737062 
L 222.224657 76.369427 
L 219.857143 76.846403 
L 215.050371 77.445432 
L 210.2436 77.721792 
L 203.069314 77.900623 
L 143.307514 78.244306 
L 121.784657 76.892246 
L 115.399543 77.052673 
L 114.610371 77.201577 
L 112.242857 77.294903 
L 102.629314 78.053761 
L 97.894286 78.169848 
L 88.280743 78.263125 
L 83.545714 78.297209 
L 81.106457 78.230824 
L 76.371429 78.278248 
L 50.0418 78.206736 
L 33.325714 77.987886 
L 18.977143 77.616745 
L 16.537886 77.787652 
L 14.170371 78.194654 
L 11.802857 79.007242 
L 9.3636 80.079249 
L 6.996086 81.464596 
L 4.628571 81.324749 
L 4.628571 81.324749 
" clip-path="url(#p2746945ad8)" style="fill: none; stroke: #ffa500; stroke-linecap: square"/>
   </g>
   <g id="line2d_75">
    <path d="M 258.430765 181 
L 255.836186 164.92047 
L 252.837334 144.863918 
L 250.154151 127.938617 
L 247.772289 116.968201 
L 245.641526 110.357038 
L 243.747514 106.043611 
L 238.940743 73.122442 
L 236.573229 67.12623 
L 234.205714 64.842439 
L 231.766457 64.160042 
L 229.398943 64.379635 
L 222.224657 66.186466 
L 219.857143 66.628686 
L 215.050371 67.188683 
L 210.2436 67.47571 
L 200.7018 67.668424 
L 179.178943 67.825601 
L 157.656086 67.950038 
L 150.4818 68.107151 
L 145.675029 68.016971 
L 140.94 67.608489 
L 136.133229 67.037359 
L 132.976543 66.901063 
L 131.326457 66.9833 
L 130.537286 66.867394 
L 129.748114 66.602793 
L 128.169771 65.804943 
L 127.3806 65.628896 
L 125.802257 65.772688 
L 124.152171 65.964684 
L 122.573829 65.840831 
L 120.206314 65.557315 
L 118.627971 65.688848 
L 116.188714 66.247046 
L 114.610371 66.885284 
L 112.242857 67.090293 
L 107.436086 67.890287 
L 105.068571 68.163183 
L 102.629314 68.286925 
L 97.894286 68.135816 
L 93.087514 67.944697 
L 88.280743 68.206387 
L 85.913229 68.340962 
L 83.545714 68.252793 
L 81.106457 67.972787 
L 78.738943 68.266832 
L 73.932171 68.218791 
L 35.693229 68.411399 
L 21.344657 68.233894 
L 16.537886 68.963274 
L 14.170371 69.885975 
L 11.802857 71.841818 
L 9.3636 68.797191 
L 6.996086 72.080214 
L 4.628571 69.213191 
L 4.628571 69.213191 
" clip-path="url(#p2746945ad8)" style="fill: none; stroke: #000000; stroke-linecap: square"/>
   </g>
   <g id="line2d_76">
    <path d="M 259.177062 181 
L 255.836186 160.174412 
L 252.837334 139.917233 
L 250.154151 124.176963 
L 245.641526 104.402569 
L 243.747514 100.806973 
L 241.38 83.584226 
L 238.940743 67.409466 
L 236.573229 59.937071 
L 234.205714 56.922735 
L 231.766457 56.283436 
L 229.398943 56.824518 
L 224.592171 58.521262 
L 222.224657 59.116495 
L 217.417886 59.954514 
L 212.682857 60.296949 
L 205.508571 60.401266 
L 200.7018 60.488543 
L 157.656086 60.640099 
L 148.114286 60.847726 
L 143.307514 60.678813 
L 136.133229 60.040849 
L 132.976543 60.025978 
L 131.326457 60.17653 
L 130.537286 60.087852 
L 129.748114 59.852016 
L 128.169771 59.124823 
L 127.3806 58.953223 
L 125.802257 59.059449 
L 124.152171 59.226281 
L 122.573829 59.106606 
L 120.206314 58.835952 
L 118.627971 58.943288 
L 116.188714 59.367376 
L 114.610371 59.838209 
L 112.242857 59.99509 
L 105.068571 60.8511 
L 102.629314 60.961161 
L 97.894286 60.858102 
L 93.087514 60.700366 
L 88.280743 60.897712 
L 85.913229 61.008659 
L 83.545714 60.949434 
L 81.106457 60.736342 
L 78.738943 60.961698 
L 73.932171 60.900503 
L 71.564657 60.976446 
L 69.197143 60.89547 
L 66.757886 60.971477 
L 64.390371 60.890428 
L 57.216086 61.037647 
L 54.848571 60.956518 
L 47.674286 61.099158 
L 28.518943 61.102218 
L 26.151429 60.922108 
L 21.344657 60.870441 
L 16.537886 61.500526 
L 14.170371 62.424957 
L 11.802857 63.874549 
L 9.3636 62.498995 
L 6.996086 65.170992 
L 4.628571 63.56553 
L 4.628571 63.56553 
" clip-path="url(#p2746945ad8)" style="fill: none; stroke: #ff0000; stroke-linecap: square"/>
   </g>
   <g id="legend_1">
    <g id="patch_7">
     <path d="M 47.5 152.5 
L 271.788447 152.5 
Q 273.788447 152.5 273.788447 150.5 
L 273.788447 123.186342 
Q 273.788447 121.186342 271.788447 121.186342 
L 47.5 121.186342 
Q 45.5 121.186342 45.5 123.186342 
L 45.5 150.5 
Q 45.5 152.5 47.5 152.5 
z
" style="fill: #ffffff; opacity: 0.8; stroke: #cccccc; stroke-linejoin: miter"/>
    </g>
    <g id="line2d_77">
     <path d="M 49.5 128.686342 
L 59.5 128.686342 
L 69.5 128.686342 
" style="fill: none; stroke: #0000ff; stroke-linecap: square"/>
    </g>
    <g id="text_10">
     <!-- EP, EL, SG -->
     <g transform="translate(77.5 132.186342)scale(0.1 -0.1)">
      <defs>
       <path id="NimbusRomNo9L-Regu-45" d="M 3821 1087 
L 3642 1087 
C 3322 391 3046 236 2131 236 
L 1958 236 
C 1645 236 1376 269 1331 314 
C 1299 333 1286 404 1286 513 
L 1286 2105 
L 2272 2105 
C 2797 2105 2893 2021 2976 1487 
L 3123 1487 
L 3123 2966 
L 2976 2966 
C 2931 2708 2906 2613 2835 2525 
C 2752 2418 2573 2368 2272 2368 
L 1286 2368 
L 1286 3766 
C 1286 3942 1325 3980 1498 3980 
L 2362 3980 
C 3085 3980 3226 3886 3334 3319 
L 3494 3319 
L 3475 4224 
L 77 4224 
L 77 4102 
C 550 4064 634 3975 634 3528 
L 634 695 
C 634 249 544 153 77 121 
L 77 0 
L 3533 0 
L 3821 1087 
z
" transform="scale(0.015625)"/>
       <path id="NimbusRomNo9L-Regu-50" d="M 1293 1875 
C 1459 1862 1568 1855 1734 1855 
C 2234 1855 2579 1919 2854 2073 
C 3238 2276 3469 2661 3469 3077 
C 3469 3343 3379 3583 3206 3766 
C 2950 4044 2394 4224 1792 4224 
L 102 4224 
L 102 4102 
C 576 4051 640 3987 640 3528 
L 640 765 
C 640 230 589 166 102 121 
L 102 0 
L 1894 0 
L 1894 121 
C 1389 140 1293 230 1293 695 
L 1293 1875 
z
M 1293 3772 
C 1293 3942 1338 3987 1510 3987 
C 2374 3987 2771 3690 2771 3040 
C 2771 2427 2394 2112 1658 2112 
C 1530 2112 1440 2118 1293 2130 
L 1293 3772 
z
" transform="scale(0.015625)"/>
       <path id="NimbusRomNo9L-Regu-2c" d="M 531 -890 
C 960 -679 1248 -289 1248 96 
C 1248 416 1024 665 736 665 
C 512 665 358 518 358 300 
C 358 57 506 -64 736 -64 
C 774 -64 819 -58 858 -52 
C 902 0 902 0 909 0 
C 960 0 998 -39 998 -90 
C 998 -295 819 -532 474 -769 
L 531 -890 
z
" transform="scale(0.015625)"/>
       <path id="NimbusRomNo9L-Regu-4c" d="M 3667 1110 
C 3558 868 3469 721 3373 613 
C 3149 364 2797 249 2266 249 
L 1837 249 
C 1370 249 1286 287 1286 511 
L 1286 3528 
C 1286 3981 1376 4070 1882 4102 
L 1882 4224 
L 77 4224 
L 77 4102 
C 550 4064 634 3974 634 3528 
L 634 696 
C 634 249 544 153 77 121 
L 77 0 
L 3520 0 
L 3827 1113 
L 3667 1110 
z
" transform="scale(0.015625)"/>
       <path id="NimbusRomNo9L-Regu-53" d="M 2861 4313 
L 2726 4313 
C 2701 4166 2630 4095 2522 4095 
C 2458 4095 2349 4121 2240 4172 
C 2003 4300 1766 4352 1562 4352 
C 1286 4352 1005 4243 794 4057 
C 570 3859 454 3590 454 3257 
C 454 2745 736 2387 1453 2009 
C 1914 1766 2246 1504 2406 1260 
C 2464 1177 2496 1043 2496 889 
C 2496 460 2176 166 1709 166 
C 1139 166 736 518 416 1299 
L 269 1299 
L 461 -58 
L 602 -58 
C 608 38 685 128 781 128 
C 851 128 960 102 1082 57 
C 1325 -13 1581 -64 1837 -64 
C 2573 -64 3142 441 3142 1100 
C 3142 1625 2790 2041 1946 2496 
C 1274 2867 1005 3148 1005 3494 
C 1005 3846 1274 4089 1670 4089 
C 1958 4089 2227 3968 2451 3737 
C 2650 3533 2739 3366 2842 2988 
L 3002 2988 
L 2861 4313 
z
" transform="scale(0.015625)"/>
       <path id="NimbusRomNo9L-Regu-47" d="M 4538 2291 
L 2906 2291 
L 2906 2176 
C 3181 2156 3258 2137 3334 2086 
C 3430 2028 3469 1881 3469 1606 
L 3469 569 
C 3469 364 3078 192 2618 192 
C 1574 192 934 921 934 2112 
C 934 2713 1114 3296 1395 3609 
C 1677 3923 2074 4095 2509 4095 
C 2867 4095 3181 3974 3430 3744 
C 3622 3565 3725 3392 3885 3001 
L 4032 3001 
L 3981 4352 
L 3840 4352 
C 3802 4230 3686 4140 3552 4140 
C 3488 4140 3386 4159 3270 4204 
C 2982 4300 2688 4352 2400 4352 
C 1120 4352 205 3411 205 2105 
C 205 1478 378 998 736 620 
C 1165 179 1779 -64 2483 -64 
C 3034 -64 3834 160 4090 384 
L 4090 1683 
C 4090 2060 4166 2144 4538 2176 
L 4538 2291 
z
" transform="scale(0.015625)"/>
      </defs>
      <use xlink:href="#NimbusRomNo9L-Regu-45" transform="scale(0.996264)"/>
      <use xlink:href="#NimbusRomNo9L-Regu-50" transform="translate(60.871631 0)scale(0.996264)"/>
      <use xlink:href="#NimbusRomNo9L-Regu-2c" transform="translate(105.204862 0)scale(0.996264)"/>
      <use xlink:href="#NimbusRomNo9L-Regu-45" transform="translate(155.018063 0)scale(0.996264)"/>
      <use xlink:href="#NimbusRomNo9L-Regu-4c" transform="translate(215.889693 0)scale(0.996264)"/>
      <use xlink:href="#NimbusRomNo9L-Regu-2c" transform="translate(276.761324 0)scale(0.996264)"/>
      <use xlink:href="#NimbusRomNo9L-Regu-53" transform="translate(326.574525 0)scale(0.996264)"/>
      <use xlink:href="#NimbusRomNo9L-Regu-47" transform="translate(381.966202 0)scale(0.996264)"/>
     </g>
    </g>
    <g id="line2d_78">
     <path d="M 49.5 142.843171 
L 59.5 142.843171 
L 69.5 142.843171 
" style="fill: none; stroke: #ffa500; stroke-linecap: square"/>
    </g>
    <g id="text_11">
     <!-- VP, EL, SG, LT -->
     <g transform="translate(77.5 146.343171)scale(0.1 -0.1)">
      <defs>
       <path id="NimbusRomNo9L-Regu-56" d="M 4461 4224 
L 3149 4224 
L 3149 4102 
C 3501 4083 3616 4013 3616 3835 
C 3616 3733 3571 3561 3494 3370 
L 2554 1032 
L 1587 3185 
C 1376 3650 1325 3796 1325 3892 
C 1325 4013 1414 4077 1619 4089 
C 1645 4089 1715 4095 1805 4102 
L 1805 4224 
L 102 4224 
L 102 4102 
C 416 4089 506 4000 781 3433 
L 2355 -64 
L 2451 -64 
L 3872 3510 
C 4083 4013 4154 4083 4461 4102 
L 4461 4224 
z
" transform="scale(0.015625)"/>
       <path id="NimbusRomNo9L-Regu-54" d="M 1626 3955 
L 1626 765 
C 1626 223 1555 153 1024 121 
L 1024 0 
L 2893 0 
L 2893 121 
C 2368 147 2278 230 2278 695 
L 2278 3955 
L 2624 3955 
C 3354 3955 3494 3840 3642 3138 
L 3795 3138 
L 3757 4224 
L 147 4224 
L 109 3138 
L 262 3138 
C 416 3834 563 3955 1280 3955 
L 1626 3955 
z
" transform="scale(0.015625)"/>
      </defs>
      <use xlink:href="#NimbusRomNo9L-Regu-56" transform="scale(0.996264)"/>
      <use xlink:href="#NimbusRomNo9L-Regu-50" transform="translate(71.929985 0)scale(0.996264)"/>
      <use xlink:href="#NimbusRomNo9L-Regu-2c" transform="translate(116.263216 0)scale(0.996264)"/>
      <use xlink:href="#NimbusRomNo9L-Regu-45" transform="translate(166.076417 0)scale(0.996264)"/>
      <use xlink:href="#NimbusRomNo9L-Regu-4c" transform="translate(226.948048 0)scale(0.996264)"/>
      <use xlink:href="#NimbusRomNo9L-Regu-2c" transform="translate(287.819678 0)scale(0.996264)"/>
      <use xlink:href="#NimbusRomNo9L-Regu-53" transform="translate(337.632879 0)scale(0.996264)"/>
      <use xlink:href="#NimbusRomNo9L-Regu-47" transform="translate(393.024556 0)scale(0.996264)"/>
      <use xlink:href="#NimbusRomNo9L-Regu-2c" transform="translate(464.954541 0)scale(0.996264)"/>
      <use xlink:href="#NimbusRomNo9L-Regu-4c" transform="translate(514.767741 0)scale(0.996264)"/>
      <use xlink:href="#NimbusRomNo9L-Regu-54" transform="translate(566.474491 0)scale(0.996264)"/>
     </g>
    </g>
    <g id="line2d_79">
     <path d="M 160.234564 128.686342 
L 170.234564 128.686342 
L 180.234564 128.686342 
" style="fill: none; stroke: #000000; stroke-linecap: square"/>
    </g>
    <g id="text_12">
     <!-- EPVP, EL, SG, LT -->
     <g transform="translate(188.234564 132.186342)scale(0.1 -0.1)">
      <use xlink:href="#NimbusRomNo9L-Regu-45" transform="scale(0.996264)"/>
      <use xlink:href="#NimbusRomNo9L-Regu-50" transform="translate(60.871631 0)scale(0.996264)"/>
      <use xlink:href="#NimbusRomNo9L-Regu-56" transform="translate(116.263308 0)scale(0.996264)"/>
      <use xlink:href="#NimbusRomNo9L-Regu-50" transform="translate(188.193292 0)scale(0.996264)"/>
      <use xlink:href="#NimbusRomNo9L-Regu-2c" transform="translate(232.526524 0)scale(0.996264)"/>
      <use xlink:href="#NimbusRomNo9L-Regu-45" transform="translate(282.339725 0)scale(0.996264)"/>
      <use xlink:href="#NimbusRomNo9L-Regu-4c" transform="translate(343.211355 0)scale(0.996264)"/>
      <use xlink:href="#NimbusRomNo9L-Regu-2c" transform="translate(404.082986 0)scale(0.996264)"/>
      <use xlink:href="#NimbusRomNo9L-Regu-53" transform="translate(453.896186 0)scale(0.996264)"/>
      <use xlink:href="#NimbusRomNo9L-Regu-47" transform="translate(509.287863 0)scale(0.996264)"/>
      <use xlink:href="#NimbusRomNo9L-Regu-2c" transform="translate(581.217848 0)scale(0.996264)"/>
      <use xlink:href="#NimbusRomNo9L-Regu-4c" transform="translate(631.031049 0)scale(0.996264)"/>
      <use xlink:href="#NimbusRomNo9L-Regu-54" transform="translate(682.737798 0)scale(0.996264)"/>
     </g>
    </g>
    <g id="line2d_80">
     <path d="M 160.234564 142.843171 
L 170.234564 142.843171 
L 180.234564 142.843171 
" style="fill: none; stroke: #ff0000; stroke-linecap: square"/>
    </g>
    <g id="text_13">
     <!-- EPVP, VEL, SG, LT -->
     <g transform="translate(188.234564 146.343171)scale(0.1 -0.1)">
      <use xlink:href="#NimbusRomNo9L-Regu-45" transform="scale(0.996264)"/>
      <use xlink:href="#NimbusRomNo9L-Regu-50" transform="translate(60.871631 0)scale(0.996264)"/>
      <use xlink:href="#NimbusRomNo9L-Regu-56" transform="translate(116.263308 0)scale(0.996264)"/>
      <use xlink:href="#NimbusRomNo9L-Regu-50" transform="translate(188.193292 0)scale(0.996264)"/>
      <use xlink:href="#NimbusRomNo9L-Regu-2c" transform="translate(232.526524 0)scale(0.996264)"/>
      <use xlink:href="#NimbusRomNo9L-Regu-56" transform="translate(282.339725 0)scale(0.996264)"/>
      <use xlink:href="#NimbusRomNo9L-Regu-45" transform="translate(354.269709 0)scale(0.996264)"/>
      <use xlink:href="#NimbusRomNo9L-Regu-4c" transform="translate(415.14134 0)scale(0.996264)"/>
      <use xlink:href="#NimbusRomNo9L-Regu-2c" transform="translate(476.012971 0)scale(0.996264)"/>
      <use xlink:href="#NimbusRomNo9L-Regu-53" transform="translate(525.826171 0)scale(0.996264)"/>
      <use xlink:href="#NimbusRomNo9L-Regu-47" transform="translate(581.217848 0)scale(0.996264)"/>
      <use xlink:href="#NimbusRomNo9L-Regu-2c" transform="translate(653.147833 0)scale(0.996264)"/>
      <use xlink:href="#NimbusRomNo9L-Regu-4c" transform="translate(702.961034 0)scale(0.996264)"/>
      <use xlink:href="#NimbusRomNo9L-Regu-54" transform="translate(754.667783 0)scale(0.996264)"/>
     </g>
    </g>
   </g>
  </g>
 </g>
 <defs>
  <clipPath id="p2746945ad8">
   <rect x="40.5" y="21.6" width="251.1" height="135.9"/>
  </clipPath>
 </defs>
</svg>
