<?xml version="1.0" encoding="utf-8" standalone="no"?>
<!DOCTYPE svg PUBLIC "-//W3C//DTD SVG 1.1//EN"
  "http://www.w3.org/Graphics/SVG/1.1/DTD/svg11.dtd">
<svg xmlns:xlink="http://www.w3.org/1999/xlink" width="648pt" height="360pt" viewBox="0 0 648 360" xmlns="http://www.w3.org/2000/svg" version="1.1">
 <metadata>
  <rdf:RDF xmlns:dc="http://purl.org/dc/elements/1.1/" xmlns:cc="http://creativecommons.org/ns#" xmlns:rdf="http://www.w3.org/1999/02/22-rdf-syntax-ns#">
   <cc:Work>
    <dc:type rdf:resource="http://purl.org/dc/dcmitype/StillImage"/>
    <dc:date>2024-07-15T14:57:52.263718</dc:date>
    <dc:format>image/svg+xml</dc:format>
    <dc:creator>
     <cc:Agent>
      <dc:title>Matplotlib v3.5.2, https://matplotlib.org/</dc:title>
     </cc:Agent>
    </dc:creator>
   </cc:Work>
  </rdf:RDF>
 </metadata>
 <defs>
  <style type="text/css">*{stroke-linejoin: round; stroke-linecap: butt}</style>
 </defs>
 <g id="figure_1">
  <g id="patch_1">
   <path d="M 0 360 
L 648 360 
L 648 0 
L 0 0 
z
" style="fill: #ffffff"/>
  </g>
  <g id="axes_1">
   <g id="patch_2">
    <path d="M 81 315 
L 583.2 315 
L 583.2 43.2 
L 81 43.2 
z
" style="fill: #ffffff"/>
   </g>
   <g id="matplotlib.axis_1">
    <g id="xtick_1">
     <g id="line2d_1">
      <path d="M 128.828571 315 
L 128.828571 43.2 
" clip-path="url(#p9acaf545b5)" style="fill: none; stroke: #b0b0b0; stroke-width: 0.8; stroke-linecap: square"/>
     </g>
     <g id="line2d_2">
      <defs>
       <path id="m29ca865e38" d="M 0 0 
L 0 3.5 
" style="stroke: #000000; stroke-width: 0.8"/>
      </defs>
      <g>
       <use xlink:href="#m29ca865e38" x="128.828571" y="315" style="stroke: #000000; stroke-width: 0.8"/>
      </g>
     </g>
     <g id="text_1">
      <!-- $\mathdefault{-25}$ -->
      <g transform="translate(118.20647 330.105484)scale(0.12 -0.12)">
       <defs>
        <path id="CMSY10-0" d="M 4218 1472 
C 4326 1472 4442 1472 4442 1600 
C 4442 1728 4326 1728 4218 1728 
L 755 1728 
C 646 1728 531 1728 531 1600 
C 531 1472 646 1472 755 1472 
L 4218 1472 
z
" transform="scale(0.015625)"/>
        <path id="NimbusRomNo9L-Regu-32" d="M 3040 879 
L 2957 912 
C 2720 544 2637 486 2349 486 
L 819 486 
L 1894 1621 
C 2464 2221 2714 2711 2714 3214 
C 2714 3858 2195 4352 1530 4352 
C 1178 4352 845 4211 608 3955 
C 403 3736 307 3530 198 3072 
L 333 3039 
C 589 3671 819 3878 1261 3878 
C 1798 3878 2163 3510 2163 2969 
C 2163 2466 1869 1866 1331 1292 
L 192 76 
L 192 0 
L 2688 0 
L 3040 879 
z
" transform="scale(0.015625)"/>
        <path id="NimbusRomNo9L-Regu-35" d="M 1158 3718 
L 2413 3718 
C 2515 3718 2541 3731 2560 3775 
L 2803 4345 
L 2746 4390 
C 2650 4256 2586 4224 2451 4224 
L 1114 4224 
L 416 2717 
C 410 2705 410 2698 410 2686 
C 410 2654 435 2635 486 2635 
C 691 2635 947 2591 1210 2508 
C 1946 2274 2285 1882 2285 1255 
C 2285 647 1894 172 1395 172 
C 1267 172 1158 217 966 356 
C 762 502 614 565 480 565 
C 294 565 205 489 205 331 
C 205 89 506 -64 986 -64 
C 1523 -64 1984 108 2304 432 
C 2598 717 2733 1078 2733 1559 
C 2733 2015 2611 2306 2291 2622 
C 2010 2901 1645 3047 890 3180 
L 1158 3718 
z
" transform="scale(0.015625)"/>
       </defs>
       <use xlink:href="#CMSY10-0" transform="scale(0.996264)"/>
       <use xlink:href="#NimbusRomNo9L-Regu-32" transform="translate(77.408707 0)scale(0.996264)"/>
       <use xlink:href="#NimbusRomNo9L-Regu-35" transform="translate(127.221908 0)scale(0.996264)"/>
      </g>
     </g>
    </g>
    <g id="xtick_2">
     <g id="line2d_3">
      <path d="M 200.571429 315 
L 200.571429 43.2 
" clip-path="url(#p9acaf545b5)" style="fill: none; stroke: #b0b0b0; stroke-width: 0.8; stroke-linecap: square"/>
     </g>
     <g id="line2d_4">
      <g>
       <use xlink:href="#m29ca865e38" x="200.571429" y="315" style="stroke: #000000; stroke-width: 0.8"/>
      </g>
     </g>
     <g id="text_2">
      <!-- $\mathdefault{-20}$ -->
      <g transform="translate(189.949328 330.105484)scale(0.12 -0.12)">
       <defs>
        <path id="NimbusRomNo9L-Regu-30" d="M 1626 4352 
C 1274 4352 1005 4243 768 4019 
C 397 3661 154 2924 154 2176 
C 154 1478 365 729 666 371 
C 902 89 1229 -64 1600 -64 
C 1926 -64 2202 44 2432 268 
C 2803 620 3046 1363 3046 2137 
C 3046 3449 2464 4352 1626 4352 
z
M 1606 4185 
C 2144 4185 2432 3462 2432 2124 
C 2432 787 2150 102 1600 102 
C 1050 102 768 787 768 2118 
C 768 3475 1056 4185 1606 4185 
z
" transform="scale(0.015625)"/>
       </defs>
       <use xlink:href="#CMSY10-0" transform="scale(0.996264)"/>
       <use xlink:href="#NimbusRomNo9L-Regu-32" transform="translate(77.408707 0)scale(0.996264)"/>
       <use xlink:href="#NimbusRomNo9L-Regu-30" transform="translate(127.221908 0)scale(0.996264)"/>
      </g>
     </g>
    </g>
    <g id="xtick_3">
     <g id="line2d_5">
      <path d="M 272.314286 315 
L 272.314286 43.2 
" clip-path="url(#p9acaf545b5)" style="fill: none; stroke: #b0b0b0; stroke-width: 0.8; stroke-linecap: square"/>
     </g>
     <g id="line2d_6">
      <g>
       <use xlink:href="#m29ca865e38" x="272.314286" y="315" style="stroke: #000000; stroke-width: 0.8"/>
      </g>
     </g>
     <g id="text_3">
      <!-- $\mathdefault{-15}$ -->
      <g transform="translate(261.692185 330.105484)scale(0.12 -0.12)">
       <defs>
        <path id="NimbusRomNo9L-Regu-31" d="M 1862 4352 
L 710 3776 
L 710 3686 
C 787 3718 858 3743 883 3756 
C 998 3801 1107 3826 1171 3826 
C 1306 3826 1363 3731 1363 3525 
L 1363 599 
C 1363 386 1312 238 1210 179 
C 1114 121 1024 102 755 96 
L 755 0 
L 2522 0 
L 2522 96 
C 2016 102 1914 167 1914 477 
L 1914 4339 
L 1862 4352 
z
" transform="scale(0.015625)"/>
       </defs>
       <use xlink:href="#CMSY10-0" transform="scale(0.996264)"/>
       <use xlink:href="#NimbusRomNo9L-Regu-31" transform="translate(77.408707 0)scale(0.996264)"/>
       <use xlink:href="#NimbusRomNo9L-Regu-35" transform="translate(127.221908 0)scale(0.996264)"/>
      </g>
     </g>
    </g>
    <g id="xtick_4">
     <g id="line2d_7">
      <path d="M 344.057143 315 
L 344.057143 43.2 
" clip-path="url(#p9acaf545b5)" style="fill: none; stroke: #b0b0b0; stroke-width: 0.8; stroke-linecap: square"/>
     </g>
     <g id="line2d_8">
      <g>
       <use xlink:href="#m29ca865e38" x="344.057143" y="315" style="stroke: #000000; stroke-width: 0.8"/>
      </g>
     </g>
     <g id="text_4">
      <!-- $\mathdefault{-10}$ -->
      <g transform="translate(333.435042 330.105484)scale(0.12 -0.12)">
       <use xlink:href="#CMSY10-0" transform="scale(0.996264)"/>
       <use xlink:href="#NimbusRomNo9L-Regu-31" transform="translate(77.408707 0)scale(0.996264)"/>
       <use xlink:href="#NimbusRomNo9L-Regu-30" transform="translate(127.221908 0)scale(0.996264)"/>
      </g>
     </g>
    </g>
    <g id="xtick_5">
     <g id="line2d_9">
      <path d="M 415.8 315 
L 415.8 43.2 
" clip-path="url(#p9acaf545b5)" style="fill: none; stroke: #b0b0b0; stroke-width: 0.8; stroke-linecap: square"/>
     </g>
     <g id="line2d_10">
      <g>
       <use xlink:href="#m29ca865e38" x="415.8" y="315" style="stroke: #000000; stroke-width: 0.8"/>
      </g>
     </g>
     <g id="text_5">
      <!-- $\mathdefault{-5}$ -->
      <g transform="translate(408.166691 330.105484)scale(0.12 -0.12)">
       <use xlink:href="#CMSY10-0" transform="scale(0.996264)"/>
       <use xlink:href="#NimbusRomNo9L-Regu-35" transform="translate(77.408707 0)scale(0.996264)"/>
      </g>
     </g>
    </g>
    <g id="xtick_6">
     <g id="line2d_11">
      <path d="M 487.542857 315 
L 487.542857 43.2 
" clip-path="url(#p9acaf545b5)" style="fill: none; stroke: #b0b0b0; stroke-width: 0.8; stroke-linecap: square"/>
     </g>
     <g id="line2d_12">
      <g>
       <use xlink:href="#m29ca865e38" x="487.542857" y="315" style="stroke: #000000; stroke-width: 0.8"/>
      </g>
     </g>
     <g id="text_6">
      <!-- $\mathdefault{0}$ -->
      <g transform="translate(484.554065 330.105484)scale(0.12 -0.12)">
       <use xlink:href="#NimbusRomNo9L-Regu-30" transform="scale(0.996264)"/>
      </g>
     </g>
    </g>
    <g id="xtick_7">
     <g id="line2d_13">
      <path d="M 559.285714 315 
L 559.285714 43.2 
" clip-path="url(#p9acaf545b5)" style="fill: none; stroke: #b0b0b0; stroke-width: 0.8; stroke-linecap: square"/>
     </g>
     <g id="line2d_14">
      <g>
       <use xlink:href="#m29ca865e38" x="559.285714" y="315" style="stroke: #000000; stroke-width: 0.8"/>
      </g>
     </g>
     <g id="text_7">
      <!-- $\mathdefault{5}$ -->
      <g transform="translate(556.296922 330.105484)scale(0.12 -0.12)">
       <use xlink:href="#NimbusRomNo9L-Regu-35" transform="scale(0.996264)"/>
      </g>
     </g>
    </g>
    <g id="xtick_8">
     <g id="line2d_15">
      <path d="M 85.782857 315 
L 85.782857 43.2 
" clip-path="url(#p9acaf545b5)" style="fill: none; stroke: #b0b0b0; stroke-opacity: 0.3; stroke-width: 0.8; stroke-linecap: square"/>
     </g>
     <g id="line2d_16">
      <defs>
       <path id="m8b0d278996" d="M 0 0 
L 0 2 
" style="stroke: #000000; stroke-width: 0.6"/>
      </defs>
      <g>
       <use xlink:href="#m8b0d278996" x="85.782857" y="315" style="stroke: #000000; stroke-width: 0.6"/>
      </g>
     </g>
    </g>
    <g id="xtick_9">
     <g id="line2d_17">
      <path d="M 100.131429 315 
L 100.131429 43.2 
" clip-path="url(#p9acaf545b5)" style="fill: none; stroke: #b0b0b0; stroke-opacity: 0.3; stroke-width: 0.8; stroke-linecap: square"/>
     </g>
     <g id="line2d_18">
      <g>
       <use xlink:href="#m8b0d278996" x="100.131429" y="315" style="stroke: #000000; stroke-width: 0.6"/>
      </g>
     </g>
    </g>
    <g id="xtick_10">
     <g id="line2d_19">
      <path d="M 114.48 315 
L 114.48 43.2 
" clip-path="url(#p9acaf545b5)" style="fill: none; stroke: #b0b0b0; stroke-opacity: 0.3; stroke-width: 0.8; stroke-linecap: square"/>
     </g>
     <g id="line2d_20">
      <g>
       <use xlink:href="#m8b0d278996" x="114.48" y="315" style="stroke: #000000; stroke-width: 0.6"/>
      </g>
     </g>
    </g>
    <g id="xtick_11">
     <g id="line2d_21">
      <path d="M 143.177143 315 
L 143.177143 43.2 
" clip-path="url(#p9acaf545b5)" style="fill: none; stroke: #b0b0b0; stroke-opacity: 0.3; stroke-width: 0.8; stroke-linecap: square"/>
     </g>
     <g id="line2d_22">
      <g>
       <use xlink:href="#m8b0d278996" x="143.177143" y="315" style="stroke: #000000; stroke-width: 0.6"/>
      </g>
     </g>
    </g>
    <g id="xtick_12">
     <g id="line2d_23">
      <path d="M 157.525714 315 
L 157.525714 43.2 
" clip-path="url(#p9acaf545b5)" style="fill: none; stroke: #b0b0b0; stroke-opacity: 0.3; stroke-width: 0.8; stroke-linecap: square"/>
     </g>
     <g id="line2d_24">
      <g>
       <use xlink:href="#m8b0d278996" x="157.525714" y="315" style="stroke: #000000; stroke-width: 0.6"/>
      </g>
     </g>
    </g>
    <g id="xtick_13">
     <g id="line2d_25">
      <path d="M 171.874286 315 
L 171.874286 43.2 
" clip-path="url(#p9acaf545b5)" style="fill: none; stroke: #b0b0b0; stroke-opacity: 0.3; stroke-width: 0.8; stroke-linecap: square"/>
     </g>
     <g id="line2d_26">
      <g>
       <use xlink:href="#m8b0d278996" x="171.874286" y="315" style="stroke: #000000; stroke-width: 0.6"/>
      </g>
     </g>
    </g>
    <g id="xtick_14">
     <g id="line2d_27">
      <path d="M 186.222857 315 
L 186.222857 43.2 
" clip-path="url(#p9acaf545b5)" style="fill: none; stroke: #b0b0b0; stroke-opacity: 0.3; stroke-width: 0.8; stroke-linecap: square"/>
     </g>
     <g id="line2d_28">
      <g>
       <use xlink:href="#m8b0d278996" x="186.222857" y="315" style="stroke: #000000; stroke-width: 0.6"/>
      </g>
     </g>
    </g>
    <g id="xtick_15">
     <g id="line2d_29">
      <path d="M 214.92 315 
L 214.92 43.2 
" clip-path="url(#p9acaf545b5)" style="fill: none; stroke: #b0b0b0; stroke-opacity: 0.3; stroke-width: 0.8; stroke-linecap: square"/>
     </g>
     <g id="line2d_30">
      <g>
       <use xlink:href="#m8b0d278996" x="214.92" y="315" style="stroke: #000000; stroke-width: 0.6"/>
      </g>
     </g>
    </g>
    <g id="xtick_16">
     <g id="line2d_31">
      <path d="M 229.268571 315 
L 229.268571 43.2 
" clip-path="url(#p9acaf545b5)" style="fill: none; stroke: #b0b0b0; stroke-opacity: 0.3; stroke-width: 0.8; stroke-linecap: square"/>
     </g>
     <g id="line2d_32">
      <g>
       <use xlink:href="#m8b0d278996" x="229.268571" y="315" style="stroke: #000000; stroke-width: 0.6"/>
      </g>
     </g>
    </g>
    <g id="xtick_17">
     <g id="line2d_33">
      <path d="M 243.617143 315 
L 243.617143 43.2 
" clip-path="url(#p9acaf545b5)" style="fill: none; stroke: #b0b0b0; stroke-opacity: 0.3; stroke-width: 0.8; stroke-linecap: square"/>
     </g>
     <g id="line2d_34">
      <g>
       <use xlink:href="#m8b0d278996" x="243.617143" y="315" style="stroke: #000000; stroke-width: 0.6"/>
      </g>
     </g>
    </g>
    <g id="xtick_18">
     <g id="line2d_35">
      <path d="M 257.965714 315 
L 257.965714 43.2 
" clip-path="url(#p9acaf545b5)" style="fill: none; stroke: #b0b0b0; stroke-opacity: 0.3; stroke-width: 0.8; stroke-linecap: square"/>
     </g>
     <g id="line2d_36">
      <g>
       <use xlink:href="#m8b0d278996" x="257.965714" y="315" style="stroke: #000000; stroke-width: 0.6"/>
      </g>
     </g>
    </g>
    <g id="xtick_19">
     <g id="line2d_37">
      <path d="M 286.662857 315 
L 286.662857 43.2 
" clip-path="url(#p9acaf545b5)" style="fill: none; stroke: #b0b0b0; stroke-opacity: 0.3; stroke-width: 0.8; stroke-linecap: square"/>
     </g>
     <g id="line2d_38">
      <g>
       <use xlink:href="#m8b0d278996" x="286.662857" y="315" style="stroke: #000000; stroke-width: 0.6"/>
      </g>
     </g>
    </g>
    <g id="xtick_20">
     <g id="line2d_39">
      <path d="M 301.011429 315 
L 301.011429 43.2 
" clip-path="url(#p9acaf545b5)" style="fill: none; stroke: #b0b0b0; stroke-opacity: 0.3; stroke-width: 0.8; stroke-linecap: square"/>
     </g>
     <g id="line2d_40">
      <g>
       <use xlink:href="#m8b0d278996" x="301.011429" y="315" style="stroke: #000000; stroke-width: 0.6"/>
      </g>
     </g>
    </g>
    <g id="xtick_21">
     <g id="line2d_41">
      <path d="M 315.36 315 
L 315.36 43.2 
" clip-path="url(#p9acaf545b5)" style="fill: none; stroke: #b0b0b0; stroke-opacity: 0.3; stroke-width: 0.8; stroke-linecap: square"/>
     </g>
     <g id="line2d_42">
      <g>
       <use xlink:href="#m8b0d278996" x="315.36" y="315" style="stroke: #000000; stroke-width: 0.6"/>
      </g>
     </g>
    </g>
    <g id="xtick_22">
     <g id="line2d_43">
      <path d="M 329.708571 315 
L 329.708571 43.2 
" clip-path="url(#p9acaf545b5)" style="fill: none; stroke: #b0b0b0; stroke-opacity: 0.3; stroke-width: 0.8; stroke-linecap: square"/>
     </g>
     <g id="line2d_44">
      <g>
       <use xlink:href="#m8b0d278996" x="329.708571" y="315" style="stroke: #000000; stroke-width: 0.6"/>
      </g>
     </g>
    </g>
    <g id="xtick_23">
     <g id="line2d_45">
      <path d="M 358.405714 315 
L 358.405714 43.2 
" clip-path="url(#p9acaf545b5)" style="fill: none; stroke: #b0b0b0; stroke-opacity: 0.3; stroke-width: 0.8; stroke-linecap: square"/>
     </g>
     <g id="line2d_46">
      <g>
       <use xlink:href="#m8b0d278996" x="358.405714" y="315" style="stroke: #000000; stroke-width: 0.6"/>
      </g>
     </g>
    </g>
    <g id="xtick_24">
     <g id="line2d_47">
      <path d="M 372.754286 315 
L 372.754286 43.2 
" clip-path="url(#p9acaf545b5)" style="fill: none; stroke: #b0b0b0; stroke-opacity: 0.3; stroke-width: 0.8; stroke-linecap: square"/>
     </g>
     <g id="line2d_48">
      <g>
       <use xlink:href="#m8b0d278996" x="372.754286" y="315" style="stroke: #000000; stroke-width: 0.6"/>
      </g>
     </g>
    </g>
    <g id="xtick_25">
     <g id="line2d_49">
      <path d="M 387.102857 315 
L 387.102857 43.2 
" clip-path="url(#p9acaf545b5)" style="fill: none; stroke: #b0b0b0; stroke-opacity: 0.3; stroke-width: 0.8; stroke-linecap: square"/>
     </g>
     <g id="line2d_50">
      <g>
       <use xlink:href="#m8b0d278996" x="387.102857" y="315" style="stroke: #000000; stroke-width: 0.6"/>
      </g>
     </g>
    </g>
    <g id="xtick_26">
     <g id="line2d_51">
      <path d="M 401.451429 315 
L 401.451429 43.2 
" clip-path="url(#p9acaf545b5)" style="fill: none; stroke: #b0b0b0; stroke-opacity: 0.3; stroke-width: 0.8; stroke-linecap: square"/>
     </g>
     <g id="line2d_52">
      <g>
       <use xlink:href="#m8b0d278996" x="401.451429" y="315" style="stroke: #000000; stroke-width: 0.6"/>
      </g>
     </g>
    </g>
    <g id="xtick_27">
     <g id="line2d_53">
      <path d="M 430.148571 315 
L 430.148571 43.2 
" clip-path="url(#p9acaf545b5)" style="fill: none; stroke: #b0b0b0; stroke-opacity: 0.3; stroke-width: 0.8; stroke-linecap: square"/>
     </g>
     <g id="line2d_54">
      <g>
       <use xlink:href="#m8b0d278996" x="430.148571" y="315" style="stroke: #000000; stroke-width: 0.6"/>
      </g>
     </g>
    </g>
    <g id="xtick_28">
     <g id="line2d_55">
      <path d="M 444.497143 315 
L 444.497143 43.2 
" clip-path="url(#p9acaf545b5)" style="fill: none; stroke: #b0b0b0; stroke-opacity: 0.3; stroke-width: 0.8; stroke-linecap: square"/>
     </g>
     <g id="line2d_56">
      <g>
       <use xlink:href="#m8b0d278996" x="444.497143" y="315" style="stroke: #000000; stroke-width: 0.6"/>
      </g>
     </g>
    </g>
    <g id="xtick_29">
     <g id="line2d_57">
      <path d="M 458.845714 315 
L 458.845714 43.2 
" clip-path="url(#p9acaf545b5)" style="fill: none; stroke: #b0b0b0; stroke-opacity: 0.3; stroke-width: 0.8; stroke-linecap: square"/>
     </g>
     <g id="line2d_58">
      <g>
       <use xlink:href="#m8b0d278996" x="458.845714" y="315" style="stroke: #000000; stroke-width: 0.6"/>
      </g>
     </g>
    </g>
    <g id="xtick_30">
     <g id="line2d_59">
      <path d="M 473.194286 315 
L 473.194286 43.2 
" clip-path="url(#p9acaf545b5)" style="fill: none; stroke: #b0b0b0; stroke-opacity: 0.3; stroke-width: 0.8; stroke-linecap: square"/>
     </g>
     <g id="line2d_60">
      <g>
       <use xlink:href="#m8b0d278996" x="473.194286" y="315" style="stroke: #000000; stroke-width: 0.6"/>
      </g>
     </g>
    </g>
    <g id="xtick_31">
     <g id="line2d_61">
      <path d="M 501.891429 315 
L 501.891429 43.2 
" clip-path="url(#p9acaf545b5)" style="fill: none; stroke: #b0b0b0; stroke-opacity: 0.3; stroke-width: 0.8; stroke-linecap: square"/>
     </g>
     <g id="line2d_62">
      <g>
       <use xlink:href="#m8b0d278996" x="501.891429" y="315" style="stroke: #000000; stroke-width: 0.6"/>
      </g>
     </g>
    </g>
    <g id="xtick_32">
     <g id="line2d_63">
      <path d="M 516.24 315 
L 516.24 43.2 
" clip-path="url(#p9acaf545b5)" style="fill: none; stroke: #b0b0b0; stroke-opacity: 0.3; stroke-width: 0.8; stroke-linecap: square"/>
     </g>
     <g id="line2d_64">
      <g>
       <use xlink:href="#m8b0d278996" x="516.24" y="315" style="stroke: #000000; stroke-width: 0.6"/>
      </g>
     </g>
    </g>
    <g id="xtick_33">
     <g id="line2d_65">
      <path d="M 530.588571 315 
L 530.588571 43.2 
" clip-path="url(#p9acaf545b5)" style="fill: none; stroke: #b0b0b0; stroke-opacity: 0.3; stroke-width: 0.8; stroke-linecap: square"/>
     </g>
     <g id="line2d_66">
      <g>
       <use xlink:href="#m8b0d278996" x="530.588571" y="315" style="stroke: #000000; stroke-width: 0.6"/>
      </g>
     </g>
    </g>
    <g id="xtick_34">
     <g id="line2d_67">
      <path d="M 544.937143 315 
L 544.937143 43.2 
" clip-path="url(#p9acaf545b5)" style="fill: none; stroke: #b0b0b0; stroke-opacity: 0.3; stroke-width: 0.8; stroke-linecap: square"/>
     </g>
     <g id="line2d_68">
      <g>
       <use xlink:href="#m8b0d278996" x="544.937143" y="315" style="stroke: #000000; stroke-width: 0.6"/>
      </g>
     </g>
    </g>
    <g id="xtick_35">
     <g id="line2d_69">
      <path d="M 573.634286 315 
L 573.634286 43.2 
" clip-path="url(#p9acaf545b5)" style="fill: none; stroke: #b0b0b0; stroke-opacity: 0.3; stroke-width: 0.8; stroke-linecap: square"/>
     </g>
     <g id="line2d_70">
      <g>
       <use xlink:href="#m8b0d278996" x="573.634286" y="315" style="stroke: #000000; stroke-width: 0.6"/>
      </g>
     </g>
    </g>
    <g id="text_8">
     <!-- $z/R_t$ -->
     <g transform="translate(321.999495 345.660055)scale(0.12 -0.12)">
      <defs>
       <path id="NimbusRomNo9L-ReguItal-7a" d="M 518 1991 
C 653 2310 736 2368 1037 2368 
L 1971 2368 
L -13 -7 
L 45 -64 
C 147 19 230 51 339 51 
C 493 51 704 -32 1005 -225 
C 1325 -429 1542 -512 1722 -512 
C 2042 -512 2323 -278 2323 -13 
C 2323 121 2234 217 2099 217 
C 1971 198 1882 115 1882 0 
C 1882 -57 1901 -120 1939 -189 
C 1958 -227 1971 -265 1971 -284 
C 1971 -340 1901 -378 1798 -378 
C 1638 -378 1562 -328 1350 -63 
C 1069 301 947 385 576 469 
L 2432 2681 
L 2432 2752 
L 614 2752 
L 416 2013 
L 518 1991 
z
" transform="scale(0.015625)"/>
       <path id="CMMI10-3d" d="M 2810 4557 
C 2842 4640 2842 4665 2842 4672 
C 2842 4742 2784 4800 2714 4800 
C 2669 4800 2624 4780 2605 4742 
L 384 -1357 
C 352 -1440 352 -1466 352 -1472 
C 352 -1543 410 -1600 480 -1600 
C 563 -1600 582 -1556 621 -1447 
L 2810 4557 
z
" transform="scale(0.015625)"/>
       <path id="NimbusRomNo9L-ReguItal-52" d="M 3629 102 
C 3347 121 3219 229 3098 561 
L 2502 2121 
C 2995 2229 3206 2318 3437 2522 
C 3648 2707 3763 2955 3763 3242 
C 3763 3834 3290 4160 2432 4160 
L 845 4160 
L 845 4057 
C 1114 4019 1146 4012 1210 3967 
C 1261 3936 1299 3859 1299 3789 
C 1299 3713 1267 3560 1222 3388 
L 435 573 
C 320 198 275 159 -83 102 
L -83 0 
L 1478 0 
L 1478 102 
C 1088 153 1043 185 1043 395 
C 1043 459 1062 541 1120 764 
L 1478 2095 
L 1894 2063 
L 2682 0 
L 3629 0 
L 3629 102 
z
M 1971 3789 
C 2010 3923 2093 3967 2298 3967 
C 2829 3967 3091 3726 3091 3254 
C 3091 2624 2682 2299 1882 2299 
C 1779 2299 1709 2305 1555 2331 
L 1971 3789 
z
" transform="scale(0.015625)"/>
       <path id="NimbusRomNo9L-ReguItal-74" d="M 1894 2752 
L 1382 2752 
L 1562 3411 
C 1568 3424 1568 3436 1568 3443 
C 1568 3488 1549 3507 1517 3507 
C 1478 3507 1459 3500 1421 3449 
C 1171 3123 774 2803 570 2745 
C 410 2694 365 2655 365 2585 
C 365 2579 365 2566 371 2547 
L 845 2547 
L 384 782 
C 371 724 365 705 346 647 
C 288 454 237 230 237 179 
C 237 38 371 -64 544 -64 
C 838 -64 1050 115 1453 711 
L 1370 756 
C 1056 352 954 249 851 249 
C 794 249 755 300 755 377 
C 755 384 755 390 762 410 
L 1325 2547 
L 1862 2547 
L 1894 2752 
z
" transform="scale(0.015625)"/>
      </defs>
      <use xlink:href="#NimbusRomNo9L-ReguItal-7a" transform="scale(0.996264)"/>
      <use xlink:href="#CMMI10-3d" transform="translate(38.753706 0)scale(0.996264)"/>
      <use xlink:href="#NimbusRomNo9L-ReguItal-52" transform="translate(88.566907 0)scale(0.996264)"/>
      <use xlink:href="#NimbusRomNo9L-ReguItal-74" transform="translate(147.595458 -14.943915)scale(0.737241)"/>
     </g>
    </g>
   </g>
   <g id="matplotlib.axis_2">
    <g id="ytick_1">
     <g id="line2d_71">
      <path d="M 81 315 
L 583.2 315 
" clip-path="url(#p9acaf545b5)" style="fill: none; stroke: #b0b0b0; stroke-width: 0.8; stroke-linecap: square"/>
     </g>
     <g id="line2d_72">
      <defs>
       <path id="m6697938e6d" d="M 0 0 
L -3.5 0 
" style="stroke: #000000; stroke-width: 0.8"/>
      </defs>
      <g>
       <use xlink:href="#m6697938e6d" x="81" y="315" style="stroke: #000000; stroke-width: 0.8"/>
      </g>
     </g>
     <g id="text_9">
      <!-- 0.00 -->
      <g transform="translate(53.078456 319.052742)scale(0.12 -0.12)">
       <defs>
        <path id="NimbusRomNo9L-Regu-2e" d="M 800 646 
C 608 646 448 480 448 281 
C 448 96 608 -64 794 -64 
C 992 -64 1158 96 1158 281 
C 1158 480 992 646 800 646 
z
" transform="scale(0.015625)"/>
       </defs>
       <use xlink:href="#NimbusRomNo9L-Regu-30" transform="scale(0.996264)"/>
       <use xlink:href="#NimbusRomNo9L-Regu-2e" transform="translate(49.8132 0)scale(0.996264)"/>
       <use xlink:href="#NimbusRomNo9L-Regu-30" transform="translate(74.719801 0)scale(0.996264)"/>
       <use xlink:href="#NimbusRomNo9L-Regu-30" transform="translate(124.533001 0)scale(0.996264)"/>
      </g>
     </g>
    </g>
    <g id="ytick_2">
     <g id="line2d_73">
      <path d="M 81 278.76 
L 583.2 278.76 
" clip-path="url(#p9acaf545b5)" style="fill: none; stroke: #b0b0b0; stroke-width: 0.8; stroke-linecap: square"/>
     </g>
     <g id="line2d_74">
      <g>
       <use xlink:href="#m6697938e6d" x="81" y="278.76" style="stroke: #000000; stroke-width: 0.8"/>
      </g>
     </g>
     <g id="text_10">
      <!-- 0.20 -->
      <g transform="translate(53.078456 282.812742)scale(0.12 -0.12)">
       <use xlink:href="#NimbusRomNo9L-Regu-30" transform="scale(0.996264)"/>
       <use xlink:href="#NimbusRomNo9L-Regu-2e" transform="translate(49.8132 0)scale(0.996264)"/>
       <use xlink:href="#NimbusRomNo9L-Regu-32" transform="translate(74.719801 0)scale(0.996264)"/>
       <use xlink:href="#NimbusRomNo9L-Regu-30" transform="translate(124.533001 0)scale(0.996264)"/>
      </g>
     </g>
    </g>
    <g id="ytick_3">
     <g id="line2d_75">
      <path d="M 81 242.52 
L 583.2 242.52 
" clip-path="url(#p9acaf545b5)" style="fill: none; stroke: #b0b0b0; stroke-width: 0.8; stroke-linecap: square"/>
     </g>
     <g id="line2d_76">
      <g>
       <use xlink:href="#m6697938e6d" x="81" y="242.52" style="stroke: #000000; stroke-width: 0.8"/>
      </g>
     </g>
     <g id="text_11">
      <!-- 0.40 -->
      <g transform="translate(53.078456 246.572742)scale(0.12 -0.12)">
       <defs>
        <path id="NimbusRomNo9L-Regu-34" d="M 3021 1497 
L 2368 1497 
L 2368 4352 
L 2086 4352 
L 77 1497 
L 77 1088 
L 1875 1088 
L 1875 0 
L 2368 0 
L 2368 1088 
L 3021 1088 
L 3021 1497 
z
M 1869 1497 
L 333 1497 
L 1869 3697 
L 1869 1497 
z
" transform="scale(0.015625)"/>
       </defs>
       <use xlink:href="#NimbusRomNo9L-Regu-30" transform="scale(0.996264)"/>
       <use xlink:href="#NimbusRomNo9L-Regu-2e" transform="translate(49.8132 0)scale(0.996264)"/>
       <use xlink:href="#NimbusRomNo9L-Regu-34" transform="translate(74.719801 0)scale(0.996264)"/>
       <use xlink:href="#NimbusRomNo9L-Regu-30" transform="translate(124.533001 0)scale(0.996264)"/>
      </g>
     </g>
    </g>
    <g id="ytick_4">
     <g id="line2d_77">
      <path d="M 81 206.28 
L 583.2 206.28 
" clip-path="url(#p9acaf545b5)" style="fill: none; stroke: #b0b0b0; stroke-width: 0.8; stroke-linecap: square"/>
     </g>
     <g id="line2d_78">
      <g>
       <use xlink:href="#m6697938e6d" x="81" y="206.28" style="stroke: #000000; stroke-width: 0.8"/>
      </g>
     </g>
     <g id="text_12">
      <!-- 0.60 -->
      <g transform="translate(53.078456 210.332742)scale(0.12 -0.12)">
       <defs>
        <path id="NimbusRomNo9L-Regu-36" d="M 2854 4390 
C 2125 4326 1754 4204 1286 3878 
C 595 3385 218 2655 218 1801 
C 218 1248 390 688 666 369 
C 909 89 1254 -64 1651 -64 
C 2445 -64 2995 541 2995 1420 
C 2995 2234 2528 2752 1792 2752 
C 1510 2752 1376 2707 973 2463 
C 1146 3430 1862 4121 2867 4288 
L 2854 4390 
z
M 1549 2457 
C 2099 2457 2419 1999 2419 1203 
C 2419 503 2170 115 1722 115 
C 1158 115 813 713 813 1700 
C 813 2024 864 2203 992 2298 
C 1126 2400 1325 2457 1549 2457 
z
" transform="scale(0.015625)"/>
       </defs>
       <use xlink:href="#NimbusRomNo9L-Regu-30" transform="scale(0.996264)"/>
       <use xlink:href="#NimbusRomNo9L-Regu-2e" transform="translate(49.8132 0)scale(0.996264)"/>
       <use xlink:href="#NimbusRomNo9L-Regu-36" transform="translate(74.719801 0)scale(0.996264)"/>
       <use xlink:href="#NimbusRomNo9L-Regu-30" transform="translate(124.533001 0)scale(0.996264)"/>
      </g>
     </g>
    </g>
    <g id="ytick_5">
     <g id="line2d_79">
      <path d="M 81 170.04 
L 583.2 170.04 
" clip-path="url(#p9acaf545b5)" style="fill: none; stroke: #b0b0b0; stroke-width: 0.8; stroke-linecap: square"/>
     </g>
     <g id="line2d_80">
      <g>
       <use xlink:href="#m6697938e6d" x="81" y="170.04" style="stroke: #000000; stroke-width: 0.8"/>
      </g>
     </g>
     <g id="text_13">
      <!-- 0.80 -->
      <g transform="translate(53.078456 174.092742)scale(0.12 -0.12)">
       <defs>
        <path id="NimbusRomNo9L-Regu-38" d="M 1856 2400 
C 2490 2739 2714 3008 2714 3443 
C 2714 3968 2253 4352 1613 4352 
C 915 4352 397 3923 397 3341 
C 397 2924 518 2739 1190 2150 
C 499 1625 358 1427 358 992 
C 358 371 864 -64 1587 -64 
C 2355 -64 2848 358 2848 1017 
C 2848 1510 2630 1824 1856 2400 
z
M 1741 1740 
C 2208 1408 2362 1177 2362 819 
C 2362 403 2074 115 1658 115 
C 1171 115 845 486 845 1043 
C 845 1452 986 1721 1357 2022 
L 1741 1740 
z
M 1670 2515 
C 1101 2886 870 3180 870 3539 
C 870 3910 1158 4172 1562 4172 
C 1997 4172 2272 3891 2272 3449 
C 2272 3084 2093 2796 1728 2553 
C 1696 2534 1696 2534 1670 2515 
z
" transform="scale(0.015625)"/>
       </defs>
       <use xlink:href="#NimbusRomNo9L-Regu-30" transform="scale(0.996264)"/>
       <use xlink:href="#NimbusRomNo9L-Regu-2e" transform="translate(49.8132 0)scale(0.996264)"/>
       <use xlink:href="#NimbusRomNo9L-Regu-38" transform="translate(74.719801 0)scale(0.996264)"/>
       <use xlink:href="#NimbusRomNo9L-Regu-30" transform="translate(124.533001 0)scale(0.996264)"/>
      </g>
     </g>
    </g>
    <g id="ytick_6">
     <g id="line2d_81">
      <path d="M 81 133.8 
L 583.2 133.8 
" clip-path="url(#p9acaf545b5)" style="fill: none; stroke: #b0b0b0; stroke-width: 0.8; stroke-linecap: square"/>
     </g>
     <g id="line2d_82">
      <g>
       <use xlink:href="#m6697938e6d" x="81" y="133.8" style="stroke: #000000; stroke-width: 0.8"/>
      </g>
     </g>
     <g id="text_14">
      <!-- 1.00 -->
      <g transform="translate(53.078456 137.852742)scale(0.12 -0.12)">
       <use xlink:href="#NimbusRomNo9L-Regu-31" transform="scale(0.996264)"/>
       <use xlink:href="#NimbusRomNo9L-Regu-2e" transform="translate(49.8132 0)scale(0.996264)"/>
       <use xlink:href="#NimbusRomNo9L-Regu-30" transform="translate(74.719801 0)scale(0.996264)"/>
       <use xlink:href="#NimbusRomNo9L-Regu-30" transform="translate(124.533001 0)scale(0.996264)"/>
      </g>
     </g>
    </g>
    <g id="ytick_7">
     <g id="line2d_83">
      <path d="M 81 97.56 
L 583.2 97.56 
" clip-path="url(#p9acaf545b5)" style="fill: none; stroke: #b0b0b0; stroke-width: 0.8; stroke-linecap: square"/>
     </g>
     <g id="line2d_84">
      <g>
       <use xlink:href="#m6697938e6d" x="81" y="97.56" style="stroke: #000000; stroke-width: 0.8"/>
      </g>
     </g>
     <g id="text_15">
      <!-- 1.20 -->
      <g transform="translate(53.078456 101.612742)scale(0.12 -0.12)">
       <use xlink:href="#NimbusRomNo9L-Regu-31" transform="scale(0.996264)"/>
       <use xlink:href="#NimbusRomNo9L-Regu-2e" transform="translate(49.8132 0)scale(0.996264)"/>
       <use xlink:href="#NimbusRomNo9L-Regu-32" transform="translate(74.719801 0)scale(0.996264)"/>
       <use xlink:href="#NimbusRomNo9L-Regu-30" transform="translate(124.533001 0)scale(0.996264)"/>
      </g>
     </g>
    </g>
    <g id="ytick_8">
     <g id="line2d_85">
      <path d="M 81 61.32 
L 583.2 61.32 
" clip-path="url(#p9acaf545b5)" style="fill: none; stroke: #b0b0b0; stroke-width: 0.8; stroke-linecap: square"/>
     </g>
     <g id="line2d_86">
      <g>
       <use xlink:href="#m6697938e6d" x="81" y="61.32" style="stroke: #000000; stroke-width: 0.8"/>
      </g>
     </g>
     <g id="text_16">
      <!-- 1.40 -->
      <g transform="translate(53.078456 65.372742)scale(0.12 -0.12)">
       <use xlink:href="#NimbusRomNo9L-Regu-31" transform="scale(0.996264)"/>
       <use xlink:href="#NimbusRomNo9L-Regu-2e" transform="translate(49.8132 0)scale(0.996264)"/>
       <use xlink:href="#NimbusRomNo9L-Regu-34" transform="translate(74.719801 0)scale(0.996264)"/>
       <use xlink:href="#NimbusRomNo9L-Regu-30" transform="translate(124.533001 0)scale(0.996264)"/>
      </g>
     </g>
    </g>
    <g id="ytick_9">
     <g id="line2d_87">
      <path d="M 81 305.94 
L 583.2 305.94 
" clip-path="url(#p9acaf545b5)" style="fill: none; stroke: #b0b0b0; stroke-opacity: 0.3; stroke-width: 0.8; stroke-linecap: square"/>
     </g>
     <g id="line2d_88">
      <defs>
       <path id="m5b9945192e" d="M 0 0 
L -2 0 
" style="stroke: #000000; stroke-width: 0.6"/>
      </defs>
      <g>
       <use xlink:href="#m5b9945192e" x="81" y="305.94" style="stroke: #000000; stroke-width: 0.6"/>
      </g>
     </g>
    </g>
    <g id="ytick_10">
     <g id="line2d_89">
      <path d="M 81 296.88 
L 583.2 296.88 
" clip-path="url(#p9acaf545b5)" style="fill: none; stroke: #b0b0b0; stroke-opacity: 0.3; stroke-width: 0.8; stroke-linecap: square"/>
     </g>
     <g id="line2d_90">
      <g>
       <use xlink:href="#m5b9945192e" x="81" y="296.88" style="stroke: #000000; stroke-width: 0.6"/>
      </g>
     </g>
    </g>
    <g id="ytick_11">
     <g id="line2d_91">
      <path d="M 81 287.82 
L 583.2 287.82 
" clip-path="url(#p9acaf545b5)" style="fill: none; stroke: #b0b0b0; stroke-opacity: 0.3; stroke-width: 0.8; stroke-linecap: square"/>
     </g>
     <g id="line2d_92">
      <g>
       <use xlink:href="#m5b9945192e" x="81" y="287.82" style="stroke: #000000; stroke-width: 0.6"/>
      </g>
     </g>
    </g>
    <g id="ytick_12">
     <g id="line2d_93">
      <path d="M 81 269.7 
L 583.2 269.7 
" clip-path="url(#p9acaf545b5)" style="fill: none; stroke: #b0b0b0; stroke-opacity: 0.3; stroke-width: 0.8; stroke-linecap: square"/>
     </g>
     <g id="line2d_94">
      <g>
       <use xlink:href="#m5b9945192e" x="81" y="269.7" style="stroke: #000000; stroke-width: 0.6"/>
      </g>
     </g>
    </g>
    <g id="ytick_13">
     <g id="line2d_95">
      <path d="M 81 260.64 
L 583.2 260.64 
" clip-path="url(#p9acaf545b5)" style="fill: none; stroke: #b0b0b0; stroke-opacity: 0.3; stroke-width: 0.8; stroke-linecap: square"/>
     </g>
     <g id="line2d_96">
      <g>
       <use xlink:href="#m5b9945192e" x="81" y="260.64" style="stroke: #000000; stroke-width: 0.6"/>
      </g>
     </g>
    </g>
    <g id="ytick_14">
     <g id="line2d_97">
      <path d="M 81 251.58 
L 583.2 251.58 
" clip-path="url(#p9acaf545b5)" style="fill: none; stroke: #b0b0b0; stroke-opacity: 0.3; stroke-width: 0.8; stroke-linecap: square"/>
     </g>
     <g id="line2d_98">
      <g>
       <use xlink:href="#m5b9945192e" x="81" y="251.58" style="stroke: #000000; stroke-width: 0.6"/>
      </g>
     </g>
    </g>
    <g id="ytick_15">
     <g id="line2d_99">
      <path d="M 81 233.46 
L 583.2 233.46 
" clip-path="url(#p9acaf545b5)" style="fill: none; stroke: #b0b0b0; stroke-opacity: 0.3; stroke-width: 0.8; stroke-linecap: square"/>
     </g>
     <g id="line2d_100">
      <g>
       <use xlink:href="#m5b9945192e" x="81" y="233.46" style="stroke: #000000; stroke-width: 0.6"/>
      </g>
     </g>
    </g>
    <g id="ytick_16">
     <g id="line2d_101">
      <path d="M 81 224.4 
L 583.2 224.4 
" clip-path="url(#p9acaf545b5)" style="fill: none; stroke: #b0b0b0; stroke-opacity: 0.3; stroke-width: 0.8; stroke-linecap: square"/>
     </g>
     <g id="line2d_102">
      <g>
       <use xlink:href="#m5b9945192e" x="81" y="224.4" style="stroke: #000000; stroke-width: 0.6"/>
      </g>
     </g>
    </g>
    <g id="ytick_17">
     <g id="line2d_103">
      <path d="M 81 215.34 
L 583.2 215.34 
" clip-path="url(#p9acaf545b5)" style="fill: none; stroke: #b0b0b0; stroke-opacity: 0.3; stroke-width: 0.8; stroke-linecap: square"/>
     </g>
     <g id="line2d_104">
      <g>
       <use xlink:href="#m5b9945192e" x="81" y="215.34" style="stroke: #000000; stroke-width: 0.6"/>
      </g>
     </g>
    </g>
    <g id="ytick_18">
     <g id="line2d_105">
      <path d="M 81 197.22 
L 583.2 197.22 
" clip-path="url(#p9acaf545b5)" style="fill: none; stroke: #b0b0b0; stroke-opacity: 0.3; stroke-width: 0.8; stroke-linecap: square"/>
     </g>
     <g id="line2d_106">
      <g>
       <use xlink:href="#m5b9945192e" x="81" y="197.22" style="stroke: #000000; stroke-width: 0.6"/>
      </g>
     </g>
    </g>
    <g id="ytick_19">
     <g id="line2d_107">
      <path d="M 81 188.16 
L 583.2 188.16 
" clip-path="url(#p9acaf545b5)" style="fill: none; stroke: #b0b0b0; stroke-opacity: 0.3; stroke-width: 0.8; stroke-linecap: square"/>
     </g>
     <g id="line2d_108">
      <g>
       <use xlink:href="#m5b9945192e" x="81" y="188.16" style="stroke: #000000; stroke-width: 0.6"/>
      </g>
     </g>
    </g>
    <g id="ytick_20">
     <g id="line2d_109">
      <path d="M 81 179.1 
L 583.2 179.1 
" clip-path="url(#p9acaf545b5)" style="fill: none; stroke: #b0b0b0; stroke-opacity: 0.3; stroke-width: 0.8; stroke-linecap: square"/>
     </g>
     <g id="line2d_110">
      <g>
       <use xlink:href="#m5b9945192e" x="81" y="179.1" style="stroke: #000000; stroke-width: 0.6"/>
      </g>
     </g>
    </g>
    <g id="ytick_21">
     <g id="line2d_111">
      <path d="M 81 160.98 
L 583.2 160.98 
" clip-path="url(#p9acaf545b5)" style="fill: none; stroke: #b0b0b0; stroke-opacity: 0.3; stroke-width: 0.8; stroke-linecap: square"/>
     </g>
     <g id="line2d_112">
      <g>
       <use xlink:href="#m5b9945192e" x="81" y="160.98" style="stroke: #000000; stroke-width: 0.6"/>
      </g>
     </g>
    </g>
    <g id="ytick_22">
     <g id="line2d_113">
      <path d="M 81 151.92 
L 583.2 151.92 
" clip-path="url(#p9acaf545b5)" style="fill: none; stroke: #b0b0b0; stroke-opacity: 0.3; stroke-width: 0.8; stroke-linecap: square"/>
     </g>
     <g id="line2d_114">
      <g>
       <use xlink:href="#m5b9945192e" x="81" y="151.92" style="stroke: #000000; stroke-width: 0.6"/>
      </g>
     </g>
    </g>
    <g id="ytick_23">
     <g id="line2d_115">
      <path d="M 81 142.86 
L 583.2 142.86 
" clip-path="url(#p9acaf545b5)" style="fill: none; stroke: #b0b0b0; stroke-opacity: 0.3; stroke-width: 0.8; stroke-linecap: square"/>
     </g>
     <g id="line2d_116">
      <g>
       <use xlink:href="#m5b9945192e" x="81" y="142.86" style="stroke: #000000; stroke-width: 0.6"/>
      </g>
     </g>
    </g>
    <g id="ytick_24">
     <g id="line2d_117">
      <path d="M 81 124.74 
L 583.2 124.74 
" clip-path="url(#p9acaf545b5)" style="fill: none; stroke: #b0b0b0; stroke-opacity: 0.3; stroke-width: 0.8; stroke-linecap: square"/>
     </g>
     <g id="line2d_118">
      <g>
       <use xlink:href="#m5b9945192e" x="81" y="124.74" style="stroke: #000000; stroke-width: 0.6"/>
      </g>
     </g>
    </g>
    <g id="ytick_25">
     <g id="line2d_119">
      <path d="M 81 115.68 
L 583.2 115.68 
" clip-path="url(#p9acaf545b5)" style="fill: none; stroke: #b0b0b0; stroke-opacity: 0.3; stroke-width: 0.8; stroke-linecap: square"/>
     </g>
     <g id="line2d_120">
      <g>
       <use xlink:href="#m5b9945192e" x="81" y="115.68" style="stroke: #000000; stroke-width: 0.6"/>
      </g>
     </g>
    </g>
    <g id="ytick_26">
     <g id="line2d_121">
      <path d="M 81 106.62 
L 583.2 106.62 
" clip-path="url(#p9acaf545b5)" style="fill: none; stroke: #b0b0b0; stroke-opacity: 0.3; stroke-width: 0.8; stroke-linecap: square"/>
     </g>
     <g id="line2d_122">
      <g>
       <use xlink:href="#m5b9945192e" x="81" y="106.62" style="stroke: #000000; stroke-width: 0.6"/>
      </g>
     </g>
    </g>
    <g id="ytick_27">
     <g id="line2d_123">
      <path d="M 81 88.5 
L 583.2 88.5 
" clip-path="url(#p9acaf545b5)" style="fill: none; stroke: #b0b0b0; stroke-opacity: 0.3; stroke-width: 0.8; stroke-linecap: square"/>
     </g>
     <g id="line2d_124">
      <g>
       <use xlink:href="#m5b9945192e" x="81" y="88.5" style="stroke: #000000; stroke-width: 0.6"/>
      </g>
     </g>
    </g>
    <g id="ytick_28">
     <g id="line2d_125">
      <path d="M 81 79.44 
L 583.2 79.44 
" clip-path="url(#p9acaf545b5)" style="fill: none; stroke: #b0b0b0; stroke-opacity: 0.3; stroke-width: 0.8; stroke-linecap: square"/>
     </g>
     <g id="line2d_126">
      <g>
       <use xlink:href="#m5b9945192e" x="81" y="79.44" style="stroke: #000000; stroke-width: 0.6"/>
      </g>
     </g>
    </g>
    <g id="ytick_29">
     <g id="line2d_127">
      <path d="M 81 70.38 
L 583.2 70.38 
" clip-path="url(#p9acaf545b5)" style="fill: none; stroke: #b0b0b0; stroke-opacity: 0.3; stroke-width: 0.8; stroke-linecap: square"/>
     </g>
     <g id="line2d_128">
      <g>
       <use xlink:href="#m5b9945192e" x="81" y="70.38" style="stroke: #000000; stroke-width: 0.6"/>
      </g>
     </g>
    </g>
    <g id="ytick_30">
     <g id="line2d_129">
      <path d="M 81 52.26 
L 583.2 52.26 
" clip-path="url(#p9acaf545b5)" style="fill: none; stroke: #b0b0b0; stroke-opacity: 0.3; stroke-width: 0.8; stroke-linecap: square"/>
     </g>
     <g id="line2d_130">
      <g>
       <use xlink:href="#m5b9945192e" x="81" y="52.26" style="stroke: #000000; stroke-width: 0.6"/>
      </g>
     </g>
    </g>
    <g id="text_17">
     <!-- $U$ [\%] -->
     <g transform="translate(46.490261 194.426399)rotate(-90)scale(0.12 -0.12)">
      <defs>
       <path id="NimbusRomNo9L-ReguItal-55" d="M 4896 4160 
L 3622 4160 
L 3622 4057 
C 3827 4038 3891 4025 3968 3974 
C 4032 3936 4077 3846 4077 3763 
C 4077 3661 3910 3009 3603 1929 
C 3578 1846 3552 1738 3520 1616 
C 3405 1201 3309 945 3168 728 
C 2918 332 2573 134 2125 134 
C 1594 134 1229 441 1229 888 
C 1229 1105 1427 1878 1856 3354 
C 1869 3399 1882 3444 1888 3476 
C 2022 3923 2125 4012 2560 4057 
L 2560 4160 
L 813 4160 
L 813 4057 
C 1242 4019 1312 3980 1312 3795 
C 1312 3719 1293 3616 1267 3508 
L 928 2281 
C 736 1591 653 1182 653 926 
C 653 313 1242 -128 2048 -128 
C 2886 -128 3418 326 3699 1284 
L 4230 3105 
C 4474 3936 4499 3968 4896 4057 
L 4896 4160 
z
" transform="scale(0.015625)"/>
       <path id="NimbusRomNo9L-Regu-5b" d="M 1914 -832 
L 1363 -832 
C 1152 -832 1050 -724 1050 -501 
L 1050 3783 
C 1050 3981 1133 4063 1338 4063 
L 1914 4063 
L 1914 4224 
L 563 4224 
L 563 -993 
L 1914 -993 
L 1914 -832 
z
" transform="scale(0.015625)"/>
       <path id="NimbusRomNo9L-Regu-25" d="M 4282 2380 
C 3558 2380 2874 1630 2874 827 
C 2874 326 3181 0 3642 0 
C 3930 0 4166 102 4390 326 
C 4730 673 4941 1193 4941 1694 
C 4941 2131 4698 2380 4282 2380 
z
M 4326 2176 
C 4570 2176 4774 1944 4774 1662 
C 4774 1296 4614 859 4371 558 
C 4166 301 3981 192 3750 192 
C 3520 192 3360 358 3360 602 
C 3360 943 3539 1469 3776 1803 
C 3949 2060 4128 2176 4326 2176 
z
M 4058 4352 
L 3808 4352 
C 3462 4017 3206 3904 2810 3904 
C 2554 3904 2406 3950 2253 4084 
C 2086 4191 2003 4224 1805 4224 
C 1075 4224 390 3487 390 2671 
C 390 2221 730 1856 1146 1856 
C 1421 1856 1709 1984 1920 2208 
C 2253 2549 2458 3056 2458 3525 
C 2458 3615 2445 3692 2413 3807 
C 2528 3763 2643 3743 2829 3743 
C 3110 3743 3277 3788 3533 3930 
L 1286 -64 
L 1594 -64 
L 4058 4352 
z
M 2240 3862 
C 2278 3733 2298 3636 2298 3546 
C 2298 2816 1773 2073 1254 2073 
C 1030 2073 877 2235 877 2467 
C 877 2738 1005 3177 1178 3500 
C 1363 3814 1606 4031 1805 4031 
C 1837 4031 1850 4025 1888 3993 
C 1978 3910 2054 3878 2240 3827 
L 2240 3862 
z
" transform="scale(0.015625)"/>
       <path id="NimbusRomNo9L-Regu-5d" d="M 218 -832 
L 218 -993 
L 1568 -993 
L 1568 4224 
L 218 4224 
L 218 4063 
L 768 4063 
C 979 4063 1082 3955 1082 3732 
L 1082 -552 
C 1082 -750 992 -832 794 -832 
L 218 -832 
z
" transform="scale(0.015625)"/>
      </defs>
      <use xlink:href="#NimbusRomNo9L-ReguItal-55" transform="scale(0.996264)"/>
      <use xlink:href="#NimbusRomNo9L-Regu-5b" transform="translate(106.10122 0)scale(0.996264)"/>
      <use xlink:href="#NimbusRomNo9L-Regu-25" transform="translate(139.27645 0)scale(0.996264)"/>
      <use xlink:href="#NimbusRomNo9L-Regu-5d" transform="translate(222.26488 0)scale(0.996264)"/>
     </g>
    </g>
   </g>
   <g id="line2d_131">
    <path d="M 487.542857 315 
L 487.542857 43.2 
" clip-path="url(#p9acaf545b5)" style="fill: none; stroke-dasharray: 2,3.3; stroke-dashoffset: 0; stroke: #000000; stroke-width: 2"/>
   </g>
   <g id="line2d_132">
    <path d="M 487.542857 315 
L 487.542857 43.2 
" clip-path="url(#p9acaf545b5)" style="fill: none; stroke-dasharray: 2,3.3; stroke-dashoffset: 0; stroke: #000000; stroke-width: 2"/>
   </g>
   <g id="line2d_133">
    <path d="M 487.542857 315 
L 487.542857 43.2 
" clip-path="url(#p9acaf545b5)" style="fill: none; stroke-dasharray: 2,3.3; stroke-dashoffset: 0; stroke: #000000; stroke-width: 2"/>
   </g>
   <g id="line2d_134">
    <path d="M 487.542857 315 
L 487.542857 43.2 
" clip-path="url(#p9acaf545b5)" style="fill: none; stroke-dasharray: 2,3.3; stroke-dashoffset: 0; stroke: #000000; stroke-width: 2"/>
   </g>
   <g id="line2d_135">
    <path d="M 487.542857 315 
L 487.542857 43.2 
" clip-path="url(#p9acaf545b5)" style="fill: none; stroke-dasharray: 2,3.3; stroke-dashoffset: 0; stroke: #000000; stroke-width: 2"/>
   </g>
   <g id="line2d_136">
    <path d="M 487.542857 315 
L 487.542857 43.2 
" clip-path="url(#p9acaf545b5)" style="fill: none; stroke-dasharray: 2,3.3; stroke-dashoffset: 0; stroke: #000000; stroke-width: 2"/>
   </g>
   <g id="line2d_137">
    <path d="M 487.542857 315 
L 487.542857 43.2 
" clip-path="url(#p9acaf545b5)" style="fill: none; stroke-dasharray: 2,3.3; stroke-dashoffset: 0; stroke: #000000; stroke-width: 2"/>
   </g>
   <g id="line2d_138">
    <path d="M 487.542857 315 
L 487.542857 43.2 
" clip-path="url(#p9acaf545b5)" style="fill: none; stroke-dasharray: 2,3.3; stroke-dashoffset: 0; stroke: #000000; stroke-width: 2"/>
   </g>
   <g id="patch_3">
    <path d="M 81 315 
L 81 43.2 
" style="fill: none; stroke: #000000; stroke-width: 0.75; stroke-linejoin: miter; stroke-linecap: square"/>
   </g>
   <g id="patch_4">
    <path d="M 583.2 315 
L 583.2 43.2 
" style="fill: none; stroke: #000000; stroke-width: 0.75; stroke-linejoin: miter; stroke-linecap: square"/>
   </g>
   <g id="patch_5">
    <path d="M 81 315 
L 583.2 315 
" style="fill: none; stroke: #000000; stroke-width: 0.75; stroke-linejoin: miter; stroke-linecap: square"/>
   </g>
   <g id="patch_6">
    <path d="M 81 43.2 
L 583.2 43.2 
" style="fill: none; stroke: #000000; stroke-width: 0.75; stroke-linejoin: miter; stroke-linecap: square"/>
   </g>
   <g id="line2d_139">
    <path d="M 612.011931 314.307091 
L 580.043314 313.91588 
L 566.613051 313.523764 
L 554.646343 313.050288 
L 543.971006 312.285624 
L 534.457903 311.296272 
L 525.977897 309.747012 
L 518.4162 307.626972 
L 511.672371 304.325508 
L 505.674669 299.817252 
L 500.308303 293.23788 
L 495.544577 285.1926 
L 491.283051 274.4112 
L 487.495029 259.15416 
L 482.76 221.229 
L 477.881486 163.48056 
L 473.146457 153.04344 
L 468.411429 145.55988 
L 463.532914 141.80904 
L 458.797886 139.88832 
L 454.062857 138.67428 
L 449.184343 137.6958 
L 444.449314 136.971 
L 439.714286 136.40928 
L 430.100743 135.66636 
L 420.4872 135.21336 
L 406.138629 134.83284 
L 382.32 134.47044 
L 363.092914 134.334345 
L 358.357886 134.09442 
L 353.622857 134.298429 
L 348.744343 134.291224 
L 339.274286 133.966822 
L 329.660743 133.995056 
L 320.0472 134.089443 
L 310.577143 133.825381 
L 300.9636 133.521642 
L 296.228571 133.530146 
L 286.615029 134.077169 
L 281.88 134.147173 
L 277.001486 134.001467 
L 272.266457 133.691979 
L 267.531429 133.124411 
L 265.953086 132.636254 
L 264.231257 132.27195 
L 262.652914 132.107567 
L 261.074571 132.289599 
L 256.339543 133.402107 
L 254.7612 133.589971 
L 246.726 133.416347 
L 243.569314 133.506621 
L 241.990971 133.51292 
L 240.412629 133.376358 
L 237.255943 132.78684 
L 233.955771 132.457581 
L 232.377429 132.621504 
L 229.220743 133.303014 
L 210.137143 133.847119 
L 190.910057 133.813398 
L 171.826457 134.045275 
L 162.212914 134.059246 
L 147.864343 134.21676 
L 119.1672 134.63352 
L 100.0836 135.10464 
L 85.735029 135.63012 
L 76.121486 136.13748 
L 66.651429 136.7898 
L 57.037886 137.6958 
L 52.302857 138.43872 
L 47.424343 138.89172 
L 42.689314 140.21448 
L 37.954286 140.28696 
L 33.075771 143.20428 
L 28.340743 140.72184 
L 23.605714 149.4738 
L 18.7272 133.0752 
L 13.992171 160.38204 
L 9.257143 147.40812 
L 9.257143 147.40812 
" clip-path="url(#p9acaf545b5)" style="fill: none; stroke: #0000ff; stroke-width: 2; stroke-linecap: square"/>
   </g>
   <g id="line2d_140">
    <path d="M 612.011931 315.534902 
L 595.109314 315.606658 
L 566.613051 316.113836 
L 543.971006 316.937028 
L 534.457903 317.431704 
L 525.977897 317.65458 
L 518.4162 317.616528 
L 511.672371 316.618116 
L 505.674669 314.595199 
L 500.308303 310.535232 
L 495.544577 305.16084 
L 491.283051 296.910804 
L 487.495029 287.04084 
L 482.76 258.95484 
L 477.881486 198.59712 
L 473.146457 186.67416 
L 468.411429 180.74892 
L 463.532914 179.13624 
L 458.797886 179.49864 
L 454.062857 180.42276 
L 449.184343 181.25628 
L 444.449314 181.94484 
L 439.714286 182.4522 
L 434.835771 182.85084 
L 425.365714 183.28572 
L 415.752171 183.50316 
L 387.055029 183.61188 
L 363.092914 183.655857 
L 358.357886 183.398498 
L 353.622857 183.678858 
L 348.744343 183.753775 
L 334.395771 183.42925 
L 315.312171 183.670082 
L 286.615029 183.267367 
L 281.88 182.876784 
L 272.266457 181.441895 
L 267.531429 180.673906 
L 265.953086 180.209011 
L 262.652914 179.847424 
L 259.496229 179.646606 
L 256.483029 178.894183 
L 254.7612 178.777622 
L 253.182857 178.801261 
L 249.882686 179.304229 
L 246.726 179.287551 
L 245.147657 179.164194 
L 237.255943 177.796932 
L 235.534114 177.83517 
L 233.955771 178.059004 
L 232.377429 178.641533 
L 230.799086 179.539373 
L 229.220743 180.650125 
L 224.485714 181.219281 
L 219.6072 182.320514 
L 214.872171 183.238095 
L 210.137143 183.844895 
L 205.258629 184.088665 
L 200.5236 184.01591 
L 190.910057 183.543447 
L 186.175029 183.522846 
L 181.44 183.778626 
L 176.561486 184.196286 
L 171.826457 184.472017 
L 167.091429 184.279385 
L 162.212914 183.74154 
L 157.477886 184.396446 
L 152.742857 184.30044 
L 128.780743 184.66284 
L 104.818629 185.20644 
L 85.735029 185.87688 
L 66.651429 186.85536 
L 57.037886 187.58016 
L 47.424343 188.66736 
L 42.689314 189.95388 
L 37.954286 190.6062 
L 33.075771 193.94028 
L 28.340743 192.7806 
L 23.605714 203.94252 
L 18.7272 181.02072 
L 13.992171 212.00592 
L 9.257143 194.03088 
L 9.257143 194.03088 
" clip-path="url(#p9acaf545b5)" style="fill: none; stroke-dasharray: 7.4,3.2; stroke-dashoffset: 0; stroke: #0000ff; stroke-width: 2"/>
   </g>
   <g id="line2d_141">
    <path d="M 612.011931 314.647022 
L 595.109314 314.419616 
L 580.043314 314.369605 
L 554.646343 313.785598 
L 534.457903 312.57192 
L 525.977897 311.3307 
L 518.4162 309.968076 
L 511.672371 307.35336 
L 505.674669 304.229472 
L 500.308303 298.795284 
L 495.544577 292.73052 
L 491.283051 283.14504 
L 487.495029 273.52332 
L 482.76 249.07944 
L 477.881486 193.84968 
L 473.146457 188.50428 
L 468.411429 181.0026 
L 463.532914 177.43296 
L 458.797886 175.69344 
L 454.062857 174.6606 
L 449.184343 173.80896 
L 439.714286 172.758 
L 430.100743 172.2144 
L 415.752171 171.81576 
L 396.668571 171.54396 
L 358.357886 171.195957 
L 339.274286 171.064439 
L 300.9636 170.668822 
L 291.350057 170.347522 
L 281.88 169.949204 
L 267.531429 169.090646 
L 264.231257 168.539141 
L 261.074571 168.163493 
L 256.339543 167.914823 
L 249.882686 167.850153 
L 240.412629 168.030132 
L 237.255943 168.260626 
L 233.955771 168.664888 
L 229.220743 169.422206 
L 224.485714 169.555406 
L 210.137143 170.223476 
L 200.5236 170.42869 
L 167.091429 170.548373 
L 152.742857 170.5836 
L 100.0836 170.8554 
L 76.121486 171.23592 
L 61.772914 171.70704 
L 52.302857 172.25064 
L 47.424343 172.59492 
L 37.954286 173.62776 
L 28.340743 175.2042 
L 23.605714 176.67192 
L 18.7272 177.34236 
L 13.992171 181.1838 
L 9.257143 176.54508 
L 9.257143 176.54508 
" clip-path="url(#p9acaf545b5)" style="fill: none; stroke: #ffa500; stroke-width: 2; stroke-linecap: square"/>
   </g>
   <g id="line2d_142">
    <path d="M 612.011931 315.373453 
L 595.109314 315.364937 
L 580.043314 315.625865 
L 566.613051 315.725162 
L 554.646343 316.119272 
L 543.971006 316.314606 
L 534.457903 316.794786 
L 525.977897 316.877232 
L 518.4162 317.067492 
L 511.672371 316.260971 
L 505.674669 315.115968 
L 500.308303 311.830812 
L 495.544577 308.0238 
L 487.495029 293.56404 
L 482.76 274.99104 
L 477.881486 230.08968 
L 473.146457 229.5642 
L 468.411429 226.88244 
L 463.532914 227.2086 
L 454.062857 229.9266 
L 449.184343 230.86884 
L 444.449314 231.5574 
L 439.714286 231.99228 
L 434.835771 232.31844 
L 425.365714 232.62648 
L 406.138629 232.7352 
L 291.350057 232.288798 
L 281.88 231.881577 
L 267.531429 230.952608 
L 264.231257 230.501562 
L 259.496229 230.1086 
L 251.604514 229.689608 
L 243.569314 229.487702 
L 237.255943 229.539039 
L 232.377429 229.807606 
L 229.220743 230.238878 
L 224.485714 230.388492 
L 205.258629 231.57791 
L 195.788571 231.798701 
L 157.477886 231.897534 
L 124.045714 231.77484 
L 61.772914 231.44868 
L 42.689314 231.33996 
L 37.954286 231.41244 
L 28.340743 232.22784 
L 23.605714 233.62308 
L 18.7272 234.51096 
L 13.992171 238.75104 
L 9.257143 234.34788 
L 9.257143 234.34788 
" clip-path="url(#p9acaf545b5)" style="fill: none; stroke-dasharray: 7.4,3.2; stroke-dashoffset: 0; stroke: #ffa500; stroke-width: 2"/>
   </g>
   <g id="line2d_143">
    <path d="M 612.011931 314.306366 
L 580.043314 313.914612 
L 566.613051 313.522133 
L 554.646343 313.048476 
L 543.971006 312.282 
L 534.457903 311.29446 
L 525.977897 309.743388 
L 518.4162 307.621536 
L 511.672371 304.320072 
L 505.674669 299.810004 
L 500.308303 293.21976 
L 495.544577 285.17448 
L 491.283051 274.4112 
L 487.495029 259.13604 
L 482.76 221.21088 
L 477.881486 163.46244 
L 473.146457 153.0072 
L 468.411429 145.50552 
L 463.532914 141.75468 
L 458.797886 139.83396 
L 454.062857 138.6018 
L 449.184343 137.62332 
L 444.449314 136.89852 
L 439.714286 136.31868 
L 430.100743 135.57576 
L 420.4872 135.12276 
L 406.138629 134.72412 
L 391.790057 134.45232 
L 363.092914 134.159124 
L 358.357886 133.895895 
L 353.622857 134.121985 
L 348.744343 134.121528 
L 339.274286 133.758568 
L 329.660743 133.758923 
L 320.0472 133.862978 
L 310.577143 133.604349 
L 300.9636 133.272706 
L 296.228571 133.258908 
L 286.615029 133.76233 
L 281.88 133.832583 
L 277.001486 133.697444 
L 272.266457 133.403978 
L 267.531429 132.850553 
L 265.953086 132.368926 
L 264.231257 132.002795 
L 262.652914 131.830573 
L 261.074571 132.002551 
L 256.339543 133.090613 
L 254.7612 133.274184 
L 246.726 133.109081 
L 243.569314 133.17438 
L 241.990971 133.169333 
L 240.412629 133.02714 
L 237.255943 132.447475 
L 233.955771 132.144127 
L 232.377429 132.315008 
L 229.220743 132.981622 
L 210.137143 133.469198 
L 190.910057 133.431457 
L 176.561486 133.682941 
L 162.212914 133.585212 
L 157.477886 133.816162 
L 143.129314 133.85436 
L 114.432171 134.28924 
L 100.0836 134.63352 
L 81 135.39456 
L 71.386457 135.95628 
L 66.651429 136.30056 
L 57.037886 137.18844 
L 52.302857 137.93136 
L 47.424343 138.38436 
L 42.689314 139.70712 
L 37.954286 139.7796 
L 33.075771 142.6788 
L 28.340743 140.19636 
L 23.605714 148.94832 
L 18.7272 132.5316 
L 13.992171 159.91092 
L 9.257143 146.90076 
L 9.257143 146.90076 
" clip-path="url(#p9acaf545b5)" style="fill: none; stroke: #000000; stroke-width: 2; stroke-linecap: square"/>
   </g>
   <g id="line2d_144">
    <path d="M 612.011931 315.534902 
L 595.109314 315.606658 
L 566.613051 316.114018 
L 543.971006 316.93884 
L 534.457903 317.431704 
L 525.977897 317.65458 
L 518.4162 317.61834 
L 511.672371 316.619203 
L 505.674669 314.595562 
L 500.308303 310.535232 
L 495.544577 305.155404 
L 491.283051 296.903556 
L 487.495029 287.04084 
L 482.76 258.95484 
L 477.881486 198.61524 
L 473.146457 186.67416 
L 468.411429 180.74892 
L 463.532914 179.13624 
L 458.797886 179.51676 
L 454.062857 180.44088 
L 444.449314 181.94484 
L 439.714286 182.4522 
L 434.835771 182.83272 
L 425.365714 183.24948 
L 411.017143 183.48504 
L 377.441486 183.50316 
L 363.092914 183.529362 
L 358.357886 183.270392 
L 353.622857 183.534631 
L 348.744343 183.591564 
L 334.395771 183.229472 
L 315.312171 183.434848 
L 300.9636 183.069262 
L 296.228571 182.956339 
L 291.350057 183.012583 
L 286.615029 182.940352 
L 281.88 182.538956 
L 272.266457 181.094746 
L 267.531429 180.327524 
L 265.953086 179.86514 
L 262.652914 179.508131 
L 259.496229 179.306879 
L 256.483029 178.549865 
L 254.7612 178.42956 
L 253.182857 178.449532 
L 249.882686 178.945208 
L 246.726 178.920414 
L 245.147657 178.79272 
L 237.255943 177.407232 
L 235.534114 177.442784 
L 233.955771 177.663857 
L 232.377429 178.242855 
L 230.799086 179.135217 
L 229.220743 180.237398 
L 224.485714 180.800816 
L 219.6072 181.887618 
L 214.872171 182.787008 
L 210.137143 183.372568 
L 205.258629 183.593213 
L 200.5236 183.496845 
L 190.910057 182.980621 
L 186.175029 182.941135 
L 181.44 183.179695 
L 176.561486 183.580713 
L 171.826457 183.839052 
L 167.091429 183.627464 
L 162.212914 183.069916 
L 157.477886 183.708261 
L 152.742857 183.59376 
L 128.780743 183.86556 
L 100.0836 184.48164 
L 81 185.15208 
L 66.651429 185.895 
L 57.037886 186.58356 
L 47.424343 187.63452 
L 42.689314 188.90292 
L 37.954286 189.519 
L 33.075771 192.83496 
L 28.340743 191.63904 
L 23.605714 202.76472 
L 18.7272 179.8248 
L 13.992171 210.81 
L 9.257143 192.79872 
L 9.257143 192.79872 
" clip-path="url(#p9acaf545b5)" style="fill: none; stroke-dasharray: 7.4,3.2; stroke-dashoffset: 0; stroke: #000000; stroke-width: 2"/>
   </g>
   <g id="line2d_145">
    <path d="M 612.011931 314.334996 
L 580.043314 313.92784 
L 566.613051 313.53228 
L 554.646343 313.066596 
L 543.971006 312.292872 
L 534.457903 311.305332 
L 525.977897 309.721644 
L 518.4162 307.56174 
L 511.672371 304.11894 
L 505.674669 299.402304 
L 500.308303 292.29564 
L 495.544577 283.36248 
L 491.283051 270.80532 
L 487.495029 253.28328 
L 482.76 212.69448 
L 477.881486 157.55532 
L 468.411429 138.31188 
L 463.532914 133.4376 
L 458.797886 130.7196 
L 454.062857 128.9076 
L 449.184343 127.458 
L 444.449314 126.3708 
L 434.835771 124.9212 
L 420.4872 123.834 
L 396.668571 122.928 
L 391.790057 122.928 
L 387.055029 122.7468 
L 382.32 122.7468 
L 377.441486 122.5656 
L 367.971429 122.5656 
L 358.357886 122.230447 
L 353.622857 122.42956 
L 348.744343 122.405251 
L 339.274286 122.048449 
L 329.660743 122.057336 
L 320.0472 122.136923 
L 310.577143 121.849527 
L 300.9636 121.517018 
L 296.228571 121.518182 
L 286.615029 122.098755 
L 281.88 122.226342 
L 277.001486 122.15813 
L 272.266457 121.924387 
L 267.531429 121.414188 
L 265.953086 120.948202 
L 264.231257 120.568227 
L 262.652914 120.366532 
L 261.074571 120.508071 
L 254.7612 121.807812 
L 240.412629 121.486542 
L 237.255943 120.88928 
L 233.955771 120.546561 
L 232.377429 120.690842 
L 229.220743 121.283768 
L 214.872171 121.620631 
L 190.910057 121.577592 
L 176.561486 121.833824 
L 157.477886 121.846159 
L 152.742857 122.022 
L 138.394286 122.022 
L 133.515771 122.2032 
L 128.780743 122.2032 
L 124.045714 122.3844 
L 119.1672 122.3844 
L 114.432171 122.5656 
L 109.697143 122.5656 
L 85.735029 123.4716 
L 81 123.834 
L 76.121486 124.0152 
L 66.651429 124.74 
L 57.037886 125.8272 
L 52.302857 126.552 
L 47.424343 127.0956 
L 42.689314 128.364 
L 37.954286 128.5452 
L 33.075771 131.2632 
L 28.340743 129.0888 
L 23.605714 137.31528 
L 18.7272 121.6596 
L 13.992171 147.71616 
L 9.257143 136.1556 
L 9.257143 136.1556 
" clip-path="url(#p9acaf545b5)" style="fill: none; stroke: #ff0000; stroke-width: 2; stroke-linecap: square"/>
   </g>
   <g id="line2d_146">
    <path d="M 612.011931 315.471845 
L 595.109314 315.550848 
L 566.613051 316.066 
L 543.971006 316.917096 
L 534.457903 317.448012 
L 525.977897 317.707128 
L 518.4162 317.734308 
L 511.672371 316.743869 
L 505.674669 314.692322 
L 500.308303 310.34316 
L 495.544577 304.352688 
L 491.283051 294.77808 
L 487.495029 283.03632 
L 482.76 252.14172 
L 477.881486 192.4182 
L 473.146457 179.75232 
L 468.411429 169.60512 
L 463.532914 165.51 
L 458.797886 164.16912 
L 454.062857 163.9698 
L 449.184343 164.07852 
L 434.835771 164.85768 
L 425.365714 165.11136 
L 406.138629 165.22008 
L 372.706457 165.11136 
L 363.092914 165.134593 
L 358.357886 164.869137 
L 353.622857 165.104927 
L 348.744343 165.154129 
L 334.395771 164.798713 
L 315.312171 164.933613 
L 291.350057 164.503054 
L 286.615029 164.457782 
L 281.88 164.113858 
L 272.266457 162.872616 
L 267.531429 162.218938 
L 265.953086 161.850135 
L 259.496229 161.348474 
L 256.483029 160.54232 
L 254.7612 160.406496 
L 253.182857 160.42632 
L 249.882686 160.921777 
L 246.726 160.847111 
L 245.147657 160.680067 
L 237.255943 159.107691 
L 235.534114 159.102153 
L 233.955771 159.277067 
L 232.377429 159.800955 
L 230.799086 160.623994 
L 229.220743 161.645902 
L 224.485714 162.166336 
L 219.6072 163.174333 
L 214.872171 164.018093 
L 210.137143 164.584683 
L 205.258629 164.828955 
L 200.5236 164.79379 
L 190.910057 164.439675 
L 186.175029 164.453554 
L 181.44 164.70679 
L 176.561486 165.092619 
L 171.826457 165.338303 
L 167.091429 165.156601 
L 162.212914 164.669057 
L 157.477886 165.266726 
L 152.742857 165.20196 
L 133.515771 165.49188 
L 109.697143 166.10796 
L 95.348571 166.6878 
L 81 167.52132 
L 71.386457 168.26424 
L 61.772914 169.24272 
L 57.037886 169.84068 
L 47.424343 171.45336 
L 42.689314 172.99356 
L 37.954286 174.04452 
L 33.075771 177.63228 
L 28.340743 177.12492 
L 23.605714 188.12376 
L 18.7272 166.79652 
L 13.992171 197.8542 
L 9.257143 182.01732 
L 9.257143 182.01732 
" clip-path="url(#p9acaf545b5)" style="fill: none; stroke-dasharray: 7.4,3.2; stroke-dashoffset: 0; stroke: #ff0000; stroke-width: 2"/>
   </g>
   <g id="legend_1">
    <g id="patch_7">
     <path d="M 88 310 
L 346.881228 310 
Q 348.881228 310 348.881228 308 
L 348.881228 252.372684 
Q 348.881228 250.372684 346.881228 250.372684 
L 88 250.372684 
Q 86 250.372684 86 252.372684 
L 86 308 
Q 86 310 88 310 
z
" style="fill: #ffffff; opacity: 0.8; stroke: #cccccc; stroke-linejoin: miter"/>
    </g>
    <g id="line2d_147">
     <path d="M 90 257.872684 
L 100 257.872684 
L 110 257.872684 
" style="fill: none; stroke: #0000ff; stroke-width: 2; stroke-linecap: square"/>
    </g>
    <g id="text_18">
     <!-- $U_B$, EP, EL, SG -->
     <g transform="translate(118 261.372684)scale(0.1 -0.1)">
      <defs>
       <path id="NimbusRomNo9L-ReguItal-42" d="M -51 0 
L 1754 0 
C 2758 0 3450 523 3450 1274 
C 3450 1510 3373 1732 3232 1872 
C 3104 2019 2976 2095 2643 2235 
C 3098 2344 3283 2420 3488 2598 
C 3667 2751 3763 2968 3763 3222 
C 3763 3827 3309 4160 2483 4160 
L 832 4160 
L 832 4057 
C 1229 4025 1325 3974 1325 3795 
C 1325 3700 1299 3541 1254 3388 
L 467 574 
C 352 204 307 166 -51 102 
L -51 0 
z
M 1523 2108 
C 1939 2108 2208 2083 2336 2032 
C 2598 1923 2758 1643 2758 1299 
C 2758 612 2285 192 1504 192 
C 1235 192 1094 287 1094 459 
C 1094 535 1171 841 1318 1350 
C 1402 1637 1440 1783 1523 2108 
z
M 2003 3789 
C 2042 3929 2118 3967 2368 3967 
C 2880 3967 3117 3751 3117 3280 
C 3117 2917 2963 2637 2688 2484 
C 2470 2356 2163 2312 1587 2312 
L 2003 3789 
z
" transform="scale(0.015625)"/>
       <path id="NimbusRomNo9L-Regu-2c" d="M 531 -890 
C 960 -679 1248 -289 1248 96 
C 1248 416 1024 665 736 665 
C 512 665 358 518 358 300 
C 358 57 506 -64 736 -64 
C 774 -64 819 -58 858 -52 
C 902 0 902 0 909 0 
C 960 0 998 -39 998 -90 
C 998 -295 819 -532 474 -769 
L 531 -890 
z
" transform="scale(0.015625)"/>
       <path id="NimbusRomNo9L-Regu-45" d="M 3821 1087 
L 3642 1087 
C 3322 391 3046 236 2131 236 
L 1958 236 
C 1645 236 1376 269 1331 314 
C 1299 333 1286 404 1286 513 
L 1286 2105 
L 2272 2105 
C 2797 2105 2893 2021 2976 1487 
L 3123 1487 
L 3123 2966 
L 2976 2966 
C 2931 2708 2906 2613 2835 2525 
C 2752 2418 2573 2368 2272 2368 
L 1286 2368 
L 1286 3766 
C 1286 3942 1325 3980 1498 3980 
L 2362 3980 
C 3085 3980 3226 3886 3334 3319 
L 3494 3319 
L 3475 4224 
L 77 4224 
L 77 4102 
C 550 4064 634 3975 634 3528 
L 634 695 
C 634 249 544 153 77 121 
L 77 0 
L 3533 0 
L 3821 1087 
z
" transform="scale(0.015625)"/>
       <path id="NimbusRomNo9L-Regu-50" d="M 1293 1875 
C 1459 1862 1568 1855 1734 1855 
C 2234 1855 2579 1919 2854 2073 
C 3238 2276 3469 2661 3469 3077 
C 3469 3343 3379 3583 3206 3766 
C 2950 4044 2394 4224 1792 4224 
L 102 4224 
L 102 4102 
C 576 4051 640 3987 640 3528 
L 640 765 
C 640 230 589 166 102 121 
L 102 0 
L 1894 0 
L 1894 121 
C 1389 140 1293 230 1293 695 
L 1293 1875 
z
M 1293 3772 
C 1293 3942 1338 3987 1510 3987 
C 2374 3987 2771 3690 2771 3040 
C 2771 2427 2394 2112 1658 2112 
C 1530 2112 1440 2118 1293 2130 
L 1293 3772 
z
" transform="scale(0.015625)"/>
       <path id="NimbusRomNo9L-Regu-4c" d="M 3667 1110 
C 3558 868 3469 721 3373 613 
C 3149 364 2797 249 2266 249 
L 1837 249 
C 1370 249 1286 287 1286 511 
L 1286 3528 
C 1286 3981 1376 4070 1882 4102 
L 1882 4224 
L 77 4224 
L 77 4102 
C 550 4064 634 3974 634 3528 
L 634 696 
C 634 249 544 153 77 121 
L 77 0 
L 3520 0 
L 3827 1113 
L 3667 1110 
z
" transform="scale(0.015625)"/>
       <path id="NimbusRomNo9L-Regu-53" d="M 2861 4313 
L 2726 4313 
C 2701 4166 2630 4095 2522 4095 
C 2458 4095 2349 4121 2240 4172 
C 2003 4300 1766 4352 1562 4352 
C 1286 4352 1005 4243 794 4057 
C 570 3859 454 3590 454 3257 
C 454 2745 736 2387 1453 2009 
C 1914 1766 2246 1504 2406 1260 
C 2464 1177 2496 1043 2496 889 
C 2496 460 2176 166 1709 166 
C 1139 166 736 518 416 1299 
L 269 1299 
L 461 -58 
L 602 -58 
C 608 38 685 128 781 128 
C 851 128 960 102 1082 57 
C 1325 -13 1581 -64 1837 -64 
C 2573 -64 3142 441 3142 1100 
C 3142 1625 2790 2041 1946 2496 
C 1274 2867 1005 3148 1005 3494 
C 1005 3846 1274 4089 1670 4089 
C 1958 4089 2227 3968 2451 3737 
C 2650 3533 2739 3366 2842 2988 
L 3002 2988 
L 2861 4313 
z
" transform="scale(0.015625)"/>
       <path id="NimbusRomNo9L-Regu-47" d="M 4538 2291 
L 2906 2291 
L 2906 2176 
C 3181 2156 3258 2137 3334 2086 
C 3430 2028 3469 1881 3469 1606 
L 3469 569 
C 3469 364 3078 192 2618 192 
C 1574 192 934 921 934 2112 
C 934 2713 1114 3296 1395 3609 
C 1677 3923 2074 4095 2509 4095 
C 2867 4095 3181 3974 3430 3744 
C 3622 3565 3725 3392 3885 3001 
L 4032 3001 
L 3981 4352 
L 3840 4352 
C 3802 4230 3686 4140 3552 4140 
C 3488 4140 3386 4159 3270 4204 
C 2982 4300 2688 4352 2400 4352 
C 1120 4352 205 3411 205 2105 
C 205 1478 378 998 736 620 
C 1165 179 1779 -64 2483 -64 
C 3034 -64 3834 160 4090 384 
L 4090 1683 
C 4090 2060 4166 2144 4538 2176 
L 4538 2291 
z
" transform="scale(0.015625)"/>
      </defs>
      <use xlink:href="#NimbusRomNo9L-ReguItal-55" transform="scale(0.996264)"/>
      <use xlink:href="#NimbusRomNo9L-ReguItal-42" transform="translate(69.43937 -14.943915)scale(0.737241)"/>
      <use xlink:href="#NimbusRomNo9L-Regu-2c" transform="translate(114.982846 0)scale(0.996264)"/>
      <use xlink:href="#NimbusRomNo9L-Regu-45" transform="translate(164.796047 0)scale(0.996264)"/>
      <use xlink:href="#NimbusRomNo9L-Regu-50" transform="translate(225.667677 0)scale(0.996264)"/>
      <use xlink:href="#NimbusRomNo9L-Regu-2c" transform="translate(270.000909 0)scale(0.996264)"/>
      <use xlink:href="#NimbusRomNo9L-Regu-45" transform="translate(319.81411 0)scale(0.996264)"/>
      <use xlink:href="#NimbusRomNo9L-Regu-4c" transform="translate(380.68574 0)scale(0.996264)"/>
      <use xlink:href="#NimbusRomNo9L-Regu-2c" transform="translate(441.557371 0)scale(0.996264)"/>
      <use xlink:href="#NimbusRomNo9L-Regu-53" transform="translate(491.370571 0)scale(0.996264)"/>
      <use xlink:href="#NimbusRomNo9L-Regu-47" transform="translate(546.762248 0)scale(0.996264)"/>
     </g>
    </g>
    <g id="line2d_148">
     <path d="M 90 272.029513 
L 100 272.029513 
L 110 272.029513 
" style="fill: none; stroke-dasharray: 7.4,3.2; stroke-dashoffset: 0; stroke: #0000ff; stroke-width: 2"/>
    </g>
    <g id="text_19">
     <!-- $U_A$, EP, EL, SG -->
     <g transform="translate(118 275.529513)scale(0.1 -0.1)">
      <defs>
       <path id="NimbusRomNo9L-ReguItal-41" d="M 3610 102 
C 3245 134 3206 185 3123 647 
L 2522 4288 
L 2355 4288 
L 499 1066 
C -7 223 -71 153 -327 102 
L -327 0 
L 870 0 
L 870 102 
C 544 134 493 166 493 324 
C 493 444 512 501 621 717 
L 986 1433 
L 2394 1433 
L 2522 603 
C 2528 546 2534 489 2534 438 
C 2534 197 2445 140 2035 102 
L 2035 0 
L 3610 0 
L 3610 102 
z
M 1120 1664 
L 2080 3345 
L 2362 1664 
L 1120 1664 
z
" transform="scale(0.015625)"/>
      </defs>
      <use xlink:href="#NimbusRomNo9L-ReguItal-55" transform="scale(0.996264)"/>
      <use xlink:href="#NimbusRomNo9L-ReguItal-41" transform="translate(69.43937 -15.270966)scale(0.737241)"/>
      <use xlink:href="#NimbusRomNo9L-Regu-2c" transform="translate(114.982846 0)scale(0.996264)"/>
      <use xlink:href="#NimbusRomNo9L-Regu-45" transform="translate(164.796047 0)scale(0.996264)"/>
      <use xlink:href="#NimbusRomNo9L-Regu-50" transform="translate(225.667677 0)scale(0.996264)"/>
      <use xlink:href="#NimbusRomNo9L-Regu-2c" transform="translate(270.000909 0)scale(0.996264)"/>
      <use xlink:href="#NimbusRomNo9L-Regu-45" transform="translate(319.81411 0)scale(0.996264)"/>
      <use xlink:href="#NimbusRomNo9L-Regu-4c" transform="translate(380.68574 0)scale(0.996264)"/>
      <use xlink:href="#NimbusRomNo9L-Regu-2c" transform="translate(441.557371 0)scale(0.996264)"/>
      <use xlink:href="#NimbusRomNo9L-Regu-53" transform="translate(491.370571 0)scale(0.996264)"/>
      <use xlink:href="#NimbusRomNo9L-Regu-47" transform="translate(546.762248 0)scale(0.996264)"/>
     </g>
    </g>
    <g id="line2d_149">
     <path d="M 90 286.186342 
L 100 286.186342 
L 110 286.186342 
" style="fill: none; stroke: #ffa500; stroke-width: 2; stroke-linecap: square"/>
    </g>
    <g id="text_20">
     <!-- $U_B$, VP, EL, SG, ST -->
     <g transform="translate(118 289.686342)scale(0.1 -0.1)">
      <defs>
       <path id="NimbusRomNo9L-Regu-56" d="M 4461 4224 
L 3149 4224 
L 3149 4102 
C 3501 4083 3616 4013 3616 3835 
C 3616 3733 3571 3561 3494 3370 
L 2554 1032 
L 1587 3185 
C 1376 3650 1325 3796 1325 3892 
C 1325 4013 1414 4077 1619 4089 
C 1645 4089 1715 4095 1805 4102 
L 1805 4224 
L 102 4224 
L 102 4102 
C 416 4089 506 4000 781 3433 
L 2355 -64 
L 2451 -64 
L 3872 3510 
C 4083 4013 4154 4083 4461 4102 
L 4461 4224 
z
" transform="scale(0.015625)"/>
       <path id="NimbusRomNo9L-Regu-54" d="M 1626 3955 
L 1626 765 
C 1626 223 1555 153 1024 121 
L 1024 0 
L 2893 0 
L 2893 121 
C 2368 147 2278 230 2278 695 
L 2278 3955 
L 2624 3955 
C 3354 3955 3494 3840 3642 3138 
L 3795 3138 
L 3757 4224 
L 147 4224 
L 109 3138 
L 262 3138 
C 416 3834 563 3955 1280 3955 
L 1626 3955 
z
" transform="scale(0.015625)"/>
      </defs>
      <use xlink:href="#NimbusRomNo9L-ReguItal-55" transform="scale(0.996264)"/>
      <use xlink:href="#NimbusRomNo9L-ReguItal-42" transform="translate(69.43937 -14.943915)scale(0.737241)"/>
      <use xlink:href="#NimbusRomNo9L-Regu-2c" transform="translate(114.982846 0)scale(0.996264)"/>
      <use xlink:href="#NimbusRomNo9L-Regu-56" transform="translate(164.796047 0)scale(0.996264)"/>
      <use xlink:href="#NimbusRomNo9L-Regu-50" transform="translate(236.726032 0)scale(0.996264)"/>
      <use xlink:href="#NimbusRomNo9L-Regu-2c" transform="translate(281.059263 0)scale(0.996264)"/>
      <use xlink:href="#NimbusRomNo9L-Regu-45" transform="translate(330.872464 0)scale(0.996264)"/>
      <use xlink:href="#NimbusRomNo9L-Regu-4c" transform="translate(391.744094 0)scale(0.996264)"/>
      <use xlink:href="#NimbusRomNo9L-Regu-2c" transform="translate(452.615725 0)scale(0.996264)"/>
      <use xlink:href="#NimbusRomNo9L-Regu-53" transform="translate(502.428926 0)scale(0.996264)"/>
      <use xlink:href="#NimbusRomNo9L-Regu-47" transform="translate(557.820603 0)scale(0.996264)"/>
      <use xlink:href="#NimbusRomNo9L-Regu-2c" transform="translate(629.750587 0)scale(0.996264)"/>
      <use xlink:href="#NimbusRomNo9L-Regu-53" transform="translate(679.563788 0)scale(0.996264)"/>
      <use xlink:href="#NimbusRomNo9L-Regu-54" transform="translate(734.955465 0)scale(0.996264)"/>
     </g>
    </g>
    <g id="line2d_150">
     <path d="M 90 300.343171 
L 100 300.343171 
L 110 300.343171 
" style="fill: none; stroke-dasharray: 7.4,3.2; stroke-dashoffset: 0; stroke: #ffa500; stroke-width: 2"/>
    </g>
    <g id="text_21">
     <!-- $U_A$, VP, EL, SG, ST -->
     <g transform="translate(118 303.843171)scale(0.1 -0.1)">
      <use xlink:href="#NimbusRomNo9L-ReguItal-55" transform="scale(0.996264)"/>
      <use xlink:href="#NimbusRomNo9L-ReguItal-41" transform="translate(69.43937 -15.270966)scale(0.737241)"/>
      <use xlink:href="#NimbusRomNo9L-Regu-2c" transform="translate(114.982846 0)scale(0.996264)"/>
      <use xlink:href="#NimbusRomNo9L-Regu-56" transform="translate(164.796047 0)scale(0.996264)"/>
      <use xlink:href="#NimbusRomNo9L-Regu-50" transform="translate(236.726032 0)scale(0.996264)"/>
      <use xlink:href="#NimbusRomNo9L-Regu-2c" transform="translate(281.059263 0)scale(0.996264)"/>
      <use xlink:href="#NimbusRomNo9L-Regu-45" transform="translate(330.872464 0)scale(0.996264)"/>
      <use xlink:href="#NimbusRomNo9L-Regu-4c" transform="translate(391.744094 0)scale(0.996264)"/>
      <use xlink:href="#NimbusRomNo9L-Regu-2c" transform="translate(452.615725 0)scale(0.996264)"/>
      <use xlink:href="#NimbusRomNo9L-Regu-53" transform="translate(502.428926 0)scale(0.996264)"/>
      <use xlink:href="#NimbusRomNo9L-Regu-47" transform="translate(557.820603 0)scale(0.996264)"/>
      <use xlink:href="#NimbusRomNo9L-Regu-2c" transform="translate(629.750587 0)scale(0.996264)"/>
      <use xlink:href="#NimbusRomNo9L-Regu-53" transform="translate(679.563788 0)scale(0.996264)"/>
      <use xlink:href="#NimbusRomNo9L-Regu-54" transform="translate(734.955465 0)scale(0.996264)"/>
     </g>
    </g>
    <g id="line2d_151">
     <path d="M 218.030954 257.872684 
L 228.030954 257.872684 
L 238.030954 257.872684 
" style="fill: none; stroke: #000000; stroke-width: 2; stroke-linecap: square"/>
    </g>
    <g id="text_22">
     <!-- $U_B$, EPVP, EL, SG, ST -->
     <g transform="translate(246.030954 261.372684)scale(0.1 -0.1)">
      <use xlink:href="#NimbusRomNo9L-ReguItal-55" transform="scale(0.996264)"/>
      <use xlink:href="#NimbusRomNo9L-ReguItal-42" transform="translate(69.43937 -14.943915)scale(0.737241)"/>
      <use xlink:href="#NimbusRomNo9L-Regu-2c" transform="translate(114.982846 0)scale(0.996264)"/>
      <use xlink:href="#NimbusRomNo9L-Regu-45" transform="translate(164.796047 0)scale(0.996264)"/>
      <use xlink:href="#NimbusRomNo9L-Regu-50" transform="translate(225.667677 0)scale(0.996264)"/>
      <use xlink:href="#NimbusRomNo9L-Regu-56" transform="translate(281.059354 0)scale(0.996264)"/>
      <use xlink:href="#NimbusRomNo9L-Regu-50" transform="translate(352.989339 0)scale(0.996264)"/>
      <use xlink:href="#NimbusRomNo9L-Regu-2c" transform="translate(397.322571 0)scale(0.996264)"/>
      <use xlink:href="#NimbusRomNo9L-Regu-45" transform="translate(447.135771 0)scale(0.996264)"/>
      <use xlink:href="#NimbusRomNo9L-Regu-4c" transform="translate(508.007402 0)scale(0.996264)"/>
      <use xlink:href="#NimbusRomNo9L-Regu-2c" transform="translate(568.879033 0)scale(0.996264)"/>
      <use xlink:href="#NimbusRomNo9L-Regu-53" transform="translate(618.692233 0)scale(0.996264)"/>
      <use xlink:href="#NimbusRomNo9L-Regu-47" transform="translate(674.08391 0)scale(0.996264)"/>
      <use xlink:href="#NimbusRomNo9L-Regu-2c" transform="translate(746.013895 0)scale(0.996264)"/>
      <use xlink:href="#NimbusRomNo9L-Regu-53" transform="translate(795.827096 0)scale(0.996264)"/>
      <use xlink:href="#NimbusRomNo9L-Regu-54" transform="translate(851.218772 0)scale(0.996264)"/>
     </g>
    </g>
    <g id="line2d_152">
     <path d="M 218.030954 272.029513 
L 228.030954 272.029513 
L 238.030954 272.029513 
" style="fill: none; stroke-dasharray: 7.4,3.2; stroke-dashoffset: 0; stroke: #000000; stroke-width: 2"/>
    </g>
    <g id="text_23">
     <!-- $U_A$, EPVP, EL, SG, ST -->
     <g transform="translate(246.030954 275.529513)scale(0.1 -0.1)">
      <use xlink:href="#NimbusRomNo9L-ReguItal-55" transform="scale(0.996264)"/>
      <use xlink:href="#NimbusRomNo9L-ReguItal-41" transform="translate(69.43937 -15.270966)scale(0.737241)"/>
      <use xlink:href="#NimbusRomNo9L-Regu-2c" transform="translate(114.982846 0)scale(0.996264)"/>
      <use xlink:href="#NimbusRomNo9L-Regu-45" transform="translate(164.796047 0)scale(0.996264)"/>
      <use xlink:href="#NimbusRomNo9L-Regu-50" transform="translate(225.667677 0)scale(0.996264)"/>
      <use xlink:href="#NimbusRomNo9L-Regu-56" transform="translate(281.059354 0)scale(0.996264)"/>
      <use xlink:href="#NimbusRomNo9L-Regu-50" transform="translate(352.989339 0)scale(0.996264)"/>
      <use xlink:href="#NimbusRomNo9L-Regu-2c" transform="translate(397.322571 0)scale(0.996264)"/>
      <use xlink:href="#NimbusRomNo9L-Regu-45" transform="translate(447.135771 0)scale(0.996264)"/>
      <use xlink:href="#NimbusRomNo9L-Regu-4c" transform="translate(508.007402 0)scale(0.996264)"/>
      <use xlink:href="#NimbusRomNo9L-Regu-2c" transform="translate(568.879033 0)scale(0.996264)"/>
      <use xlink:href="#NimbusRomNo9L-Regu-53" transform="translate(618.692233 0)scale(0.996264)"/>
      <use xlink:href="#NimbusRomNo9L-Regu-47" transform="translate(674.08391 0)scale(0.996264)"/>
      <use xlink:href="#NimbusRomNo9L-Regu-2c" transform="translate(746.013895 0)scale(0.996264)"/>
      <use xlink:href="#NimbusRomNo9L-Regu-53" transform="translate(795.827096 0)scale(0.996264)"/>
      <use xlink:href="#NimbusRomNo9L-Regu-54" transform="translate(851.218772 0)scale(0.996264)"/>
     </g>
    </g>
    <g id="line2d_153">
     <path d="M 218.030954 286.186342 
L 228.030954 286.186342 
L 238.030954 286.186342 
" style="fill: none; stroke: #ff0000; stroke-width: 2; stroke-linecap: square"/>
    </g>
    <g id="text_24">
     <!-- $U_B$, EPVP, VEL, SG, ST -->
     <g transform="translate(246.030954 289.686342)scale(0.1 -0.1)">
      <use xlink:href="#NimbusRomNo9L-ReguItal-55" transform="scale(0.996264)"/>
      <use xlink:href="#NimbusRomNo9L-ReguItal-42" transform="translate(69.43937 -14.943915)scale(0.737241)"/>
      <use xlink:href="#NimbusRomNo9L-Regu-2c" transform="translate(114.982846 0)scale(0.996264)"/>
      <use xlink:href="#NimbusRomNo9L-Regu-45" transform="translate(164.796047 0)scale(0.996264)"/>
      <use xlink:href="#NimbusRomNo9L-Regu-50" transform="translate(225.667677 0)scale(0.996264)"/>
      <use xlink:href="#NimbusRomNo9L-Regu-56" transform="translate(281.059354 0)scale(0.996264)"/>
      <use xlink:href="#NimbusRomNo9L-Regu-50" transform="translate(352.989339 0)scale(0.996264)"/>
      <use xlink:href="#NimbusRomNo9L-Regu-2c" transform="translate(397.322571 0)scale(0.996264)"/>
      <use xlink:href="#NimbusRomNo9L-Regu-56" transform="translate(447.135771 0)scale(0.996264)"/>
      <use xlink:href="#NimbusRomNo9L-Regu-45" transform="translate(519.065756 0)scale(0.996264)"/>
      <use xlink:href="#NimbusRomNo9L-Regu-4c" transform="translate(579.937387 0)scale(0.996264)"/>
      <use xlink:href="#NimbusRomNo9L-Regu-2c" transform="translate(640.809018 0)scale(0.996264)"/>
      <use xlink:href="#NimbusRomNo9L-Regu-53" transform="translate(690.622218 0)scale(0.996264)"/>
      <use xlink:href="#NimbusRomNo9L-Regu-47" transform="translate(746.013895 0)scale(0.996264)"/>
      <use xlink:href="#NimbusRomNo9L-Regu-2c" transform="translate(817.94388 0)scale(0.996264)"/>
      <use xlink:href="#NimbusRomNo9L-Regu-53" transform="translate(867.75708 0)scale(0.996264)"/>
      <use xlink:href="#NimbusRomNo9L-Regu-54" transform="translate(923.148757 0)scale(0.996264)"/>
     </g>
    </g>
    <g id="line2d_154">
     <path d="M 218.030954 300.343171 
L 228.030954 300.343171 
L 238.030954 300.343171 
" style="fill: none; stroke-dasharray: 7.4,3.2; stroke-dashoffset: 0; stroke: #ff0000; stroke-width: 2"/>
    </g>
    <g id="text_25">
     <!-- $U_A$, EPVP, VEL, SG, ST -->
     <g transform="translate(246.030954 303.843171)scale(0.1 -0.1)">
      <use xlink:href="#NimbusRomNo9L-ReguItal-55" transform="scale(0.996264)"/>
      <use xlink:href="#NimbusRomNo9L-ReguItal-41" transform="translate(69.43937 -15.270966)scale(0.737241)"/>
      <use xlink:href="#NimbusRomNo9L-Regu-2c" transform="translate(114.982846 0)scale(0.996264)"/>
      <use xlink:href="#NimbusRomNo9L-Regu-45" transform="translate(164.796047 0)scale(0.996264)"/>
      <use xlink:href="#NimbusRomNo9L-Regu-50" transform="translate(225.667677 0)scale(0.996264)"/>
      <use xlink:href="#NimbusRomNo9L-Regu-56" transform="translate(281.059354 0)scale(0.996264)"/>
      <use xlink:href="#NimbusRomNo9L-Regu-50" transform="translate(352.989339 0)scale(0.996264)"/>
      <use xlink:href="#NimbusRomNo9L-Regu-2c" transform="translate(397.322571 0)scale(0.996264)"/>
      <use xlink:href="#NimbusRomNo9L-Regu-56" transform="translate(447.135771 0)scale(0.996264)"/>
      <use xlink:href="#NimbusRomNo9L-Regu-45" transform="translate(519.065756 0)scale(0.996264)"/>
      <use xlink:href="#NimbusRomNo9L-Regu-4c" transform="translate(579.937387 0)scale(0.996264)"/>
      <use xlink:href="#NimbusRomNo9L-Regu-2c" transform="translate(640.809018 0)scale(0.996264)"/>
      <use xlink:href="#NimbusRomNo9L-Regu-53" transform="translate(690.622218 0)scale(0.996264)"/>
      <use xlink:href="#NimbusRomNo9L-Regu-47" transform="translate(746.013895 0)scale(0.996264)"/>
      <use xlink:href="#NimbusRomNo9L-Regu-2c" transform="translate(817.94388 0)scale(0.996264)"/>
      <use xlink:href="#NimbusRomNo9L-Regu-53" transform="translate(867.75708 0)scale(0.996264)"/>
      <use xlink:href="#NimbusRomNo9L-Regu-54" transform="translate(923.148757 0)scale(0.996264)"/>
     </g>
    </g>
   </g>
  </g>
 </g>
 <defs>
  <clipPath id="p9acaf545b5">
   <rect x="81" y="43.2" width="502.2" height="271.8"/>
  </clipPath>
 </defs>
</svg>
