<?xml version="1.0" encoding="utf-8" standalone="no"?>
<!DOCTYPE svg PUBLIC "-//W3C//DTD SVG 1.1//EN"
  "http://www.w3.org/Graphics/SVG/1.1/DTD/svg11.dtd">
<svg xmlns:xlink="http://www.w3.org/1999/xlink" width="648pt" height="360pt" viewBox="0 0 648 360" xmlns="http://www.w3.org/2000/svg" version="1.1">
 <metadata>
  <rdf:RDF xmlns:dc="http://purl.org/dc/elements/1.1/" xmlns:cc="http://creativecommons.org/ns#" xmlns:rdf="http://www.w3.org/1999/02/22-rdf-syntax-ns#">
   <cc:Work>
    <dc:type rdf:resource="http://purl.org/dc/dcmitype/StillImage"/>
    <dc:date>2024-09-11T10:15:09.102396</dc:date>
    <dc:format>image/svg+xml</dc:format>
    <dc:creator>
     <cc:Agent>
      <dc:title>Matplotlib v3.5.2, https://matplotlib.org/</dc:title>
     </cc:Agent>
    </dc:creator>
   </cc:Work>
  </rdf:RDF>
 </metadata>
 <defs>
  <style type="text/css">*{stroke-linejoin: round; stroke-linecap: butt}</style>
 </defs>
 <g id="figure_1">
  <g id="patch_1">
   <path d="M 0 360 
L 648 360 
L 648 0 
L 0 0 
z
" style="fill: #ffffff"/>
  </g>
  <g id="axes_1">
   <g id="patch_2">
    <path d="M 81 315 
L 583.2 315 
L 583.2 43.2 
L 81 43.2 
z
" style="fill: #ffffff"/>
   </g>
   <g id="matplotlib.axis_1">
    <g id="xtick_1">
     <g id="line2d_1">
      <path d="M 128.828571 315 
L 128.828571 43.2 
" clip-path="url(#p22f1695f01)" style="fill: none; stroke: #b0b0b0; stroke-width: 0.8; stroke-linecap: square"/>
     </g>
     <g id="line2d_2">
      <defs>
       <path id="mbb7ef16e0b" d="M 0 0 
L 0 3.5 
" style="stroke: #000000; stroke-width: 0.8"/>
      </defs>
      <g>
       <use xlink:href="#mbb7ef16e0b" x="128.828571" y="315" style="stroke: #000000; stroke-width: 0.8"/>
      </g>
     </g>
     <g id="text_1">
      <!-- $\mathdefault{-25}$ -->
      <g transform="translate(118.20647 330.105484)scale(0.12 -0.12)">
       <defs>
        <path id="CMSY10-0" d="M 4218 1472 
C 4326 1472 4442 1472 4442 1600 
C 4442 1728 4326 1728 4218 1728 
L 755 1728 
C 646 1728 531 1728 531 1600 
C 531 1472 646 1472 755 1472 
L 4218 1472 
z
" transform="scale(0.015625)"/>
        <path id="NimbusRomNo9L-Regu-32" d="M 3040 879 
L 2957 912 
C 2720 544 2637 486 2349 486 
L 819 486 
L 1894 1621 
C 2464 2221 2714 2711 2714 3214 
C 2714 3858 2195 4352 1530 4352 
C 1178 4352 845 4211 608 3955 
C 403 3736 307 3530 198 3072 
L 333 3039 
C 589 3671 819 3878 1261 3878 
C 1798 3878 2163 3510 2163 2969 
C 2163 2466 1869 1866 1331 1292 
L 192 76 
L 192 0 
L 2688 0 
L 3040 879 
z
" transform="scale(0.015625)"/>
        <path id="NimbusRomNo9L-Regu-35" d="M 1158 3718 
L 2413 3718 
C 2515 3718 2541 3731 2560 3775 
L 2803 4345 
L 2746 4390 
C 2650 4256 2586 4224 2451 4224 
L 1114 4224 
L 416 2717 
C 410 2705 410 2698 410 2686 
C 410 2654 435 2635 486 2635 
C 691 2635 947 2591 1210 2508 
C 1946 2274 2285 1882 2285 1255 
C 2285 647 1894 172 1395 172 
C 1267 172 1158 217 966 356 
C 762 502 614 565 480 565 
C 294 565 205 489 205 331 
C 205 89 506 -64 986 -64 
C 1523 -64 1984 108 2304 432 
C 2598 717 2733 1078 2733 1559 
C 2733 2015 2611 2306 2291 2622 
C 2010 2901 1645 3047 890 3180 
L 1158 3718 
z
" transform="scale(0.015625)"/>
       </defs>
       <use xlink:href="#CMSY10-0" transform="scale(0.996264)"/>
       <use xlink:href="#NimbusRomNo9L-Regu-32" transform="translate(77.408707 0)scale(0.996264)"/>
       <use xlink:href="#NimbusRomNo9L-Regu-35" transform="translate(127.221908 0)scale(0.996264)"/>
      </g>
     </g>
    </g>
    <g id="xtick_2">
     <g id="line2d_3">
      <path d="M 200.571429 315 
L 200.571429 43.2 
" clip-path="url(#p22f1695f01)" style="fill: none; stroke: #b0b0b0; stroke-width: 0.8; stroke-linecap: square"/>
     </g>
     <g id="line2d_4">
      <g>
       <use xlink:href="#mbb7ef16e0b" x="200.571429" y="315" style="stroke: #000000; stroke-width: 0.8"/>
      </g>
     </g>
     <g id="text_2">
      <!-- $\mathdefault{-20}$ -->
      <g transform="translate(189.949328 330.105484)scale(0.12 -0.12)">
       <defs>
        <path id="NimbusRomNo9L-Regu-30" d="M 1626 4352 
C 1274 4352 1005 4243 768 4019 
C 397 3661 154 2924 154 2176 
C 154 1478 365 729 666 371 
C 902 89 1229 -64 1600 -64 
C 1926 -64 2202 44 2432 268 
C 2803 620 3046 1363 3046 2137 
C 3046 3449 2464 4352 1626 4352 
z
M 1606 4185 
C 2144 4185 2432 3462 2432 2124 
C 2432 787 2150 102 1600 102 
C 1050 102 768 787 768 2118 
C 768 3475 1056 4185 1606 4185 
z
" transform="scale(0.015625)"/>
       </defs>
       <use xlink:href="#CMSY10-0" transform="scale(0.996264)"/>
       <use xlink:href="#NimbusRomNo9L-Regu-32" transform="translate(77.408707 0)scale(0.996264)"/>
       <use xlink:href="#NimbusRomNo9L-Regu-30" transform="translate(127.221908 0)scale(0.996264)"/>
      </g>
     </g>
    </g>
    <g id="xtick_3">
     <g id="line2d_5">
      <path d="M 272.314286 315 
L 272.314286 43.2 
" clip-path="url(#p22f1695f01)" style="fill: none; stroke: #b0b0b0; stroke-width: 0.8; stroke-linecap: square"/>
     </g>
     <g id="line2d_6">
      <g>
       <use xlink:href="#mbb7ef16e0b" x="272.314286" y="315" style="stroke: #000000; stroke-width: 0.8"/>
      </g>
     </g>
     <g id="text_3">
      <!-- $\mathdefault{-15}$ -->
      <g transform="translate(261.692185 330.105484)scale(0.12 -0.12)">
       <defs>
        <path id="NimbusRomNo9L-Regu-31" d="M 1862 4352 
L 710 3776 
L 710 3686 
C 787 3718 858 3743 883 3756 
C 998 3801 1107 3826 1171 3826 
C 1306 3826 1363 3731 1363 3525 
L 1363 599 
C 1363 386 1312 238 1210 179 
C 1114 121 1024 102 755 96 
L 755 0 
L 2522 0 
L 2522 96 
C 2016 102 1914 167 1914 477 
L 1914 4339 
L 1862 4352 
z
" transform="scale(0.015625)"/>
       </defs>
       <use xlink:href="#CMSY10-0" transform="scale(0.996264)"/>
       <use xlink:href="#NimbusRomNo9L-Regu-31" transform="translate(77.408707 0)scale(0.996264)"/>
       <use xlink:href="#NimbusRomNo9L-Regu-35" transform="translate(127.221908 0)scale(0.996264)"/>
      </g>
     </g>
    </g>
    <g id="xtick_4">
     <g id="line2d_7">
      <path d="M 344.057143 315 
L 344.057143 43.2 
" clip-path="url(#p22f1695f01)" style="fill: none; stroke: #b0b0b0; stroke-width: 0.8; stroke-linecap: square"/>
     </g>
     <g id="line2d_8">
      <g>
       <use xlink:href="#mbb7ef16e0b" x="344.057143" y="315" style="stroke: #000000; stroke-width: 0.8"/>
      </g>
     </g>
     <g id="text_4">
      <!-- $\mathdefault{-10}$ -->
      <g transform="translate(333.435042 330.105484)scale(0.12 -0.12)">
       <use xlink:href="#CMSY10-0" transform="scale(0.996264)"/>
       <use xlink:href="#NimbusRomNo9L-Regu-31" transform="translate(77.408707 0)scale(0.996264)"/>
       <use xlink:href="#NimbusRomNo9L-Regu-30" transform="translate(127.221908 0)scale(0.996264)"/>
      </g>
     </g>
    </g>
    <g id="xtick_5">
     <g id="line2d_9">
      <path d="M 415.8 315 
L 415.8 43.2 
" clip-path="url(#p22f1695f01)" style="fill: none; stroke: #b0b0b0; stroke-width: 0.8; stroke-linecap: square"/>
     </g>
     <g id="line2d_10">
      <g>
       <use xlink:href="#mbb7ef16e0b" x="415.8" y="315" style="stroke: #000000; stroke-width: 0.8"/>
      </g>
     </g>
     <g id="text_5">
      <!-- $\mathdefault{-5}$ -->
      <g transform="translate(408.166691 330.105484)scale(0.12 -0.12)">
       <use xlink:href="#CMSY10-0" transform="scale(0.996264)"/>
       <use xlink:href="#NimbusRomNo9L-Regu-35" transform="translate(77.408707 0)scale(0.996264)"/>
      </g>
     </g>
    </g>
    <g id="xtick_6">
     <g id="line2d_11">
      <path d="M 487.542857 315 
L 487.542857 43.2 
" clip-path="url(#p22f1695f01)" style="fill: none; stroke: #b0b0b0; stroke-width: 0.8; stroke-linecap: square"/>
     </g>
     <g id="line2d_12">
      <g>
       <use xlink:href="#mbb7ef16e0b" x="487.542857" y="315" style="stroke: #000000; stroke-width: 0.8"/>
      </g>
     </g>
     <g id="text_6">
      <!-- $\mathdefault{0}$ -->
      <g transform="translate(484.554065 330.105484)scale(0.12 -0.12)">
       <use xlink:href="#NimbusRomNo9L-Regu-30" transform="scale(0.996264)"/>
      </g>
     </g>
    </g>
    <g id="xtick_7">
     <g id="line2d_13">
      <path d="M 559.285714 315 
L 559.285714 43.2 
" clip-path="url(#p22f1695f01)" style="fill: none; stroke: #b0b0b0; stroke-width: 0.8; stroke-linecap: square"/>
     </g>
     <g id="line2d_14">
      <g>
       <use xlink:href="#mbb7ef16e0b" x="559.285714" y="315" style="stroke: #000000; stroke-width: 0.8"/>
      </g>
     </g>
     <g id="text_7">
      <!-- $\mathdefault{5}$ -->
      <g transform="translate(556.296922 330.105484)scale(0.12 -0.12)">
       <use xlink:href="#NimbusRomNo9L-Regu-35" transform="scale(0.996264)"/>
      </g>
     </g>
    </g>
    <g id="xtick_8">
     <g id="line2d_15">
      <path d="M 85.782857 315 
L 85.782857 43.2 
" clip-path="url(#p22f1695f01)" style="fill: none; stroke: #b0b0b0; stroke-opacity: 0.3; stroke-width: 0.8; stroke-linecap: square"/>
     </g>
     <g id="line2d_16">
      <defs>
       <path id="m3fe97b4b5f" d="M 0 0 
L 0 2 
" style="stroke: #000000; stroke-width: 0.6"/>
      </defs>
      <g>
       <use xlink:href="#m3fe97b4b5f" x="85.782857" y="315" style="stroke: #000000; stroke-width: 0.6"/>
      </g>
     </g>
    </g>
    <g id="xtick_9">
     <g id="line2d_17">
      <path d="M 100.131429 315 
L 100.131429 43.2 
" clip-path="url(#p22f1695f01)" style="fill: none; stroke: #b0b0b0; stroke-opacity: 0.3; stroke-width: 0.8; stroke-linecap: square"/>
     </g>
     <g id="line2d_18">
      <g>
       <use xlink:href="#m3fe97b4b5f" x="100.131429" y="315" style="stroke: #000000; stroke-width: 0.6"/>
      </g>
     </g>
    </g>
    <g id="xtick_10">
     <g id="line2d_19">
      <path d="M 114.48 315 
L 114.48 43.2 
" clip-path="url(#p22f1695f01)" style="fill: none; stroke: #b0b0b0; stroke-opacity: 0.3; stroke-width: 0.8; stroke-linecap: square"/>
     </g>
     <g id="line2d_20">
      <g>
       <use xlink:href="#m3fe97b4b5f" x="114.48" y="315" style="stroke: #000000; stroke-width: 0.6"/>
      </g>
     </g>
    </g>
    <g id="xtick_11">
     <g id="line2d_21">
      <path d="M 143.177143 315 
L 143.177143 43.2 
" clip-path="url(#p22f1695f01)" style="fill: none; stroke: #b0b0b0; stroke-opacity: 0.3; stroke-width: 0.8; stroke-linecap: square"/>
     </g>
     <g id="line2d_22">
      <g>
       <use xlink:href="#m3fe97b4b5f" x="143.177143" y="315" style="stroke: #000000; stroke-width: 0.6"/>
      </g>
     </g>
    </g>
    <g id="xtick_12">
     <g id="line2d_23">
      <path d="M 157.525714 315 
L 157.525714 43.2 
" clip-path="url(#p22f1695f01)" style="fill: none; stroke: #b0b0b0; stroke-opacity: 0.3; stroke-width: 0.8; stroke-linecap: square"/>
     </g>
     <g id="line2d_24">
      <g>
       <use xlink:href="#m3fe97b4b5f" x="157.525714" y="315" style="stroke: #000000; stroke-width: 0.6"/>
      </g>
     </g>
    </g>
    <g id="xtick_13">
     <g id="line2d_25">
      <path d="M 171.874286 315 
L 171.874286 43.2 
" clip-path="url(#p22f1695f01)" style="fill: none; stroke: #b0b0b0; stroke-opacity: 0.3; stroke-width: 0.8; stroke-linecap: square"/>
     </g>
     <g id="line2d_26">
      <g>
       <use xlink:href="#m3fe97b4b5f" x="171.874286" y="315" style="stroke: #000000; stroke-width: 0.6"/>
      </g>
     </g>
    </g>
    <g id="xtick_14">
     <g id="line2d_27">
      <path d="M 186.222857 315 
L 186.222857 43.2 
" clip-path="url(#p22f1695f01)" style="fill: none; stroke: #b0b0b0; stroke-opacity: 0.3; stroke-width: 0.8; stroke-linecap: square"/>
     </g>
     <g id="line2d_28">
      <g>
       <use xlink:href="#m3fe97b4b5f" x="186.222857" y="315" style="stroke: #000000; stroke-width: 0.6"/>
      </g>
     </g>
    </g>
    <g id="xtick_15">
     <g id="line2d_29">
      <path d="M 214.92 315 
L 214.92 43.2 
" clip-path="url(#p22f1695f01)" style="fill: none; stroke: #b0b0b0; stroke-opacity: 0.3; stroke-width: 0.8; stroke-linecap: square"/>
     </g>
     <g id="line2d_30">
      <g>
       <use xlink:href="#m3fe97b4b5f" x="214.92" y="315" style="stroke: #000000; stroke-width: 0.6"/>
      </g>
     </g>
    </g>
    <g id="xtick_16">
     <g id="line2d_31">
      <path d="M 229.268571 315 
L 229.268571 43.2 
" clip-path="url(#p22f1695f01)" style="fill: none; stroke: #b0b0b0; stroke-opacity: 0.3; stroke-width: 0.8; stroke-linecap: square"/>
     </g>
     <g id="line2d_32">
      <g>
       <use xlink:href="#m3fe97b4b5f" x="229.268571" y="315" style="stroke: #000000; stroke-width: 0.6"/>
      </g>
     </g>
    </g>
    <g id="xtick_17">
     <g id="line2d_33">
      <path d="M 243.617143 315 
L 243.617143 43.2 
" clip-path="url(#p22f1695f01)" style="fill: none; stroke: #b0b0b0; stroke-opacity: 0.3; stroke-width: 0.8; stroke-linecap: square"/>
     </g>
     <g id="line2d_34">
      <g>
       <use xlink:href="#m3fe97b4b5f" x="243.617143" y="315" style="stroke: #000000; stroke-width: 0.6"/>
      </g>
     </g>
    </g>
    <g id="xtick_18">
     <g id="line2d_35">
      <path d="M 257.965714 315 
L 257.965714 43.2 
" clip-path="url(#p22f1695f01)" style="fill: none; stroke: #b0b0b0; stroke-opacity: 0.3; stroke-width: 0.8; stroke-linecap: square"/>
     </g>
     <g id="line2d_36">
      <g>
       <use xlink:href="#m3fe97b4b5f" x="257.965714" y="315" style="stroke: #000000; stroke-width: 0.6"/>
      </g>
     </g>
    </g>
    <g id="xtick_19">
     <g id="line2d_37">
      <path d="M 286.662857 315 
L 286.662857 43.2 
" clip-path="url(#p22f1695f01)" style="fill: none; stroke: #b0b0b0; stroke-opacity: 0.3; stroke-width: 0.8; stroke-linecap: square"/>
     </g>
     <g id="line2d_38">
      <g>
       <use xlink:href="#m3fe97b4b5f" x="286.662857" y="315" style="stroke: #000000; stroke-width: 0.6"/>
      </g>
     </g>
    </g>
    <g id="xtick_20">
     <g id="line2d_39">
      <path d="M 301.011429 315 
L 301.011429 43.2 
" clip-path="url(#p22f1695f01)" style="fill: none; stroke: #b0b0b0; stroke-opacity: 0.3; stroke-width: 0.8; stroke-linecap: square"/>
     </g>
     <g id="line2d_40">
      <g>
       <use xlink:href="#m3fe97b4b5f" x="301.011429" y="315" style="stroke: #000000; stroke-width: 0.6"/>
      </g>
     </g>
    </g>
    <g id="xtick_21">
     <g id="line2d_41">
      <path d="M 315.36 315 
L 315.36 43.2 
" clip-path="url(#p22f1695f01)" style="fill: none; stroke: #b0b0b0; stroke-opacity: 0.3; stroke-width: 0.8; stroke-linecap: square"/>
     </g>
     <g id="line2d_42">
      <g>
       <use xlink:href="#m3fe97b4b5f" x="315.36" y="315" style="stroke: #000000; stroke-width: 0.6"/>
      </g>
     </g>
    </g>
    <g id="xtick_22">
     <g id="line2d_43">
      <path d="M 329.708571 315 
L 329.708571 43.2 
" clip-path="url(#p22f1695f01)" style="fill: none; stroke: #b0b0b0; stroke-opacity: 0.3; stroke-width: 0.8; stroke-linecap: square"/>
     </g>
     <g id="line2d_44">
      <g>
       <use xlink:href="#m3fe97b4b5f" x="329.708571" y="315" style="stroke: #000000; stroke-width: 0.6"/>
      </g>
     </g>
    </g>
    <g id="xtick_23">
     <g id="line2d_45">
      <path d="M 358.405714 315 
L 358.405714 43.2 
" clip-path="url(#p22f1695f01)" style="fill: none; stroke: #b0b0b0; stroke-opacity: 0.3; stroke-width: 0.8; stroke-linecap: square"/>
     </g>
     <g id="line2d_46">
      <g>
       <use xlink:href="#m3fe97b4b5f" x="358.405714" y="315" style="stroke: #000000; stroke-width: 0.6"/>
      </g>
     </g>
    </g>
    <g id="xtick_24">
     <g id="line2d_47">
      <path d="M 372.754286 315 
L 372.754286 43.2 
" clip-path="url(#p22f1695f01)" style="fill: none; stroke: #b0b0b0; stroke-opacity: 0.3; stroke-width: 0.8; stroke-linecap: square"/>
     </g>
     <g id="line2d_48">
      <g>
       <use xlink:href="#m3fe97b4b5f" x="372.754286" y="315" style="stroke: #000000; stroke-width: 0.6"/>
      </g>
     </g>
    </g>
    <g id="xtick_25">
     <g id="line2d_49">
      <path d="M 387.102857 315 
L 387.102857 43.2 
" clip-path="url(#p22f1695f01)" style="fill: none; stroke: #b0b0b0; stroke-opacity: 0.3; stroke-width: 0.8; stroke-linecap: square"/>
     </g>
     <g id="line2d_50">
      <g>
       <use xlink:href="#m3fe97b4b5f" x="387.102857" y="315" style="stroke: #000000; stroke-width: 0.6"/>
      </g>
     </g>
    </g>
    <g id="xtick_26">
     <g id="line2d_51">
      <path d="M 401.451429 315 
L 401.451429 43.2 
" clip-path="url(#p22f1695f01)" style="fill: none; stroke: #b0b0b0; stroke-opacity: 0.3; stroke-width: 0.8; stroke-linecap: square"/>
     </g>
     <g id="line2d_52">
      <g>
       <use xlink:href="#m3fe97b4b5f" x="401.451429" y="315" style="stroke: #000000; stroke-width: 0.6"/>
      </g>
     </g>
    </g>
    <g id="xtick_27">
     <g id="line2d_53">
      <path d="M 430.148571 315 
L 430.148571 43.2 
" clip-path="url(#p22f1695f01)" style="fill: none; stroke: #b0b0b0; stroke-opacity: 0.3; stroke-width: 0.8; stroke-linecap: square"/>
     </g>
     <g id="line2d_54">
      <g>
       <use xlink:href="#m3fe97b4b5f" x="430.148571" y="315" style="stroke: #000000; stroke-width: 0.6"/>
      </g>
     </g>
    </g>
    <g id="xtick_28">
     <g id="line2d_55">
      <path d="M 444.497143 315 
L 444.497143 43.2 
" clip-path="url(#p22f1695f01)" style="fill: none; stroke: #b0b0b0; stroke-opacity: 0.3; stroke-width: 0.8; stroke-linecap: square"/>
     </g>
     <g id="line2d_56">
      <g>
       <use xlink:href="#m3fe97b4b5f" x="444.497143" y="315" style="stroke: #000000; stroke-width: 0.6"/>
      </g>
     </g>
    </g>
    <g id="xtick_29">
     <g id="line2d_57">
      <path d="M 458.845714 315 
L 458.845714 43.2 
" clip-path="url(#p22f1695f01)" style="fill: none; stroke: #b0b0b0; stroke-opacity: 0.3; stroke-width: 0.8; stroke-linecap: square"/>
     </g>
     <g id="line2d_58">
      <g>
       <use xlink:href="#m3fe97b4b5f" x="458.845714" y="315" style="stroke: #000000; stroke-width: 0.6"/>
      </g>
     </g>
    </g>
    <g id="xtick_30">
     <g id="line2d_59">
      <path d="M 473.194286 315 
L 473.194286 43.2 
" clip-path="url(#p22f1695f01)" style="fill: none; stroke: #b0b0b0; stroke-opacity: 0.3; stroke-width: 0.8; stroke-linecap: square"/>
     </g>
     <g id="line2d_60">
      <g>
       <use xlink:href="#m3fe97b4b5f" x="473.194286" y="315" style="stroke: #000000; stroke-width: 0.6"/>
      </g>
     </g>
    </g>
    <g id="xtick_31">
     <g id="line2d_61">
      <path d="M 501.891429 315 
L 501.891429 43.2 
" clip-path="url(#p22f1695f01)" style="fill: none; stroke: #b0b0b0; stroke-opacity: 0.3; stroke-width: 0.8; stroke-linecap: square"/>
     </g>
     <g id="line2d_62">
      <g>
       <use xlink:href="#m3fe97b4b5f" x="501.891429" y="315" style="stroke: #000000; stroke-width: 0.6"/>
      </g>
     </g>
    </g>
    <g id="xtick_32">
     <g id="line2d_63">
      <path d="M 516.24 315 
L 516.24 43.2 
" clip-path="url(#p22f1695f01)" style="fill: none; stroke: #b0b0b0; stroke-opacity: 0.3; stroke-width: 0.8; stroke-linecap: square"/>
     </g>
     <g id="line2d_64">
      <g>
       <use xlink:href="#m3fe97b4b5f" x="516.24" y="315" style="stroke: #000000; stroke-width: 0.6"/>
      </g>
     </g>
    </g>
    <g id="xtick_33">
     <g id="line2d_65">
      <path d="M 530.588571 315 
L 530.588571 43.2 
" clip-path="url(#p22f1695f01)" style="fill: none; stroke: #b0b0b0; stroke-opacity: 0.3; stroke-width: 0.8; stroke-linecap: square"/>
     </g>
     <g id="line2d_66">
      <g>
       <use xlink:href="#m3fe97b4b5f" x="530.588571" y="315" style="stroke: #000000; stroke-width: 0.6"/>
      </g>
     </g>
    </g>
    <g id="xtick_34">
     <g id="line2d_67">
      <path d="M 544.937143 315 
L 544.937143 43.2 
" clip-path="url(#p22f1695f01)" style="fill: none; stroke: #b0b0b0; stroke-opacity: 0.3; stroke-width: 0.8; stroke-linecap: square"/>
     </g>
     <g id="line2d_68">
      <g>
       <use xlink:href="#m3fe97b4b5f" x="544.937143" y="315" style="stroke: #000000; stroke-width: 0.6"/>
      </g>
     </g>
    </g>
    <g id="xtick_35">
     <g id="line2d_69">
      <path d="M 573.634286 315 
L 573.634286 43.2 
" clip-path="url(#p22f1695f01)" style="fill: none; stroke: #b0b0b0; stroke-opacity: 0.3; stroke-width: 0.8; stroke-linecap: square"/>
     </g>
     <g id="line2d_70">
      <g>
       <use xlink:href="#m3fe97b4b5f" x="573.634286" y="315" style="stroke: #000000; stroke-width: 0.6"/>
      </g>
     </g>
    </g>
    <g id="text_8">
     <!-- $z/R_t$ -->
     <g transform="translate(321.999495 345.660055)scale(0.12 -0.12)">
      <defs>
       <path id="NimbusRomNo9L-ReguItal-7a" d="M 518 1991 
C 653 2310 736 2368 1037 2368 
L 1971 2368 
L -13 -7 
L 45 -64 
C 147 19 230 51 339 51 
C 493 51 704 -32 1005 -225 
C 1325 -429 1542 -512 1722 -512 
C 2042 -512 2323 -278 2323 -13 
C 2323 121 2234 217 2099 217 
C 1971 198 1882 115 1882 0 
C 1882 -57 1901 -120 1939 -189 
C 1958 -227 1971 -265 1971 -284 
C 1971 -340 1901 -378 1798 -378 
C 1638 -378 1562 -328 1350 -63 
C 1069 301 947 385 576 469 
L 2432 2681 
L 2432 2752 
L 614 2752 
L 416 2013 
L 518 1991 
z
" transform="scale(0.015625)"/>
       <path id="CMMI10-3d" d="M 2810 4557 
C 2842 4640 2842 4665 2842 4672 
C 2842 4742 2784 4800 2714 4800 
C 2669 4800 2624 4780 2605 4742 
L 384 -1357 
C 352 -1440 352 -1466 352 -1472 
C 352 -1543 410 -1600 480 -1600 
C 563 -1600 582 -1556 621 -1447 
L 2810 4557 
z
" transform="scale(0.015625)"/>
       <path id="NimbusRomNo9L-ReguItal-52" d="M 3629 102 
C 3347 121 3219 229 3098 561 
L 2502 2121 
C 2995 2229 3206 2318 3437 2522 
C 3648 2707 3763 2955 3763 3242 
C 3763 3834 3290 4160 2432 4160 
L 845 4160 
L 845 4057 
C 1114 4019 1146 4012 1210 3967 
C 1261 3936 1299 3859 1299 3789 
C 1299 3713 1267 3560 1222 3388 
L 435 573 
C 320 198 275 159 -83 102 
L -83 0 
L 1478 0 
L 1478 102 
C 1088 153 1043 185 1043 395 
C 1043 459 1062 541 1120 764 
L 1478 2095 
L 1894 2063 
L 2682 0 
L 3629 0 
L 3629 102 
z
M 1971 3789 
C 2010 3923 2093 3967 2298 3967 
C 2829 3967 3091 3726 3091 3254 
C 3091 2624 2682 2299 1882 2299 
C 1779 2299 1709 2305 1555 2331 
L 1971 3789 
z
" transform="scale(0.015625)"/>
       <path id="NimbusRomNo9L-ReguItal-74" d="M 1894 2752 
L 1382 2752 
L 1562 3411 
C 1568 3424 1568 3436 1568 3443 
C 1568 3488 1549 3507 1517 3507 
C 1478 3507 1459 3500 1421 3449 
C 1171 3123 774 2803 570 2745 
C 410 2694 365 2655 365 2585 
C 365 2579 365 2566 371 2547 
L 845 2547 
L 384 782 
C 371 724 365 705 346 647 
C 288 454 237 230 237 179 
C 237 38 371 -64 544 -64 
C 838 -64 1050 115 1453 711 
L 1370 756 
C 1056 352 954 249 851 249 
C 794 249 755 300 755 377 
C 755 384 755 390 762 410 
L 1325 2547 
L 1862 2547 
L 1894 2752 
z
" transform="scale(0.015625)"/>
      </defs>
      <use xlink:href="#NimbusRomNo9L-ReguItal-7a" transform="scale(0.996264)"/>
      <use xlink:href="#CMMI10-3d" transform="translate(38.753706 0)scale(0.996264)"/>
      <use xlink:href="#NimbusRomNo9L-ReguItal-52" transform="translate(88.566907 0)scale(0.996264)"/>
      <use xlink:href="#NimbusRomNo9L-ReguItal-74" transform="translate(147.595458 -14.943915)scale(0.737241)"/>
     </g>
    </g>
   </g>
   <g id="matplotlib.axis_2">
    <g id="ytick_1">
     <g id="line2d_71">
      <path d="M 81 315 
L 583.2 315 
" clip-path="url(#p22f1695f01)" style="fill: none; stroke: #b0b0b0; stroke-width: 0.8; stroke-linecap: square"/>
     </g>
     <g id="line2d_72">
      <defs>
       <path id="m66b170892a" d="M 0 0 
L -3.5 0 
" style="stroke: #000000; stroke-width: 0.8"/>
      </defs>
      <g>
       <use xlink:href="#m66b170892a" x="81" y="315" style="stroke: #000000; stroke-width: 0.8"/>
      </g>
     </g>
     <g id="text_9">
      <!-- 0.00 -->
      <g transform="translate(53.078456 319.052742)scale(0.12 -0.12)">
       <defs>
        <path id="NimbusRomNo9L-Regu-2e" d="M 800 646 
C 608 646 448 480 448 281 
C 448 96 608 -64 794 -64 
C 992 -64 1158 96 1158 281 
C 1158 480 992 646 800 646 
z
" transform="scale(0.015625)"/>
       </defs>
       <use xlink:href="#NimbusRomNo9L-Regu-30" transform="scale(0.996264)"/>
       <use xlink:href="#NimbusRomNo9L-Regu-2e" transform="translate(49.8132 0)scale(0.996264)"/>
       <use xlink:href="#NimbusRomNo9L-Regu-30" transform="translate(74.719801 0)scale(0.996264)"/>
       <use xlink:href="#NimbusRomNo9L-Regu-30" transform="translate(124.533001 0)scale(0.996264)"/>
      </g>
     </g>
    </g>
    <g id="ytick_2">
     <g id="line2d_73">
      <path d="M 81 278.76 
L 583.2 278.76 
" clip-path="url(#p22f1695f01)" style="fill: none; stroke: #b0b0b0; stroke-width: 0.8; stroke-linecap: square"/>
     </g>
     <g id="line2d_74">
      <g>
       <use xlink:href="#m66b170892a" x="81" y="278.76" style="stroke: #000000; stroke-width: 0.8"/>
      </g>
     </g>
     <g id="text_10">
      <!-- 0.20 -->
      <g transform="translate(53.078456 282.812742)scale(0.12 -0.12)">
       <use xlink:href="#NimbusRomNo9L-Regu-30" transform="scale(0.996264)"/>
       <use xlink:href="#NimbusRomNo9L-Regu-2e" transform="translate(49.8132 0)scale(0.996264)"/>
       <use xlink:href="#NimbusRomNo9L-Regu-32" transform="translate(74.719801 0)scale(0.996264)"/>
       <use xlink:href="#NimbusRomNo9L-Regu-30" transform="translate(124.533001 0)scale(0.996264)"/>
      </g>
     </g>
    </g>
    <g id="ytick_3">
     <g id="line2d_75">
      <path d="M 81 242.52 
L 583.2 242.52 
" clip-path="url(#p22f1695f01)" style="fill: none; stroke: #b0b0b0; stroke-width: 0.8; stroke-linecap: square"/>
     </g>
     <g id="line2d_76">
      <g>
       <use xlink:href="#m66b170892a" x="81" y="242.52" style="stroke: #000000; stroke-width: 0.8"/>
      </g>
     </g>
     <g id="text_11">
      <!-- 0.40 -->
      <g transform="translate(53.078456 246.572742)scale(0.12 -0.12)">
       <defs>
        <path id="NimbusRomNo9L-Regu-34" d="M 3021 1497 
L 2368 1497 
L 2368 4352 
L 2086 4352 
L 77 1497 
L 77 1088 
L 1875 1088 
L 1875 0 
L 2368 0 
L 2368 1088 
L 3021 1088 
L 3021 1497 
z
M 1869 1497 
L 333 1497 
L 1869 3697 
L 1869 1497 
z
" transform="scale(0.015625)"/>
       </defs>
       <use xlink:href="#NimbusRomNo9L-Regu-30" transform="scale(0.996264)"/>
       <use xlink:href="#NimbusRomNo9L-Regu-2e" transform="translate(49.8132 0)scale(0.996264)"/>
       <use xlink:href="#NimbusRomNo9L-Regu-34" transform="translate(74.719801 0)scale(0.996264)"/>
       <use xlink:href="#NimbusRomNo9L-Regu-30" transform="translate(124.533001 0)scale(0.996264)"/>
      </g>
     </g>
    </g>
    <g id="ytick_4">
     <g id="line2d_77">
      <path d="M 81 206.28 
L 583.2 206.28 
" clip-path="url(#p22f1695f01)" style="fill: none; stroke: #b0b0b0; stroke-width: 0.8; stroke-linecap: square"/>
     </g>
     <g id="line2d_78">
      <g>
       <use xlink:href="#m66b170892a" x="81" y="206.28" style="stroke: #000000; stroke-width: 0.8"/>
      </g>
     </g>
     <g id="text_12">
      <!-- 0.60 -->
      <g transform="translate(53.078456 210.332742)scale(0.12 -0.12)">
       <defs>
        <path id="NimbusRomNo9L-Regu-36" d="M 2854 4390 
C 2125 4326 1754 4204 1286 3878 
C 595 3385 218 2655 218 1801 
C 218 1248 390 688 666 369 
C 909 89 1254 -64 1651 -64 
C 2445 -64 2995 541 2995 1420 
C 2995 2234 2528 2752 1792 2752 
C 1510 2752 1376 2707 973 2463 
C 1146 3430 1862 4121 2867 4288 
L 2854 4390 
z
M 1549 2457 
C 2099 2457 2419 1999 2419 1203 
C 2419 503 2170 115 1722 115 
C 1158 115 813 713 813 1700 
C 813 2024 864 2203 992 2298 
C 1126 2400 1325 2457 1549 2457 
z
" transform="scale(0.015625)"/>
       </defs>
       <use xlink:href="#NimbusRomNo9L-Regu-30" transform="scale(0.996264)"/>
       <use xlink:href="#NimbusRomNo9L-Regu-2e" transform="translate(49.8132 0)scale(0.996264)"/>
       <use xlink:href="#NimbusRomNo9L-Regu-36" transform="translate(74.719801 0)scale(0.996264)"/>
       <use xlink:href="#NimbusRomNo9L-Regu-30" transform="translate(124.533001 0)scale(0.996264)"/>
      </g>
     </g>
    </g>
    <g id="ytick_5">
     <g id="line2d_79">
      <path d="M 81 170.04 
L 583.2 170.04 
" clip-path="url(#p22f1695f01)" style="fill: none; stroke: #b0b0b0; stroke-width: 0.8; stroke-linecap: square"/>
     </g>
     <g id="line2d_80">
      <g>
       <use xlink:href="#m66b170892a" x="81" y="170.04" style="stroke: #000000; stroke-width: 0.8"/>
      </g>
     </g>
     <g id="text_13">
      <!-- 0.80 -->
      <g transform="translate(53.078456 174.092742)scale(0.12 -0.12)">
       <defs>
        <path id="NimbusRomNo9L-Regu-38" d="M 1856 2400 
C 2490 2739 2714 3008 2714 3443 
C 2714 3968 2253 4352 1613 4352 
C 915 4352 397 3923 397 3341 
C 397 2924 518 2739 1190 2150 
C 499 1625 358 1427 358 992 
C 358 371 864 -64 1587 -64 
C 2355 -64 2848 358 2848 1017 
C 2848 1510 2630 1824 1856 2400 
z
M 1741 1740 
C 2208 1408 2362 1177 2362 819 
C 2362 403 2074 115 1658 115 
C 1171 115 845 486 845 1043 
C 845 1452 986 1721 1357 2022 
L 1741 1740 
z
M 1670 2515 
C 1101 2886 870 3180 870 3539 
C 870 3910 1158 4172 1562 4172 
C 1997 4172 2272 3891 2272 3449 
C 2272 3084 2093 2796 1728 2553 
C 1696 2534 1696 2534 1670 2515 
z
" transform="scale(0.015625)"/>
       </defs>
       <use xlink:href="#NimbusRomNo9L-Regu-30" transform="scale(0.996264)"/>
       <use xlink:href="#NimbusRomNo9L-Regu-2e" transform="translate(49.8132 0)scale(0.996264)"/>
       <use xlink:href="#NimbusRomNo9L-Regu-38" transform="translate(74.719801 0)scale(0.996264)"/>
       <use xlink:href="#NimbusRomNo9L-Regu-30" transform="translate(124.533001 0)scale(0.996264)"/>
      </g>
     </g>
    </g>
    <g id="ytick_6">
     <g id="line2d_81">
      <path d="M 81 133.8 
L 583.2 133.8 
" clip-path="url(#p22f1695f01)" style="fill: none; stroke: #b0b0b0; stroke-width: 0.8; stroke-linecap: square"/>
     </g>
     <g id="line2d_82">
      <g>
       <use xlink:href="#m66b170892a" x="81" y="133.8" style="stroke: #000000; stroke-width: 0.8"/>
      </g>
     </g>
     <g id="text_14">
      <!-- 1.00 -->
      <g transform="translate(53.078456 137.852742)scale(0.12 -0.12)">
       <use xlink:href="#NimbusRomNo9L-Regu-31" transform="scale(0.996264)"/>
       <use xlink:href="#NimbusRomNo9L-Regu-2e" transform="translate(49.8132 0)scale(0.996264)"/>
       <use xlink:href="#NimbusRomNo9L-Regu-30" transform="translate(74.719801 0)scale(0.996264)"/>
       <use xlink:href="#NimbusRomNo9L-Regu-30" transform="translate(124.533001 0)scale(0.996264)"/>
      </g>
     </g>
    </g>
    <g id="ytick_7">
     <g id="line2d_83">
      <path d="M 81 97.56 
L 583.2 97.56 
" clip-path="url(#p22f1695f01)" style="fill: none; stroke: #b0b0b0; stroke-width: 0.8; stroke-linecap: square"/>
     </g>
     <g id="line2d_84">
      <g>
       <use xlink:href="#m66b170892a" x="81" y="97.56" style="stroke: #000000; stroke-width: 0.8"/>
      </g>
     </g>
     <g id="text_15">
      <!-- 1.20 -->
      <g transform="translate(53.078456 101.612742)scale(0.12 -0.12)">
       <use xlink:href="#NimbusRomNo9L-Regu-31" transform="scale(0.996264)"/>
       <use xlink:href="#NimbusRomNo9L-Regu-2e" transform="translate(49.8132 0)scale(0.996264)"/>
       <use xlink:href="#NimbusRomNo9L-Regu-32" transform="translate(74.719801 0)scale(0.996264)"/>
       <use xlink:href="#NimbusRomNo9L-Regu-30" transform="translate(124.533001 0)scale(0.996264)"/>
      </g>
     </g>
    </g>
    <g id="ytick_8">
     <g id="line2d_85">
      <path d="M 81 61.32 
L 583.2 61.32 
" clip-path="url(#p22f1695f01)" style="fill: none; stroke: #b0b0b0; stroke-width: 0.8; stroke-linecap: square"/>
     </g>
     <g id="line2d_86">
      <g>
       <use xlink:href="#m66b170892a" x="81" y="61.32" style="stroke: #000000; stroke-width: 0.8"/>
      </g>
     </g>
     <g id="text_16">
      <!-- 1.40 -->
      <g transform="translate(53.078456 65.372742)scale(0.12 -0.12)">
       <use xlink:href="#NimbusRomNo9L-Regu-31" transform="scale(0.996264)"/>
       <use xlink:href="#NimbusRomNo9L-Regu-2e" transform="translate(49.8132 0)scale(0.996264)"/>
       <use xlink:href="#NimbusRomNo9L-Regu-34" transform="translate(74.719801 0)scale(0.996264)"/>
       <use xlink:href="#NimbusRomNo9L-Regu-30" transform="translate(124.533001 0)scale(0.996264)"/>
      </g>
     </g>
    </g>
    <g id="ytick_9">
     <g id="line2d_87">
      <path d="M 81 305.94 
L 583.2 305.94 
" clip-path="url(#p22f1695f01)" style="fill: none; stroke: #b0b0b0; stroke-opacity: 0.3; stroke-width: 0.8; stroke-linecap: square"/>
     </g>
     <g id="line2d_88">
      <defs>
       <path id="m82e3c95e25" d="M 0 0 
L -2 0 
" style="stroke: #000000; stroke-width: 0.6"/>
      </defs>
      <g>
       <use xlink:href="#m82e3c95e25" x="81" y="305.94" style="stroke: #000000; stroke-width: 0.6"/>
      </g>
     </g>
    </g>
    <g id="ytick_10">
     <g id="line2d_89">
      <path d="M 81 296.88 
L 583.2 296.88 
" clip-path="url(#p22f1695f01)" style="fill: none; stroke: #b0b0b0; stroke-opacity: 0.3; stroke-width: 0.8; stroke-linecap: square"/>
     </g>
     <g id="line2d_90">
      <g>
       <use xlink:href="#m82e3c95e25" x="81" y="296.88" style="stroke: #000000; stroke-width: 0.6"/>
      </g>
     </g>
    </g>
    <g id="ytick_11">
     <g id="line2d_91">
      <path d="M 81 287.82 
L 583.2 287.82 
" clip-path="url(#p22f1695f01)" style="fill: none; stroke: #b0b0b0; stroke-opacity: 0.3; stroke-width: 0.8; stroke-linecap: square"/>
     </g>
     <g id="line2d_92">
      <g>
       <use xlink:href="#m82e3c95e25" x="81" y="287.82" style="stroke: #000000; stroke-width: 0.6"/>
      </g>
     </g>
    </g>
    <g id="ytick_12">
     <g id="line2d_93">
      <path d="M 81 269.7 
L 583.2 269.7 
" clip-path="url(#p22f1695f01)" style="fill: none; stroke: #b0b0b0; stroke-opacity: 0.3; stroke-width: 0.8; stroke-linecap: square"/>
     </g>
     <g id="line2d_94">
      <g>
       <use xlink:href="#m82e3c95e25" x="81" y="269.7" style="stroke: #000000; stroke-width: 0.6"/>
      </g>
     </g>
    </g>
    <g id="ytick_13">
     <g id="line2d_95">
      <path d="M 81 260.64 
L 583.2 260.64 
" clip-path="url(#p22f1695f01)" style="fill: none; stroke: #b0b0b0; stroke-opacity: 0.3; stroke-width: 0.8; stroke-linecap: square"/>
     </g>
     <g id="line2d_96">
      <g>
       <use xlink:href="#m82e3c95e25" x="81" y="260.64" style="stroke: #000000; stroke-width: 0.6"/>
      </g>
     </g>
    </g>
    <g id="ytick_14">
     <g id="line2d_97">
      <path d="M 81 251.58 
L 583.2 251.58 
" clip-path="url(#p22f1695f01)" style="fill: none; stroke: #b0b0b0; stroke-opacity: 0.3; stroke-width: 0.8; stroke-linecap: square"/>
     </g>
     <g id="line2d_98">
      <g>
       <use xlink:href="#m82e3c95e25" x="81" y="251.58" style="stroke: #000000; stroke-width: 0.6"/>
      </g>
     </g>
    </g>
    <g id="ytick_15">
     <g id="line2d_99">
      <path d="M 81 233.46 
L 583.2 233.46 
" clip-path="url(#p22f1695f01)" style="fill: none; stroke: #b0b0b0; stroke-opacity: 0.3; stroke-width: 0.8; stroke-linecap: square"/>
     </g>
     <g id="line2d_100">
      <g>
       <use xlink:href="#m82e3c95e25" x="81" y="233.46" style="stroke: #000000; stroke-width: 0.6"/>
      </g>
     </g>
    </g>
    <g id="ytick_16">
     <g id="line2d_101">
      <path d="M 81 224.4 
L 583.2 224.4 
" clip-path="url(#p22f1695f01)" style="fill: none; stroke: #b0b0b0; stroke-opacity: 0.3; stroke-width: 0.8; stroke-linecap: square"/>
     </g>
     <g id="line2d_102">
      <g>
       <use xlink:href="#m82e3c95e25" x="81" y="224.4" style="stroke: #000000; stroke-width: 0.6"/>
      </g>
     </g>
    </g>
    <g id="ytick_17">
     <g id="line2d_103">
      <path d="M 81 215.34 
L 583.2 215.34 
" clip-path="url(#p22f1695f01)" style="fill: none; stroke: #b0b0b0; stroke-opacity: 0.3; stroke-width: 0.8; stroke-linecap: square"/>
     </g>
     <g id="line2d_104">
      <g>
       <use xlink:href="#m82e3c95e25" x="81" y="215.34" style="stroke: #000000; stroke-width: 0.6"/>
      </g>
     </g>
    </g>
    <g id="ytick_18">
     <g id="line2d_105">
      <path d="M 81 197.22 
L 583.2 197.22 
" clip-path="url(#p22f1695f01)" style="fill: none; stroke: #b0b0b0; stroke-opacity: 0.3; stroke-width: 0.8; stroke-linecap: square"/>
     </g>
     <g id="line2d_106">
      <g>
       <use xlink:href="#m82e3c95e25" x="81" y="197.22" style="stroke: #000000; stroke-width: 0.6"/>
      </g>
     </g>
    </g>
    <g id="ytick_19">
     <g id="line2d_107">
      <path d="M 81 188.16 
L 583.2 188.16 
" clip-path="url(#p22f1695f01)" style="fill: none; stroke: #b0b0b0; stroke-opacity: 0.3; stroke-width: 0.8; stroke-linecap: square"/>
     </g>
     <g id="line2d_108">
      <g>
       <use xlink:href="#m82e3c95e25" x="81" y="188.16" style="stroke: #000000; stroke-width: 0.6"/>
      </g>
     </g>
    </g>
    <g id="ytick_20">
     <g id="line2d_109">
      <path d="M 81 179.1 
L 583.2 179.1 
" clip-path="url(#p22f1695f01)" style="fill: none; stroke: #b0b0b0; stroke-opacity: 0.3; stroke-width: 0.8; stroke-linecap: square"/>
     </g>
     <g id="line2d_110">
      <g>
       <use xlink:href="#m82e3c95e25" x="81" y="179.1" style="stroke: #000000; stroke-width: 0.6"/>
      </g>
     </g>
    </g>
    <g id="ytick_21">
     <g id="line2d_111">
      <path d="M 81 160.98 
L 583.2 160.98 
" clip-path="url(#p22f1695f01)" style="fill: none; stroke: #b0b0b0; stroke-opacity: 0.3; stroke-width: 0.8; stroke-linecap: square"/>
     </g>
     <g id="line2d_112">
      <g>
       <use xlink:href="#m82e3c95e25" x="81" y="160.98" style="stroke: #000000; stroke-width: 0.6"/>
      </g>
     </g>
    </g>
    <g id="ytick_22">
     <g id="line2d_113">
      <path d="M 81 151.92 
L 583.2 151.92 
" clip-path="url(#p22f1695f01)" style="fill: none; stroke: #b0b0b0; stroke-opacity: 0.3; stroke-width: 0.8; stroke-linecap: square"/>
     </g>
     <g id="line2d_114">
      <g>
       <use xlink:href="#m82e3c95e25" x="81" y="151.92" style="stroke: #000000; stroke-width: 0.6"/>
      </g>
     </g>
    </g>
    <g id="ytick_23">
     <g id="line2d_115">
      <path d="M 81 142.86 
L 583.2 142.86 
" clip-path="url(#p22f1695f01)" style="fill: none; stroke: #b0b0b0; stroke-opacity: 0.3; stroke-width: 0.8; stroke-linecap: square"/>
     </g>
     <g id="line2d_116">
      <g>
       <use xlink:href="#m82e3c95e25" x="81" y="142.86" style="stroke: #000000; stroke-width: 0.6"/>
      </g>
     </g>
    </g>
    <g id="ytick_24">
     <g id="line2d_117">
      <path d="M 81 124.74 
L 583.2 124.74 
" clip-path="url(#p22f1695f01)" style="fill: none; stroke: #b0b0b0; stroke-opacity: 0.3; stroke-width: 0.8; stroke-linecap: square"/>
     </g>
     <g id="line2d_118">
      <g>
       <use xlink:href="#m82e3c95e25" x="81" y="124.74" style="stroke: #000000; stroke-width: 0.6"/>
      </g>
     </g>
    </g>
    <g id="ytick_25">
     <g id="line2d_119">
      <path d="M 81 115.68 
L 583.2 115.68 
" clip-path="url(#p22f1695f01)" style="fill: none; stroke: #b0b0b0; stroke-opacity: 0.3; stroke-width: 0.8; stroke-linecap: square"/>
     </g>
     <g id="line2d_120">
      <g>
       <use xlink:href="#m82e3c95e25" x="81" y="115.68" style="stroke: #000000; stroke-width: 0.6"/>
      </g>
     </g>
    </g>
    <g id="ytick_26">
     <g id="line2d_121">
      <path d="M 81 106.62 
L 583.2 106.62 
" clip-path="url(#p22f1695f01)" style="fill: none; stroke: #b0b0b0; stroke-opacity: 0.3; stroke-width: 0.8; stroke-linecap: square"/>
     </g>
     <g id="line2d_122">
      <g>
       <use xlink:href="#m82e3c95e25" x="81" y="106.62" style="stroke: #000000; stroke-width: 0.6"/>
      </g>
     </g>
    </g>
    <g id="ytick_27">
     <g id="line2d_123">
      <path d="M 81 88.5 
L 583.2 88.5 
" clip-path="url(#p22f1695f01)" style="fill: none; stroke: #b0b0b0; stroke-opacity: 0.3; stroke-width: 0.8; stroke-linecap: square"/>
     </g>
     <g id="line2d_124">
      <g>
       <use xlink:href="#m82e3c95e25" x="81" y="88.5" style="stroke: #000000; stroke-width: 0.6"/>
      </g>
     </g>
    </g>
    <g id="ytick_28">
     <g id="line2d_125">
      <path d="M 81 79.44 
L 583.2 79.44 
" clip-path="url(#p22f1695f01)" style="fill: none; stroke: #b0b0b0; stroke-opacity: 0.3; stroke-width: 0.8; stroke-linecap: square"/>
     </g>
     <g id="line2d_126">
      <g>
       <use xlink:href="#m82e3c95e25" x="81" y="79.44" style="stroke: #000000; stroke-width: 0.6"/>
      </g>
     </g>
    </g>
    <g id="ytick_29">
     <g id="line2d_127">
      <path d="M 81 70.38 
L 583.2 70.38 
" clip-path="url(#p22f1695f01)" style="fill: none; stroke: #b0b0b0; stroke-opacity: 0.3; stroke-width: 0.8; stroke-linecap: square"/>
     </g>
     <g id="line2d_128">
      <g>
       <use xlink:href="#m82e3c95e25" x="81" y="70.38" style="stroke: #000000; stroke-width: 0.6"/>
      </g>
     </g>
    </g>
    <g id="ytick_30">
     <g id="line2d_129">
      <path d="M 81 52.26 
L 583.2 52.26 
" clip-path="url(#p22f1695f01)" style="fill: none; stroke: #b0b0b0; stroke-opacity: 0.3; stroke-width: 0.8; stroke-linecap: square"/>
     </g>
     <g id="line2d_130">
      <g>
       <use xlink:href="#m82e3c95e25" x="81" y="52.26" style="stroke: #000000; stroke-width: 0.6"/>
      </g>
     </g>
    </g>
    <g id="text_17">
     <!-- $U_B$ [\%] -->
     <g transform="translate(46.490261 196.709372)rotate(-90)scale(0.12 -0.12)">
      <defs>
       <path id="NimbusRomNo9L-ReguItal-55" d="M 4896 4160 
L 3622 4160 
L 3622 4057 
C 3827 4038 3891 4025 3968 3974 
C 4032 3936 4077 3846 4077 3763 
C 4077 3661 3910 3009 3603 1929 
C 3578 1846 3552 1738 3520 1616 
C 3405 1201 3309 945 3168 728 
C 2918 332 2573 134 2125 134 
C 1594 134 1229 441 1229 888 
C 1229 1105 1427 1878 1856 3354 
C 1869 3399 1882 3444 1888 3476 
C 2022 3923 2125 4012 2560 4057 
L 2560 4160 
L 813 4160 
L 813 4057 
C 1242 4019 1312 3980 1312 3795 
C 1312 3719 1293 3616 1267 3508 
L 928 2281 
C 736 1591 653 1182 653 926 
C 653 313 1242 -128 2048 -128 
C 2886 -128 3418 326 3699 1284 
L 4230 3105 
C 4474 3936 4499 3968 4896 4057 
L 4896 4160 
z
" transform="scale(0.015625)"/>
       <path id="NimbusRomNo9L-ReguItal-42" d="M -51 0 
L 1754 0 
C 2758 0 3450 523 3450 1274 
C 3450 1510 3373 1732 3232 1872 
C 3104 2019 2976 2095 2643 2235 
C 3098 2344 3283 2420 3488 2598 
C 3667 2751 3763 2968 3763 3222 
C 3763 3827 3309 4160 2483 4160 
L 832 4160 
L 832 4057 
C 1229 4025 1325 3974 1325 3795 
C 1325 3700 1299 3541 1254 3388 
L 467 574 
C 352 204 307 166 -51 102 
L -51 0 
z
M 1523 2108 
C 1939 2108 2208 2083 2336 2032 
C 2598 1923 2758 1643 2758 1299 
C 2758 612 2285 192 1504 192 
C 1235 192 1094 287 1094 459 
C 1094 535 1171 841 1318 1350 
C 1402 1637 1440 1783 1523 2108 
z
M 2003 3789 
C 2042 3929 2118 3967 2368 3967 
C 2880 3967 3117 3751 3117 3280 
C 3117 2917 2963 2637 2688 2484 
C 2470 2356 2163 2312 1587 2312 
L 2003 3789 
z
" transform="scale(0.015625)"/>
       <path id="NimbusRomNo9L-Regu-5b" d="M 1914 -832 
L 1363 -832 
C 1152 -832 1050 -724 1050 -501 
L 1050 3783 
C 1050 3981 1133 4063 1338 4063 
L 1914 4063 
L 1914 4224 
L 563 4224 
L 563 -993 
L 1914 -993 
L 1914 -832 
z
" transform="scale(0.015625)"/>
       <path id="NimbusRomNo9L-Regu-25" d="M 4282 2380 
C 3558 2380 2874 1630 2874 827 
C 2874 326 3181 0 3642 0 
C 3930 0 4166 102 4390 326 
C 4730 673 4941 1193 4941 1694 
C 4941 2131 4698 2380 4282 2380 
z
M 4326 2176 
C 4570 2176 4774 1944 4774 1662 
C 4774 1296 4614 859 4371 558 
C 4166 301 3981 192 3750 192 
C 3520 192 3360 358 3360 602 
C 3360 943 3539 1469 3776 1803 
C 3949 2060 4128 2176 4326 2176 
z
M 4058 4352 
L 3808 4352 
C 3462 4017 3206 3904 2810 3904 
C 2554 3904 2406 3950 2253 4084 
C 2086 4191 2003 4224 1805 4224 
C 1075 4224 390 3487 390 2671 
C 390 2221 730 1856 1146 1856 
C 1421 1856 1709 1984 1920 2208 
C 2253 2549 2458 3056 2458 3525 
C 2458 3615 2445 3692 2413 3807 
C 2528 3763 2643 3743 2829 3743 
C 3110 3743 3277 3788 3533 3930 
L 1286 -64 
L 1594 -64 
L 4058 4352 
z
M 2240 3862 
C 2278 3733 2298 3636 2298 3546 
C 2298 2816 1773 2073 1254 2073 
C 1030 2073 877 2235 877 2467 
C 877 2738 1005 3177 1178 3500 
C 1363 3814 1606 4031 1805 4031 
C 1837 4031 1850 4025 1888 3993 
C 1978 3910 2054 3878 2240 3827 
L 2240 3862 
z
" transform="scale(0.015625)"/>
       <path id="NimbusRomNo9L-Regu-5d" d="M 218 -832 
L 218 -993 
L 1568 -993 
L 1568 4224 
L 218 4224 
L 218 4063 
L 768 4063 
C 979 4063 1082 3955 1082 3732 
L 1082 -552 
C 1082 -750 992 -832 794 -832 
L 218 -832 
z
" transform="scale(0.015625)"/>
      </defs>
      <use xlink:href="#NimbusRomNo9L-ReguItal-55" transform="scale(0.996264)"/>
      <use xlink:href="#NimbusRomNo9L-ReguItal-42" transform="translate(69.43937 -14.943915)scale(0.737241)"/>
      <use xlink:href="#NimbusRomNo9L-Regu-5b" transform="translate(139.889447 0)scale(0.996264)"/>
      <use xlink:href="#NimbusRomNo9L-Regu-25" transform="translate(173.064676 0)scale(0.996264)"/>
      <use xlink:href="#NimbusRomNo9L-Regu-5d" transform="translate(256.053107 0)scale(0.996264)"/>
     </g>
    </g>
   </g>
   <g id="line2d_131">
    <path d="M 487.542857 315 
L 487.542857 43.2 
" clip-path="url(#p22f1695f01)" style="fill: none; stroke-dasharray: 2,3.3; stroke-dashoffset: 0; stroke: #000000; stroke-width: 2"/>
   </g>
   <g id="line2d_132">
    <path d="M 487.542857 315 
L 487.542857 43.2 
" clip-path="url(#p22f1695f01)" style="fill: none; stroke-dasharray: 2,3.3; stroke-dashoffset: 0; stroke: #000000; stroke-width: 2"/>
   </g>
   <g id="line2d_133">
    <path d="M 487.542857 315 
L 487.542857 43.2 
" clip-path="url(#p22f1695f01)" style="fill: none; stroke-dasharray: 2,3.3; stroke-dashoffset: 0; stroke: #000000; stroke-width: 2"/>
   </g>
   <g id="line2d_134">
    <path d="M 487.542857 315 
L 487.542857 43.2 
" clip-path="url(#p22f1695f01)" style="fill: none; stroke-dasharray: 2,3.3; stroke-dashoffset: 0; stroke: #000000; stroke-width: 2"/>
   </g>
   <g id="line2d_135">
    <path d="M 487.542857 315 
L 487.542857 43.2 
" clip-path="url(#p22f1695f01)" style="fill: none; stroke-dasharray: 2,3.3; stroke-dashoffset: 0; stroke: #000000; stroke-width: 2"/>
   </g>
   <g id="line2d_136">
    <path d="M 487.542857 315 
L 487.542857 43.2 
" clip-path="url(#p22f1695f01)" style="fill: none; stroke-dasharray: 2,3.3; stroke-dashoffset: 0; stroke: #000000; stroke-width: 2"/>
   </g>
   <g id="line2d_137">
    <path d="M 487.542857 315 
L 487.542857 43.2 
" clip-path="url(#p22f1695f01)" style="fill: none; stroke-dasharray: 2,3.3; stroke-dashoffset: 0; stroke: #000000; stroke-width: 2"/>
   </g>
   <g id="line2d_138">
    <path d="M 487.542857 315 
L 487.542857 43.2 
" clip-path="url(#p22f1695f01)" style="fill: none; stroke-dasharray: 2,3.3; stroke-dashoffset: 0; stroke: #000000; stroke-width: 2"/>
   </g>
   <g id="patch_3">
    <path d="M 81 315 
L 81 43.2 
" style="fill: none; stroke: #000000; stroke-width: 0.75; stroke-linejoin: miter; stroke-linecap: square"/>
   </g>
   <g id="patch_4">
    <path d="M 583.2 315 
L 583.2 43.2 
" style="fill: none; stroke: #000000; stroke-width: 0.75; stroke-linejoin: miter; stroke-linecap: square"/>
   </g>
   <g id="patch_5">
    <path d="M 81 315 
L 583.2 315 
" style="fill: none; stroke: #000000; stroke-width: 0.75; stroke-linejoin: miter; stroke-linecap: square"/>
   </g>
   <g id="patch_6">
    <path d="M 81 43.2 
L 583.2 43.2 
" style="fill: none; stroke: #000000; stroke-width: 0.75; stroke-linejoin: miter; stroke-linecap: square"/>
   </g>
   <g id="line2d_139">
    <path d="M 612.011931 314.71316 
L 595.109314 314.509129 
L 580.043314 314.49119 
L 566.613051 314.183513 
L 554.646343 314.039821 
L 534.457903 313.081092 
L 525.977897 312.021072 
L 518.4162 310.874076 
L 511.672371 308.516664 
L 505.674669 305.682696 
L 500.308303 300.596412 
L 495.544577 294.95928 
L 491.283051 285.8268 
L 487.495029 276.74868 
L 482.76 253.46448 
L 477.881486 199.70244 
L 473.146457 194.93688 
L 468.411429 188.21436 
L 463.532914 185.3514 
L 458.797886 184.22796 
L 449.184343 183.12264 
L 439.714286 182.41596 
L 425.365714 181.78176 
L 411.017143 181.365 
L 382.32 180.80328 
L 344.009314 180.132179 
L 315.312171 179.238727 
L 310.577143 179.1238 
L 305.698629 178.89084 
L 300.9636 178.474313 
L 296.228571 177.839645 
L 291.350057 176.47824 
L 281.88 174.352509 
L 277.001486 173.361851 
L 273.8448 171.736808 
L 269.109771 169.57388 
L 262.652914 166.225022 
L 257.917886 163.621834 
L 256.339543 162.841968 
L 254.7612 162.204303 
L 253.182857 161.710729 
L 251.604514 161.38501 
L 249.882686 161.267915 
L 248.304343 161.378246 
L 246.726 161.724548 
L 245.147657 162.278898 
L 241.990971 163.773216 
L 237.255943 166.192581 
L 235.534114 166.957794 
L 233.955771 167.340629 
L 229.220743 169.504454 
L 221.185543 173.068626 
L 219.6072 173.973935 
L 205.258629 177.072241 
L 200.5236 177.879247 
L 186.175029 178.90068 
L 171.826457 179.40804 
L 152.742857 179.77044 
L 104.818629 180.20532 
L 76.121486 180.53148 
L 61.772914 180.8214 
L 47.424343 181.34688 
L 37.954286 181.96296 
L 28.340743 183.01392 
L 23.605714 184.30044 
L 18.7272 184.93464 
L 13.992171 189.02976 
L 9.257143 184.39104 
L 9.257143 184.39104 
" clip-path="url(#p22f1695f01)" style="fill: none; stroke: #ff00ff; stroke-width: 2; stroke-linecap: square"/>
   </g>
   <g id="line2d_140">
    <path d="M 612.011931 314.58179 
L 566.613051 314.005212 
L 554.646343 313.758055 
L 534.457903 312.57192 
L 525.977897 311.377812 
L 518.4162 309.875664 
L 511.672371 307.115988 
L 505.674669 303.383268 
L 500.308303 296.992344 
L 495.544577 289.07028 
L 491.283051 283.0182 
L 487.495029 278.25264 
L 482.76 250.71024 
L 477.881486 186.4386 
L 473.146457 180.29592 
L 468.411429 176.23704 
L 463.532914 175.05924 
L 444.449314 173.04792 
L 439.714286 172.63116 
L 425.365714 171.92448 
L 411.017143 171.50772 
L 377.441486 170.96412 
L 339.274286 170.456213 
L 324.925714 170.062457 
L 315.312171 170.095749 
L 305.698629 170.112936 
L 300.9636 169.892825 
L 296.228571 169.417219 
L 277.001486 164.50373 
L 273.8448 162.1136 
L 269.109771 158.597406 
L 262.652914 153.233879 
L 257.917886 149.094284 
L 256.339543 147.844095 
L 254.7612 146.813887 
L 253.182857 146.013301 
L 251.604514 145.480869 
L 249.882686 145.28173 
L 248.304343 145.454857 
L 246.726 146.013183 
L 245.147657 146.911425 
L 243.569314 148.05387 
L 235.534114 154.568704 
L 233.955771 155.205347 
L 229.220743 158.860365 
L 224.485714 162.155104 
L 219.6072 165.441796 
L 210.137143 167.876783 
L 205.258629 168.985292 
L 200.5236 169.74261 
L 195.788571 169.825934 
L 190.910057 170.05812 
L 171.826457 170.34804 
L 128.780743 170.74668 
L 85.735029 171.18156 
L 66.651429 171.52584 
L 52.302857 172.01508 
L 42.689314 172.54056 
L 37.954286 172.8486 
L 28.340743 173.9358 
L 23.605714 175.3854 
L 18.7272 176.34576 
L 13.992171 180.78516 
L 9.257143 175.82028 
L 9.257143 175.82028 
" clip-path="url(#p22f1695f01)" style="fill: none; stroke-dasharray: 7.4,3.2; stroke-dashoffset: 0; stroke: #ff00ff; stroke-width: 2"/>
   </g>
   <g id="line2d_141">
    <path d="M 612.011931 314.46691 
L 580.043314 314.171735 
L 554.646343 313.521227 
L 543.971006 312.923448 
L 534.457903 312.151536 
L 525.977897 310.86864 
L 518.4162 309.071136 
L 511.672371 306.153816 
L 505.674669 302.084064 
L 500.308303 296.02836 
L 495.544577 288.68976 
L 491.283051 278.65128 
L 487.495029 264.84384 
L 482.76 229.2924 
L 477.881486 170.98224 
L 473.146457 160.85316 
L 468.411429 154.02192 
L 463.532914 150.94152 
L 458.797886 149.58252 
L 454.062857 148.82148 
L 449.184343 148.18728 
L 439.714286 147.31752 
L 425.365714 146.52024 
L 411.017143 145.97664 
L 387.055029 145.36056 
L 363.092914 144.899529 
L 358.357886 144.694791 
L 344.009314 144.512445 
L 315.312171 143.617855 
L 305.698629 143.442732 
L 300.9636 143.23372 
L 296.228571 142.868634 
L 286.615029 141.241002 
L 281.88 140.266211 
L 277.001486 138.91445 
L 275.423143 137.793325 
L 273.8448 137.023225 
L 272.266457 136.47767 
L 267.531429 135.865162 
L 265.953086 135.37251 
L 264.231257 134.644241 
L 261.074571 132.775341 
L 257.917886 131.333604 
L 253.182857 129.792566 
L 249.882686 128.601669 
L 248.304343 128.151122 
L 246.726 128.231619 
L 245.147657 128.808753 
L 243.569314 129.699037 
L 240.412629 131.768223 
L 237.255943 133.145866 
L 235.534114 133.739834 
L 233.955771 134.116126 
L 230.799086 135.587257 
L 227.6424 136.745068 
L 222.907371 138.020273 
L 221.185543 138.686025 
L 219.6072 139.597137 
L 210.137143 141.621817 
L 205.258629 142.157133 
L 200.5236 142.246089 
L 195.788571 142.968203 
L 186.175029 143.56668 
L 171.826457 144.1284 
L 147.864343 144.672 
L 85.735029 145.92228 
L 66.651429 146.7558 
L 57.037886 147.37188 
L 52.302857 147.91548 
L 47.424343 148.16916 
L 42.689314 149.202 
L 37.954286 149.05704 
L 33.075771 151.5576 
L 28.340743 149.03892 
L 23.605714 157.60968 
L 18.7272 140.54064 
L 13.992171 168.62664 
L 9.257143 154.92792 
L 9.257143 154.92792 
" clip-path="url(#p22f1695f01)" style="fill: none; stroke: #008000; stroke-width: 2; stroke-linecap: square"/>
   </g>
   <g id="line2d_142">
    <path d="M 612.011931 314.401496 
L 580.043314 314.073524 
L 566.613051 313.759142 
L 554.646343 313.361952 
L 543.971006 312.731376 
L 534.457903 311.867052 
L 525.977897 310.477248 
L 518.4162 308.406132 
L 511.672371 304.894476 
L 505.674669 299.4168 
L 500.308303 291.29904 
L 495.544577 280.35456 
L 491.283051 275.24472 
L 487.495029 266.69208 
L 482.76 226.06704 
L 477.881486 160.12836 
L 473.146457 149.23824 
L 468.411429 144.70824 
L 463.532914 143.43984 
L 434.835771 141.048 
L 425.365714 140.55876 
L 411.017143 140.08764 
L 391.790057 139.689 
L 348.744343 139.117309 
L 339.274286 139.037525 
L 324.925714 138.758783 
L 315.312171 138.89383 
L 305.698629 139.211328 
L 300.9636 139.260024 
L 296.228571 139.114041 
L 291.350057 138.469568 
L 286.615029 137.658383 
L 281.88 136.553095 
L 277.001486 134.960107 
L 275.423143 133.508829 
L 273.8448 132.346786 
L 272.266457 131.37232 
L 267.531429 129.417446 
L 265.953086 128.479449 
L 264.231257 127.305701 
L 261.074571 124.544652 
L 257.917886 122.207983 
L 253.182857 119.576849 
L 251.604514 118.762232 
L 249.882686 118.098967 
L 248.304343 117.695473 
L 246.726 117.956858 
L 245.147657 118.829223 
L 243.569314 120.094746 
L 240.412629 123.019424 
L 237.255943 125.261323 
L 235.534114 126.285853 
L 233.955771 126.885826 
L 230.799086 129.24855 
L 229.220743 130.309412 
L 227.6424 131.227366 
L 221.185543 134.483946 
L 219.6072 135.699454 
L 214.872171 137.045564 
L 210.137143 138.211881 
L 205.258629 138.799229 
L 200.5236 138.720924 
L 195.788571 139.105674 
L 186.175029 139.25412 
L 143.129314 139.52592 
L 104.818629 140.0514 
L 85.735029 140.52252 
L 71.386457 141.10236 
L 61.772914 141.64596 
L 57.037886 141.93588 
L 52.302857 142.46136 
L 47.424343 142.69692 
L 42.689314 143.71164 
L 37.954286 143.54856 
L 33.075771 146.01288 
L 28.340743 143.47608 
L 23.605714 152.13744 
L 18.7272 135.32208 
L 13.992171 163.67988 
L 9.257143 149.81808 
L 9.257143 149.81808 
" clip-path="url(#p22f1695f01)" style="fill: none; stroke-dasharray: 7.4,3.2; stroke-dashoffset: 0; stroke: #008000; stroke-width: 2"/>
   </g>
   <g id="line2d_143">
    <path d="M 612.011931 314.493546 
L 580.043314 314.188949 
L 554.646343 313.540978 
L 543.971006 312.941568 
L 534.457903 312.175092 
L 525.977897 310.881324 
L 518.4162 309.07476 
L 511.672371 306.095832 
L 505.674669 301.93548 
L 500.308303 295.64784 
L 495.544577 287.87436 
L 491.283051 276.96612 
L 487.495029 261.96276 
L 482.76 224.72616 
L 477.881486 167.9562 
L 473.146457 158.37072 
L 468.411429 150.34356 
L 463.532914 146.62896 
L 458.797886 144.83508 
L 454.062857 143.72976 
L 449.184343 142.89624 
L 439.714286 141.7728 
L 430.100743 141.048 
L 415.752171 140.3232 
L 401.4036 139.79772 
L 363.092914 138.683019 
L 358.357886 138.603215 
L 353.622857 138.331878 
L 334.395771 137.648927 
L 329.660743 137.192625 
L 320.0472 135.952491 
L 310.577143 134.674526 
L 296.228571 132.869847 
L 291.350057 131.800943 
L 286.615029 130.920938 
L 281.88 129.90026 
L 277.001486 128.512708 
L 275.423143 127.34833 
L 273.8448 126.507189 
L 272.266457 125.871926 
L 267.531429 124.982675 
L 265.953086 124.461118 
L 264.231257 123.747218 
L 262.652914 122.83563 
L 259.496229 121.390718 
L 257.917886 120.734494 
L 254.7612 119.696553 
L 251.604514 118.359203 
L 249.882686 117.789989 
L 248.304343 117.386237 
L 246.726 117.531057 
L 245.147657 118.153487 
L 243.569314 119.05636 
L 240.412629 121.027902 
L 237.255943 122.294106 
L 235.534114 122.886734 
L 233.955771 123.272076 
L 230.799086 124.835109 
L 229.220743 125.518529 
L 227.6424 126.06851 
L 222.907371 127.369936 
L 221.185543 128.093385 
L 219.6072 129.105813 
L 214.872171 130.284597 
L 210.137143 131.305613 
L 205.258629 131.781913 
L 200.5236 131.727739 
L 195.788571 132.575796 
L 181.44 133.4376 
L 162.212914 134.08992 
L 133.515771 134.65164 
L 104.818629 135.19524 
L 85.735029 135.72072 
L 71.386457 136.35492 
L 61.772914 136.93476 
L 57.037886 137.22468 
L 52.302857 137.76828 
L 47.424343 138.0582 
L 42.689314 139.03668 
L 37.954286 139.00044 
L 33.075771 141.33792 
L 28.340743 139.09104 
L 23.605714 147.19068 
L 18.7272 130.9008 
L 13.992171 157.68216 
L 9.257143 145.43304 
L 9.257143 145.43304 
" clip-path="url(#p22f1695f01)" style="fill: none; stroke: #ff0000; stroke-width: 2; stroke-linecap: square"/>
   </g>
   <g id="line2d_144">
    <path d="M 612.011931 314.275562 
L 580.043314 313.870762 
L 554.646343 312.999552 
L 543.971006 312.204084 
L 534.457903 311.1495 
L 525.977897 309.390048 
L 518.4162 306.711912 
L 511.672371 302.254392 
L 505.674669 294.57876 
L 500.308303 283.43496 
L 495.544577 269.31948 
L 491.283051 261.21984 
L 487.495029 254.53356 
L 482.76 202.4748 
L 477.881486 127.0956 
L 473.146457 116.586 
L 468.411429 113.1432 
L 463.532914 112.4184 
L 458.797886 112.4184 
L 454.062857 112.2372 
L 449.184343 111.8748 
L 434.835771 110.244 
L 425.365714 109.5192 
L 401.4036 108.6132 
L 396.668571 108.6132 
L 391.790057 108.432 
L 387.055029 108.432 
L 382.32 108.2508 
L 377.441486 108.2508 
L 372.706457 108.0696 
L 367.971429 108.0696 
L 363.092914 107.852256 
L 358.357886 108.037064 
L 353.622857 107.748692 
L 348.744343 107.633343 
L 339.274286 107.732514 
L 334.395771 107.611242 
L 329.660743 107.281913 
L 305.698629 104.902534 
L 296.228571 104.060766 
L 286.615029 102.024853 
L 281.88 100.690181 
L 277.001486 98.832539 
L 275.423143 97.073526 
L 272.266457 94.188634 
L 267.531429 90.920494 
L 264.231257 87.894453 
L 261.074571 84.244481 
L 257.917886 80.951587 
L 256.339543 79.518727 
L 253.182857 76.972367 
L 251.604514 75.937189 
L 249.882686 75.212105 
L 248.304343 74.909817 
L 246.726 75.420005 
L 245.147657 76.64766 
L 243.569314 78.343258 
L 240.412629 82.198827 
L 237.255943 85.372319 
L 235.534114 86.850481 
L 233.955771 87.664556 
L 230.799086 90.827061 
L 229.220743 92.258614 
L 227.6424 93.534219 
L 221.185543 98.159367 
L 219.6072 99.67135 
L 214.872171 101.252304 
L 210.137143 102.560813 
L 205.258629 103.184269 
L 200.5236 103.079209 
L 195.788571 103.54258 
L 190.910057 103.7208 
L 128.780743 103.7208 
L 124.045714 103.902 
L 114.432171 103.902 
L 109.697143 104.0832 
L 104.818629 104.0832 
L 100.0836 104.2644 
L 95.348571 104.2644 
L 71.386457 105.1704 
L 61.772914 105.8952 
L 57.037886 106.0764 
L 52.302857 106.62 
L 47.424343 106.8012 
L 42.689314 107.8884 
L 37.954286 107.7072 
L 33.075771 110.0628 
L 28.340743 107.8884 
L 23.605714 116.2236 
L 18.7272 100.6404 
L 13.992171 128.364 
L 9.257143 115.8612 
L 9.257143 115.8612 
" clip-path="url(#p22f1695f01)" style="fill: none; stroke-dasharray: 7.4,3.2; stroke-dashoffset: 0; stroke: #ff0000; stroke-width: 2"/>
   </g>
   <g id="line2d_145">
    <path d="M 612.011931 314.467272 
L 580.043314 314.17246 
L 554.646343 313.522133 
L 543.971006 312.923448 
L 534.457903 312.151536 
L 525.977897 310.86864 
L 518.4162 309.071136 
L 511.672371 306.155628 
L 505.674669 302.084064 
L 500.308303 296.04648 
L 495.544577 288.68976 
L 491.283051 278.6694 
L 487.495029 264.82572 
L 482.76 229.27428 
L 477.881486 171.00036 
L 473.146457 160.87128 
L 468.411429 154.05816 
L 463.532914 150.97776 
L 458.797886 149.63688 
L 454.062857 148.87584 
L 449.184343 148.25976 
L 439.714286 147.40812 
L 425.365714 146.61084 
L 411.017143 146.10348 
L 382.32 145.43304 
L 339.274286 144.573197 
L 324.925714 144.155824 
L 305.698629 143.830653 
L 300.9636 143.601084 
L 296.228571 143.21927 
L 286.615029 141.604094 
L 281.88 140.651735 
L 277.001486 139.322801 
L 275.423143 138.220689 
L 273.8448 137.46091 
L 272.266457 136.917353 
L 267.531429 136.308021 
L 265.953086 135.830838 
L 264.231257 135.122507 
L 261.074571 133.294031 
L 257.917886 131.883085 
L 253.182857 130.341954 
L 249.882686 129.148709 
L 248.304343 128.701883 
L 246.726 128.788056 
L 245.147657 129.369374 
L 243.569314 130.259208 
L 240.412629 132.310681 
L 237.255943 133.659514 
L 235.534114 134.241495 
L 233.955771 134.614823 
L 230.799086 136.083737 
L 227.6424 137.238105 
L 222.907371 138.489095 
L 221.185543 139.153985 
L 219.6072 140.073639 
L 210.137143 142.12696 
L 205.258629 142.660799 
L 200.5236 142.731416 
L 195.788571 143.457024 
L 186.175029 144.07404 
L 176.561486 144.50892 
L 157.477886 145.07064 
L 90.470057 146.44776 
L 71.386457 147.2088 
L 61.772914 147.78864 
L 57.037886 148.07856 
L 52.302857 148.62216 
L 47.424343 148.89396 
L 42.689314 149.9268 
L 37.954286 149.79996 
L 33.075771 152.30052 
L 28.340743 149.78184 
L 23.605714 158.3526 
L 18.7272 141.26544 
L 13.992171 169.3152 
L 9.257143 155.6346 
L 9.257143 155.6346 
" clip-path="url(#p22f1695f01)" style="fill: none; stroke-dasharray: 7.4,3.2; stroke-dashoffset: 0; stroke: #ffa500; stroke-width: 2"/>
   </g>
   <g id="line2d_146">
    <path d="M 612.011931 314.714972 
L 595.109314 314.510941 
L 580.043314 314.493546 
L 566.613051 314.18605 
L 554.646343 314.043083 
L 534.457903 313.084716 
L 525.977897 312.026508 
L 518.4162 310.881324 
L 511.672371 308.525724 
L 505.674669 305.693568 
L 500.308303 300.610908 
L 495.544577 294.9774 
L 491.283051 285.84492 
L 487.495029 276.78492 
L 482.76 253.51884 
L 477.881486 199.77492 
L 473.146457 195.02748 
L 468.411429 188.32308 
L 463.532914 185.47824 
L 458.797886 184.3548 
L 449.184343 183.2676 
L 439.714286 182.59716 
L 425.365714 181.9992 
L 411.017143 181.60056 
L 367.971429 180.89388 
L 344.009314 180.506512 
L 305.698629 179.473758 
L 300.9636 179.038408 
L 296.228571 178.393412 
L 291.350057 177.042434 
L 281.88 174.955411 
L 277.001486 173.982142 
L 273.8448 172.378154 
L 267.531429 169.457273 
L 256.339543 163.642478 
L 254.7612 163.02012 
L 253.182857 162.539217 
L 251.604514 162.224011 
L 249.882686 162.112784 
L 248.304343 162.224756 
L 246.726 162.568574 
L 245.147657 163.116504 
L 241.990971 164.590979 
L 237.255943 166.976671 
L 235.534114 167.731735 
L 233.955771 168.109942 
L 229.220743 170.252728 
L 222.907371 172.995803 
L 221.185543 173.796937 
L 219.6072 174.6993 
L 205.258629 177.800829 
L 200.5236 178.619126 
L 186.175029 179.66172 
L 176.561486 180.06036 
L 162.212914 180.44088 
L 138.394286 180.80328 
L 66.651429 181.70928 
L 52.302857 182.16228 
L 42.689314 182.66964 
L 37.954286 182.9958 
L 28.340743 184.06488 
L 23.605714 185.33328 
L 18.7272 185.96748 
L 13.992171 189.99012 
L 9.257143 185.40576 
L 9.257143 185.40576 
" clip-path="url(#p22f1695f01)" style="fill: none; stroke-dasharray: 7.4,3.2; stroke-dashoffset: 0; stroke: #0000ff; stroke-width: 2"/>
   </g>
   <g id="legend_1">
    <g id="patch_7">
     <path d="M 88 310 
L 370.78254 310 
Q 372.78254 310 372.78254 308 
L 372.78254 252.372684 
Q 372.78254 250.372684 370.78254 250.372684 
L 88 250.372684 
Q 86 250.372684 86 252.372684 
L 86 308 
Q 86 310 88 310 
z
" style="fill: #ffffff; opacity: 0.8; stroke: #cccccc; stroke-linejoin: miter"/>
    </g>
    <g id="line2d_147">
     <path d="M 90 257.872684 
L 100 257.872684 
L 110 257.872684 
" style="fill: none; stroke: #ff00ff; stroke-width: 2; stroke-linecap: square"/>
    </g>
    <g id="text_18">
     <!-- VP, EL, ST, $U_C=$ 0.74 -->
     <g transform="translate(118 261.372684)scale(0.1 -0.1)">
      <defs>
       <path id="NimbusRomNo9L-Regu-56" d="M 4461 4224 
L 3149 4224 
L 3149 4102 
C 3501 4083 3616 4013 3616 3835 
C 3616 3733 3571 3561 3494 3370 
L 2554 1032 
L 1587 3185 
C 1376 3650 1325 3796 1325 3892 
C 1325 4013 1414 4077 1619 4089 
C 1645 4089 1715 4095 1805 4102 
L 1805 4224 
L 102 4224 
L 102 4102 
C 416 4089 506 4000 781 3433 
L 2355 -64 
L 2451 -64 
L 3872 3510 
C 4083 4013 4154 4083 4461 4102 
L 4461 4224 
z
" transform="scale(0.015625)"/>
       <path id="NimbusRomNo9L-Regu-50" d="M 1293 1875 
C 1459 1862 1568 1855 1734 1855 
C 2234 1855 2579 1919 2854 2073 
C 3238 2276 3469 2661 3469 3077 
C 3469 3343 3379 3583 3206 3766 
C 2950 4044 2394 4224 1792 4224 
L 102 4224 
L 102 4102 
C 576 4051 640 3987 640 3528 
L 640 765 
C 640 230 589 166 102 121 
L 102 0 
L 1894 0 
L 1894 121 
C 1389 140 1293 230 1293 695 
L 1293 1875 
z
M 1293 3772 
C 1293 3942 1338 3987 1510 3987 
C 2374 3987 2771 3690 2771 3040 
C 2771 2427 2394 2112 1658 2112 
C 1530 2112 1440 2118 1293 2130 
L 1293 3772 
z
" transform="scale(0.015625)"/>
       <path id="NimbusRomNo9L-Regu-2c" d="M 531 -890 
C 960 -679 1248 -289 1248 96 
C 1248 416 1024 665 736 665 
C 512 665 358 518 358 300 
C 358 57 506 -64 736 -64 
C 774 -64 819 -58 858 -52 
C 902 0 902 0 909 0 
C 960 0 998 -39 998 -90 
C 998 -295 819 -532 474 -769 
L 531 -890 
z
" transform="scale(0.015625)"/>
       <path id="NimbusRomNo9L-Regu-45" d="M 3821 1087 
L 3642 1087 
C 3322 391 3046 236 2131 236 
L 1958 236 
C 1645 236 1376 269 1331 314 
C 1299 333 1286 404 1286 513 
L 1286 2105 
L 2272 2105 
C 2797 2105 2893 2021 2976 1487 
L 3123 1487 
L 3123 2966 
L 2976 2966 
C 2931 2708 2906 2613 2835 2525 
C 2752 2418 2573 2368 2272 2368 
L 1286 2368 
L 1286 3766 
C 1286 3942 1325 3980 1498 3980 
L 2362 3980 
C 3085 3980 3226 3886 3334 3319 
L 3494 3319 
L 3475 4224 
L 77 4224 
L 77 4102 
C 550 4064 634 3975 634 3528 
L 634 695 
C 634 249 544 153 77 121 
L 77 0 
L 3533 0 
L 3821 1087 
z
" transform="scale(0.015625)"/>
       <path id="NimbusRomNo9L-Regu-4c" d="M 3667 1110 
C 3558 868 3469 721 3373 613 
C 3149 364 2797 249 2266 249 
L 1837 249 
C 1370 249 1286 287 1286 511 
L 1286 3528 
C 1286 3981 1376 4070 1882 4102 
L 1882 4224 
L 77 4224 
L 77 4102 
C 550 4064 634 3974 634 3528 
L 634 696 
C 634 249 544 153 77 121 
L 77 0 
L 3520 0 
L 3827 1113 
L 3667 1110 
z
" transform="scale(0.015625)"/>
       <path id="NimbusRomNo9L-Regu-53" d="M 2861 4313 
L 2726 4313 
C 2701 4166 2630 4095 2522 4095 
C 2458 4095 2349 4121 2240 4172 
C 2003 4300 1766 4352 1562 4352 
C 1286 4352 1005 4243 794 4057 
C 570 3859 454 3590 454 3257 
C 454 2745 736 2387 1453 2009 
C 1914 1766 2246 1504 2406 1260 
C 2464 1177 2496 1043 2496 889 
C 2496 460 2176 166 1709 166 
C 1139 166 736 518 416 1299 
L 269 1299 
L 461 -58 
L 602 -58 
C 608 38 685 128 781 128 
C 851 128 960 102 1082 57 
C 1325 -13 1581 -64 1837 -64 
C 2573 -64 3142 441 3142 1100 
C 3142 1625 2790 2041 1946 2496 
C 1274 2867 1005 3148 1005 3494 
C 1005 3846 1274 4089 1670 4089 
C 1958 4089 2227 3968 2451 3737 
C 2650 3533 2739 3366 2842 2988 
L 3002 2988 
L 2861 4313 
z
" transform="scale(0.015625)"/>
       <path id="NimbusRomNo9L-Regu-54" d="M 1626 3955 
L 1626 765 
C 1626 223 1555 153 1024 121 
L 1024 0 
L 2893 0 
L 2893 121 
C 2368 147 2278 230 2278 695 
L 2278 3955 
L 2624 3955 
C 3354 3955 3494 3840 3642 3138 
L 3795 3138 
L 3757 4224 
L 147 4224 
L 109 3138 
L 262 3138 
C 416 3834 563 3955 1280 3955 
L 1626 3955 
z
" transform="scale(0.015625)"/>
       <path id="NimbusRomNo9L-ReguItal-43" d="M 4173 2991 
L 4410 4275 
L 4275 4275 
C 4224 4172 4160 4134 4032 4134 
C 3981 4134 3904 4147 3770 4179 
C 3482 4249 3226 4288 3021 4288 
C 1658 4288 422 2991 422 1556 
C 422 567 1114 -128 2093 -128 
C 2752 -128 3264 153 3840 832 
L 3731 922 
C 3155 353 2784 160 2259 160 
C 1549 160 1139 651 1139 1485 
C 1139 2254 1446 3036 1946 3560 
C 2253 3876 2656 4057 3078 4057 
C 3667 4057 3994 3708 4058 3010 
L 4173 2991 
z
" transform="scale(0.015625)"/>
       <path id="CMR10-3d" d="M 4397 2111 
C 4493 2111 4614 2111 4614 2239 
C 4614 2368 4493 2368 4403 2368 
L 570 2368 
C 480 2368 358 2368 358 2239 
C 358 2111 480 2111 576 2111 
L 4397 2111 
z
M 4403 832 
C 4493 832 4614 832 4614 960 
C 4614 1088 4493 1088 4397 1088 
L 576 1088 
C 480 1088 358 1088 358 960 
C 358 832 480 832 570 832 
L 4403 832 
z
" transform="scale(0.015625)"/>
       <path id="NimbusRomNo9L-Regu-37" d="M 2874 4224 
L 506 4224 
L 128 3283 
L 237 3232 
C 512 3667 627 3750 979 3750 
L 2368 3750 
L 1101 -64 
L 1517 -64 
L 2874 4121 
L 2874 4224 
z
" transform="scale(0.015625)"/>
      </defs>
      <use xlink:href="#NimbusRomNo9L-Regu-56" transform="scale(0.996264)"/>
      <use xlink:href="#NimbusRomNo9L-Regu-50" transform="translate(71.929985 0)scale(0.996264)"/>
      <use xlink:href="#NimbusRomNo9L-Regu-2c" transform="translate(116.263216 0)scale(0.996264)"/>
      <use xlink:href="#NimbusRomNo9L-Regu-45" transform="translate(166.076417 0)scale(0.996264)"/>
      <use xlink:href="#NimbusRomNo9L-Regu-4c" transform="translate(226.948048 0)scale(0.996264)"/>
      <use xlink:href="#NimbusRomNo9L-Regu-2c" transform="translate(287.819678 0)scale(0.996264)"/>
      <use xlink:href="#NimbusRomNo9L-Regu-53" transform="translate(337.632879 0)scale(0.996264)"/>
      <use xlink:href="#NimbusRomNo9L-Regu-54" transform="translate(393.024556 0)scale(0.996264)"/>
      <use xlink:href="#NimbusRomNo9L-Regu-2c" transform="translate(446.523884 0)scale(0.996264)"/>
      <use xlink:href="#NimbusRomNo9L-ReguItal-55" transform="translate(491.355734 0)scale(0.996264)"/>
      <use xlink:href="#NimbusRomNo9L-ReguItal-43" transform="translate(557.108886 -15.270966)scale(0.737241)"/>
      <use xlink:href="#CMR10-3d" transform="translate(630.541278 0)scale(0.996264)"/>
      <use xlink:href="#NimbusRomNo9L-Regu-30" transform="translate(732.856585 0)scale(0.996264)"/>
      <use xlink:href="#NimbusRomNo9L-Regu-2e" transform="translate(782.669786 0)scale(0.996264)"/>
      <use xlink:href="#NimbusRomNo9L-Regu-37" transform="translate(807.576386 0)scale(0.996264)"/>
      <use xlink:href="#NimbusRomNo9L-Regu-34" transform="translate(857.389586 0)scale(0.996264)"/>
     </g>
    </g>
    <g id="line2d_148">
     <path d="M 90 272.029513 
L 100 272.029513 
L 110 272.029513 
" style="fill: none; stroke-dasharray: 7.4,3.2; stroke-dashoffset: 0; stroke: #ff00ff; stroke-width: 2"/>
    </g>
    <g id="text_19">
     <!-- VP, EL, LT, $U_C=$ 0.80 -->
     <g transform="translate(118 275.529513)scale(0.1 -0.1)">
      <use xlink:href="#NimbusRomNo9L-Regu-56" transform="scale(0.996264)"/>
      <use xlink:href="#NimbusRomNo9L-Regu-50" transform="translate(71.929985 0)scale(0.996264)"/>
      <use xlink:href="#NimbusRomNo9L-Regu-2c" transform="translate(116.263216 0)scale(0.996264)"/>
      <use xlink:href="#NimbusRomNo9L-Regu-45" transform="translate(166.076417 0)scale(0.996264)"/>
      <use xlink:href="#NimbusRomNo9L-Regu-4c" transform="translate(226.948048 0)scale(0.996264)"/>
      <use xlink:href="#NimbusRomNo9L-Regu-2c" transform="translate(287.819678 0)scale(0.996264)"/>
      <use xlink:href="#NimbusRomNo9L-Regu-4c" transform="translate(337.632879 0)scale(0.996264)"/>
      <use xlink:href="#NimbusRomNo9L-Regu-54" transform="translate(389.339628 0)scale(0.996264)"/>
      <use xlink:href="#NimbusRomNo9L-Regu-2c" transform="translate(442.838957 0)scale(0.996264)"/>
      <use xlink:href="#NimbusRomNo9L-ReguItal-55" transform="translate(487.670807 0)scale(0.996264)"/>
      <use xlink:href="#NimbusRomNo9L-ReguItal-43" transform="translate(553.423958 -15.270966)scale(0.737241)"/>
      <use xlink:href="#CMR10-3d" transform="translate(626.85635 0)scale(0.996264)"/>
      <use xlink:href="#NimbusRomNo9L-Regu-30" transform="translate(729.171658 0)scale(0.996264)"/>
      <use xlink:href="#NimbusRomNo9L-Regu-2e" transform="translate(778.984858 0)scale(0.996264)"/>
      <use xlink:href="#NimbusRomNo9L-Regu-38" transform="translate(803.891459 0)scale(0.996264)"/>
      <use xlink:href="#NimbusRomNo9L-Regu-30" transform="translate(853.704659 0)scale(0.996264)"/>
     </g>
    </g>
    <g id="line2d_149">
     <path d="M 90 286.186342 
L 100 286.186342 
L 110 286.186342 
" style="fill: none; stroke: #008000; stroke-width: 2; stroke-linecap: square"/>
    </g>
    <g id="text_20">
     <!-- EPVP, EL, ST, $U_C=$ 0.94 -->
     <g transform="translate(118 289.686342)scale(0.1 -0.1)">
      <defs>
       <path id="NimbusRomNo9L-Regu-39" d="M 378 -122 
C 1094 -39 1446 83 1882 396 
C 2547 883 2938 1676 2938 2542 
C 2938 3601 2349 4352 1523 4352 
C 762 4352 192 3704 192 2837 
C 192 2055 653 1536 1344 1536 
C 1696 1536 1965 1638 2304 1901 
C 2042 857 1331 172 358 6 
L 378 -122 
z
M 2317 2292 
C 2317 2164 2291 2106 2221 2048 
C 2042 1894 1805 1811 1574 1811 
C 1088 1811 781 2292 781 3056 
C 781 3421 883 3806 1018 3973 
C 1126 4102 1286 4172 1472 4172 
C 2029 4172 2317 3620 2317 2542 
L 2317 2292 
z
" transform="scale(0.015625)"/>
      </defs>
      <use xlink:href="#NimbusRomNo9L-Regu-45" transform="scale(0.996264)"/>
      <use xlink:href="#NimbusRomNo9L-Regu-50" transform="translate(60.871631 0)scale(0.996264)"/>
      <use xlink:href="#NimbusRomNo9L-Regu-56" transform="translate(116.263308 0)scale(0.996264)"/>
      <use xlink:href="#NimbusRomNo9L-Regu-50" transform="translate(188.193292 0)scale(0.996264)"/>
      <use xlink:href="#NimbusRomNo9L-Regu-2c" transform="translate(232.526524 0)scale(0.996264)"/>
      <use xlink:href="#NimbusRomNo9L-Regu-45" transform="translate(282.339725 0)scale(0.996264)"/>
      <use xlink:href="#NimbusRomNo9L-Regu-4c" transform="translate(343.211355 0)scale(0.996264)"/>
      <use xlink:href="#NimbusRomNo9L-Regu-2c" transform="translate(404.082986 0)scale(0.996264)"/>
      <use xlink:href="#NimbusRomNo9L-Regu-53" transform="translate(453.896186 0)scale(0.996264)"/>
      <use xlink:href="#NimbusRomNo9L-Regu-54" transform="translate(509.287863 0)scale(0.996264)"/>
      <use xlink:href="#NimbusRomNo9L-Regu-2c" transform="translate(562.787192 0)scale(0.996264)"/>
      <use xlink:href="#NimbusRomNo9L-ReguItal-55" transform="translate(607.619042 0)scale(0.996264)"/>
      <use xlink:href="#NimbusRomNo9L-ReguItal-43" transform="translate(673.372193 -15.270966)scale(0.737241)"/>
      <use xlink:href="#CMR10-3d" transform="translate(746.804585 0)scale(0.996264)"/>
      <use xlink:href="#NimbusRomNo9L-Regu-30" transform="translate(849.119893 0)scale(0.996264)"/>
      <use xlink:href="#NimbusRomNo9L-Regu-2e" transform="translate(898.933093 0)scale(0.996264)"/>
      <use xlink:href="#NimbusRomNo9L-Regu-39" transform="translate(923.839694 0)scale(0.996264)"/>
      <use xlink:href="#NimbusRomNo9L-Regu-34" transform="translate(973.652894 0)scale(0.996264)"/>
     </g>
    </g>
    <g id="line2d_150">
     <path d="M 90 300.343171 
L 100 300.343171 
L 110 300.343171 
" style="fill: none; stroke-dasharray: 7.4,3.2; stroke-dashoffset: 0; stroke: #008000; stroke-width: 2"/>
    </g>
    <g id="text_21">
     <!-- EPVP, EL, LT, $U_C=$ 0.97 -->
     <g transform="translate(118 303.843171)scale(0.1 -0.1)">
      <use xlink:href="#NimbusRomNo9L-Regu-45" transform="scale(0.996264)"/>
      <use xlink:href="#NimbusRomNo9L-Regu-50" transform="translate(60.871631 0)scale(0.996264)"/>
      <use xlink:href="#NimbusRomNo9L-Regu-56" transform="translate(116.263308 0)scale(0.996264)"/>
      <use xlink:href="#NimbusRomNo9L-Regu-50" transform="translate(188.193292 0)scale(0.996264)"/>
      <use xlink:href="#NimbusRomNo9L-Regu-2c" transform="translate(232.526524 0)scale(0.996264)"/>
      <use xlink:href="#NimbusRomNo9L-Regu-45" transform="translate(282.339725 0)scale(0.996264)"/>
      <use xlink:href="#NimbusRomNo9L-Regu-4c" transform="translate(343.211355 0)scale(0.996264)"/>
      <use xlink:href="#NimbusRomNo9L-Regu-2c" transform="translate(404.082986 0)scale(0.996264)"/>
      <use xlink:href="#NimbusRomNo9L-Regu-4c" transform="translate(453.896186 0)scale(0.996264)"/>
      <use xlink:href="#NimbusRomNo9L-Regu-54" transform="translate(505.602936 0)scale(0.996264)"/>
      <use xlink:href="#NimbusRomNo9L-Regu-2c" transform="translate(559.102265 0)scale(0.996264)"/>
      <use xlink:href="#NimbusRomNo9L-ReguItal-55" transform="translate(603.934115 0)scale(0.996264)"/>
      <use xlink:href="#NimbusRomNo9L-ReguItal-43" transform="translate(669.687266 -15.270966)scale(0.737241)"/>
      <use xlink:href="#CMR10-3d" transform="translate(743.119658 0)scale(0.996264)"/>
      <use xlink:href="#NimbusRomNo9L-Regu-30" transform="translate(845.434966 0)scale(0.996264)"/>
      <use xlink:href="#NimbusRomNo9L-Regu-2e" transform="translate(895.248166 0)scale(0.996264)"/>
      <use xlink:href="#NimbusRomNo9L-Regu-39" transform="translate(920.154766 0)scale(0.996264)"/>
      <use xlink:href="#NimbusRomNo9L-Regu-37" transform="translate(969.967967 0)scale(0.996264)"/>
     </g>
    </g>
    <g id="line2d_151">
     <path d="M 230.794772 257.872684 
L 240.794772 257.872684 
L 250.794772 257.872684 
" style="fill: none; stroke: #ff0000; stroke-width: 2; stroke-linecap: square"/>
    </g>
    <g id="text_22">
     <!-- EPVP, VEL, ST, $U_C=$ 0.99 -->
     <g transform="translate(258.794772 261.372684)scale(0.1 -0.1)">
      <use xlink:href="#NimbusRomNo9L-Regu-45" transform="scale(0.996264)"/>
      <use xlink:href="#NimbusRomNo9L-Regu-50" transform="translate(60.871631 0)scale(0.996264)"/>
      <use xlink:href="#NimbusRomNo9L-Regu-56" transform="translate(116.263308 0)scale(0.996264)"/>
      <use xlink:href="#NimbusRomNo9L-Regu-50" transform="translate(188.193292 0)scale(0.996264)"/>
      <use xlink:href="#NimbusRomNo9L-Regu-2c" transform="translate(232.526524 0)scale(0.996264)"/>
      <use xlink:href="#NimbusRomNo9L-Regu-56" transform="translate(282.339725 0)scale(0.996264)"/>
      <use xlink:href="#NimbusRomNo9L-Regu-45" transform="translate(354.269709 0)scale(0.996264)"/>
      <use xlink:href="#NimbusRomNo9L-Regu-4c" transform="translate(415.14134 0)scale(0.996264)"/>
      <use xlink:href="#NimbusRomNo9L-Regu-2c" transform="translate(476.012971 0)scale(0.996264)"/>
      <use xlink:href="#NimbusRomNo9L-Regu-53" transform="translate(525.826171 0)scale(0.996264)"/>
      <use xlink:href="#NimbusRomNo9L-Regu-54" transform="translate(581.217848 0)scale(0.996264)"/>
      <use xlink:href="#NimbusRomNo9L-Regu-2c" transform="translate(634.717177 0)scale(0.996264)"/>
      <use xlink:href="#NimbusRomNo9L-ReguItal-55" transform="translate(679.549027 0)scale(0.996264)"/>
      <use xlink:href="#NimbusRomNo9L-ReguItal-43" transform="translate(745.302178 -15.270966)scale(0.737241)"/>
      <use xlink:href="#CMR10-3d" transform="translate(818.73457 0)scale(0.996264)"/>
      <use xlink:href="#NimbusRomNo9L-Regu-30" transform="translate(921.049878 0)scale(0.996264)"/>
      <use xlink:href="#NimbusRomNo9L-Regu-2e" transform="translate(970.863078 0)scale(0.996264)"/>
      <use xlink:href="#NimbusRomNo9L-Regu-39" transform="translate(995.769678 0)scale(0.996264)"/>
      <use xlink:href="#NimbusRomNo9L-Regu-39" transform="translate(1045.582879 0)scale(0.996264)"/>
     </g>
    </g>
    <g id="line2d_152">
     <path d="M 230.794772 272.029513 
L 240.794772 272.029513 
L 250.794772 272.029513 
" style="fill: none; stroke-dasharray: 7.4,3.2; stroke-dashoffset: 0; stroke: #ff0000; stroke-width: 2"/>
    </g>
    <g id="text_23">
     <!-- EPVP, VEL, LT, $U_C=$ 1.17 -->
     <g transform="translate(258.794772 275.529513)scale(0.1 -0.1)">
      <use xlink:href="#NimbusRomNo9L-Regu-45" transform="scale(0.996264)"/>
      <use xlink:href="#NimbusRomNo9L-Regu-50" transform="translate(60.871631 0)scale(0.996264)"/>
      <use xlink:href="#NimbusRomNo9L-Regu-56" transform="translate(116.263308 0)scale(0.996264)"/>
      <use xlink:href="#NimbusRomNo9L-Regu-50" transform="translate(188.193292 0)scale(0.996264)"/>
      <use xlink:href="#NimbusRomNo9L-Regu-2c" transform="translate(232.526524 0)scale(0.996264)"/>
      <use xlink:href="#NimbusRomNo9L-Regu-56" transform="translate(282.339725 0)scale(0.996264)"/>
      <use xlink:href="#NimbusRomNo9L-Regu-45" transform="translate(354.269709 0)scale(0.996264)"/>
      <use xlink:href="#NimbusRomNo9L-Regu-4c" transform="translate(415.14134 0)scale(0.996264)"/>
      <use xlink:href="#NimbusRomNo9L-Regu-2c" transform="translate(476.012971 0)scale(0.996264)"/>
      <use xlink:href="#NimbusRomNo9L-Regu-4c" transform="translate(525.826171 0)scale(0.996264)"/>
      <use xlink:href="#NimbusRomNo9L-Regu-54" transform="translate(577.532921 0)scale(0.996264)"/>
      <use xlink:href="#NimbusRomNo9L-Regu-2c" transform="translate(631.03225 0)scale(0.996264)"/>
      <use xlink:href="#NimbusRomNo9L-ReguItal-55" transform="translate(675.8641 0)scale(0.996264)"/>
      <use xlink:href="#NimbusRomNo9L-ReguItal-43" transform="translate(741.617251 -15.270966)scale(0.737241)"/>
      <use xlink:href="#CMR10-3d" transform="translate(815.049643 0)scale(0.996264)"/>
      <use xlink:href="#NimbusRomNo9L-Regu-31" transform="translate(917.36495 0)scale(0.996264)"/>
      <use xlink:href="#NimbusRomNo9L-Regu-2e" transform="translate(967.178151 0)scale(0.996264)"/>
      <use xlink:href="#NimbusRomNo9L-Regu-31" transform="translate(992.084751 0)scale(0.996264)"/>
      <use xlink:href="#NimbusRomNo9L-Regu-37" transform="translate(1041.897952 0)scale(0.996264)"/>
     </g>
    </g>
    <g id="line2d_153">
     <path d="M 230.794772 286.186342 
L 240.794772 286.186342 
L 250.794772 286.186342 
" style="fill: none; stroke-dasharray: 7.4,3.2; stroke-dashoffset: 0; stroke: #ffa500; stroke-width: 2"/>
    </g>
    <g id="text_24">
     <!-- EP, EL, $U_C=$ 0.95 -->
     <g transform="translate(258.794772 289.686342)scale(0.1 -0.1)">
      <use xlink:href="#NimbusRomNo9L-Regu-45" transform="scale(0.996264)"/>
      <use xlink:href="#NimbusRomNo9L-Regu-50" transform="translate(60.871631 0)scale(0.996264)"/>
      <use xlink:href="#NimbusRomNo9L-Regu-2c" transform="translate(105.204862 0)scale(0.996264)"/>
      <use xlink:href="#NimbusRomNo9L-Regu-45" transform="translate(155.018063 0)scale(0.996264)"/>
      <use xlink:href="#NimbusRomNo9L-Regu-4c" transform="translate(215.889693 0)scale(0.996264)"/>
      <use xlink:href="#NimbusRomNo9L-Regu-2c" transform="translate(276.761324 0)scale(0.996264)"/>
      <use xlink:href="#NimbusRomNo9L-ReguItal-55" transform="translate(321.593174 0)scale(0.996264)"/>
      <use xlink:href="#NimbusRomNo9L-ReguItal-43" transform="translate(387.346325 -15.270966)scale(0.737241)"/>
      <use xlink:href="#CMR10-3d" transform="translate(460.778717 0)scale(0.996264)"/>
      <use xlink:href="#NimbusRomNo9L-Regu-30" transform="translate(563.094025 0)scale(0.996264)"/>
      <use xlink:href="#NimbusRomNo9L-Regu-2e" transform="translate(612.907225 0)scale(0.996264)"/>
      <use xlink:href="#NimbusRomNo9L-Regu-39" transform="translate(637.813826 0)scale(0.996264)"/>
      <use xlink:href="#NimbusRomNo9L-Regu-35" transform="translate(687.627026 0)scale(0.996264)"/>
     </g>
    </g>
    <g id="line2d_154">
     <path d="M 230.794772 300.343171 
L 240.794772 300.343171 
L 250.794772 300.343171 
" style="fill: none; stroke-dasharray: 7.4,3.2; stroke-dashoffset: 0; stroke: #0000ff; stroke-width: 2"/>
    </g>
    <g id="text_25">
     <!-- E, EL, $U_C=$ 0.74 -->
     <g transform="translate(258.794772 303.843171)scale(0.1 -0.1)">
      <use xlink:href="#NimbusRomNo9L-Regu-45" transform="scale(0.996264)"/>
      <use xlink:href="#NimbusRomNo9L-Regu-2c" transform="translate(60.871631 0)scale(0.996264)"/>
      <use xlink:href="#NimbusRomNo9L-Regu-45" transform="translate(110.684831 0)scale(0.996264)"/>
      <use xlink:href="#NimbusRomNo9L-Regu-4c" transform="translate(171.556462 0)scale(0.996264)"/>
      <use xlink:href="#NimbusRomNo9L-Regu-2c" transform="translate(232.428093 0)scale(0.996264)"/>
      <use xlink:href="#NimbusRomNo9L-ReguItal-55" transform="translate(277.259943 0)scale(0.996264)"/>
      <use xlink:href="#NimbusRomNo9L-ReguItal-43" transform="translate(343.013094 -15.270966)scale(0.737241)"/>
      <use xlink:href="#CMR10-3d" transform="translate(416.445486 0)scale(0.996264)"/>
      <use xlink:href="#NimbusRomNo9L-Regu-30" transform="translate(518.760793 0)scale(0.996264)"/>
      <use xlink:href="#NimbusRomNo9L-Regu-2e" transform="translate(568.573994 0)scale(0.996264)"/>
      <use xlink:href="#NimbusRomNo9L-Regu-37" transform="translate(593.480594 0)scale(0.996264)"/>
      <use xlink:href="#NimbusRomNo9L-Regu-34" transform="translate(643.293795 0)scale(0.996264)"/>
     </g>
    </g>
   </g>
  </g>
 </g>
 <defs>
  <clipPath id="p22f1695f01">
   <rect x="81" y="43.2" width="502.2" height="271.8"/>
  </clipPath>
 </defs>
</svg>
